%TF.GenerationSoftware,KiCad,Pcbnew,9.0.6*%
%TF.CreationDate,2026-07-19T21:30:42+03:00*%
%TF.ProjectId,Schematic,53636865-6d61-4746-9963-2e6b69636164,rev?*%
%TF.SameCoordinates,Original*%
%TF.FileFunction,Legend,Top*%
%TF.FilePolarity,Positive*%
%FSLAX46Y46*%
G04 Gerber Fmt 4.6, Leading zero omitted, Abs format (unit mm)*
G04 Created by KiCad (PCBNEW 9.0.6) date 2026-07-19 21:30:42*
%MOMM*%
%LPD*%
G01*
G04 APERTURE LIST*
%ADD10C,0.100000*%
%ADD11C,0.150000*%
%ADD12C,0.120000*%
G04 APERTURE END LIST*
D10*
X157303884Y-112872419D02*
X157303884Y-111872419D01*
X157303884Y-111872419D02*
X157684836Y-111872419D01*
X157684836Y-111872419D02*
X157780074Y-111920038D01*
X157780074Y-111920038D02*
X157827693Y-111967657D01*
X157827693Y-111967657D02*
X157875312Y-112062895D01*
X157875312Y-112062895D02*
X157875312Y-112205752D01*
X157875312Y-112205752D02*
X157827693Y-112300990D01*
X157827693Y-112300990D02*
X157780074Y-112348609D01*
X157780074Y-112348609D02*
X157684836Y-112396228D01*
X157684836Y-112396228D02*
X157303884Y-112396228D01*
X158303884Y-112872419D02*
X158303884Y-111872419D01*
X159351502Y-112777180D02*
X159303883Y-112824800D01*
X159303883Y-112824800D02*
X159161026Y-112872419D01*
X159161026Y-112872419D02*
X159065788Y-112872419D01*
X159065788Y-112872419D02*
X158922931Y-112824800D01*
X158922931Y-112824800D02*
X158827693Y-112729561D01*
X158827693Y-112729561D02*
X158780074Y-112634323D01*
X158780074Y-112634323D02*
X158732455Y-112443847D01*
X158732455Y-112443847D02*
X158732455Y-112300990D01*
X158732455Y-112300990D02*
X158780074Y-112110514D01*
X158780074Y-112110514D02*
X158827693Y-112015276D01*
X158827693Y-112015276D02*
X158922931Y-111920038D01*
X158922931Y-111920038D02*
X159065788Y-111872419D01*
X159065788Y-111872419D02*
X159161026Y-111872419D01*
X159161026Y-111872419D02*
X159303883Y-111920038D01*
X159303883Y-111920038D02*
X159351502Y-111967657D01*
X159970550Y-111872419D02*
X160161026Y-111872419D01*
X160161026Y-111872419D02*
X160256264Y-111920038D01*
X160256264Y-111920038D02*
X160351502Y-112015276D01*
X160351502Y-112015276D02*
X160399121Y-112205752D01*
X160399121Y-112205752D02*
X160399121Y-112539085D01*
X160399121Y-112539085D02*
X160351502Y-112729561D01*
X160351502Y-112729561D02*
X160256264Y-112824800D01*
X160256264Y-112824800D02*
X160161026Y-112872419D01*
X160161026Y-112872419D02*
X159970550Y-112872419D01*
X159970550Y-112872419D02*
X159875312Y-112824800D01*
X159875312Y-112824800D02*
X159780074Y-112729561D01*
X159780074Y-112729561D02*
X159732455Y-112539085D01*
X159732455Y-112539085D02*
X159732455Y-112205752D01*
X159732455Y-112205752D02*
X159780074Y-112015276D01*
X159780074Y-112015276D02*
X159875312Y-111920038D01*
X159875312Y-111920038D02*
X159970550Y-111872419D01*
D11*
X120622493Y-98869819D02*
X120622493Y-99584104D01*
X120622493Y-99584104D02*
X120574874Y-99726961D01*
X120574874Y-99726961D02*
X120479636Y-99822200D01*
X120479636Y-99822200D02*
X120336779Y-99869819D01*
X120336779Y-99869819D02*
X120241541Y-99869819D01*
X121098684Y-99869819D02*
X121098684Y-98869819D01*
X121098684Y-98869819D02*
X121336779Y-98869819D01*
X121336779Y-98869819D02*
X121479636Y-98917438D01*
X121479636Y-98917438D02*
X121574874Y-99012676D01*
X121574874Y-99012676D02*
X121622493Y-99107914D01*
X121622493Y-99107914D02*
X121670112Y-99298390D01*
X121670112Y-99298390D02*
X121670112Y-99441247D01*
X121670112Y-99441247D02*
X121622493Y-99631723D01*
X121622493Y-99631723D02*
X121574874Y-99726961D01*
X121574874Y-99726961D02*
X121479636Y-99822200D01*
X121479636Y-99822200D02*
X121336779Y-99869819D01*
X121336779Y-99869819D02*
X121098684Y-99869819D01*
X122289160Y-99393628D02*
X122289160Y-99869819D01*
X121955827Y-98869819D02*
X122289160Y-99393628D01*
X122289160Y-99393628D02*
X122622493Y-98869819D01*
X122955827Y-99488866D02*
X123717732Y-99488866D01*
X124622493Y-98869819D02*
X124432017Y-98869819D01*
X124432017Y-98869819D02*
X124336779Y-98917438D01*
X124336779Y-98917438D02*
X124289160Y-98965057D01*
X124289160Y-98965057D02*
X124193922Y-99107914D01*
X124193922Y-99107914D02*
X124146303Y-99298390D01*
X124146303Y-99298390D02*
X124146303Y-99679342D01*
X124146303Y-99679342D02*
X124193922Y-99774580D01*
X124193922Y-99774580D02*
X124241541Y-99822200D01*
X124241541Y-99822200D02*
X124336779Y-99869819D01*
X124336779Y-99869819D02*
X124527255Y-99869819D01*
X124527255Y-99869819D02*
X124622493Y-99822200D01*
X124622493Y-99822200D02*
X124670112Y-99774580D01*
X124670112Y-99774580D02*
X124717731Y-99679342D01*
X124717731Y-99679342D02*
X124717731Y-99441247D01*
X124717731Y-99441247D02*
X124670112Y-99346009D01*
X124670112Y-99346009D02*
X124622493Y-99298390D01*
X124622493Y-99298390D02*
X124527255Y-99250771D01*
X124527255Y-99250771D02*
X124336779Y-99250771D01*
X124336779Y-99250771D02*
X124241541Y-99298390D01*
X124241541Y-99298390D02*
X124193922Y-99346009D01*
X124193922Y-99346009D02*
X124146303Y-99441247D01*
X125098684Y-98965057D02*
X125146303Y-98917438D01*
X125146303Y-98917438D02*
X125241541Y-98869819D01*
X125241541Y-98869819D02*
X125479636Y-98869819D01*
X125479636Y-98869819D02*
X125574874Y-98917438D01*
X125574874Y-98917438D02*
X125622493Y-98965057D01*
X125622493Y-98965057D02*
X125670112Y-99060295D01*
X125670112Y-99060295D02*
X125670112Y-99155533D01*
X125670112Y-99155533D02*
X125622493Y-99298390D01*
X125622493Y-99298390D02*
X125051065Y-99869819D01*
X125051065Y-99869819D02*
X125670112Y-99869819D01*
D10*
X184802952Y-107347419D02*
X185374380Y-107347419D01*
X185088666Y-108347419D02*
X185088666Y-107347419D01*
X185707714Y-108347419D02*
X185707714Y-107347419D01*
X185707714Y-107347419D02*
X186088666Y-107347419D01*
X186088666Y-107347419D02*
X186183904Y-107395038D01*
X186183904Y-107395038D02*
X186231523Y-107442657D01*
X186231523Y-107442657D02*
X186279142Y-107537895D01*
X186279142Y-107537895D02*
X186279142Y-107680752D01*
X186279142Y-107680752D02*
X186231523Y-107775990D01*
X186231523Y-107775990D02*
X186183904Y-107823609D01*
X186183904Y-107823609D02*
X186088666Y-107871228D01*
X186088666Y-107871228D02*
X185707714Y-107871228D01*
X186660095Y-108061704D02*
X187136285Y-108061704D01*
X186564857Y-108347419D02*
X186898190Y-107347419D01*
X186898190Y-107347419D02*
X187231523Y-108347419D01*
X187517238Y-107442657D02*
X187564857Y-107395038D01*
X187564857Y-107395038D02*
X187660095Y-107347419D01*
X187660095Y-107347419D02*
X187898190Y-107347419D01*
X187898190Y-107347419D02*
X187993428Y-107395038D01*
X187993428Y-107395038D02*
X188041047Y-107442657D01*
X188041047Y-107442657D02*
X188088666Y-107537895D01*
X188088666Y-107537895D02*
X188088666Y-107633133D01*
X188088666Y-107633133D02*
X188041047Y-107775990D01*
X188041047Y-107775990D02*
X187469619Y-108347419D01*
X187469619Y-108347419D02*
X188088666Y-108347419D01*
X188707714Y-107347419D02*
X188802952Y-107347419D01*
X188802952Y-107347419D02*
X188898190Y-107395038D01*
X188898190Y-107395038D02*
X188945809Y-107442657D01*
X188945809Y-107442657D02*
X188993428Y-107537895D01*
X188993428Y-107537895D02*
X189041047Y-107728371D01*
X189041047Y-107728371D02*
X189041047Y-107966466D01*
X189041047Y-107966466D02*
X188993428Y-108156942D01*
X188993428Y-108156942D02*
X188945809Y-108252180D01*
X188945809Y-108252180D02*
X188898190Y-108299800D01*
X188898190Y-108299800D02*
X188802952Y-108347419D01*
X188802952Y-108347419D02*
X188707714Y-108347419D01*
X188707714Y-108347419D02*
X188612476Y-108299800D01*
X188612476Y-108299800D02*
X188564857Y-108252180D01*
X188564857Y-108252180D02*
X188517238Y-108156942D01*
X188517238Y-108156942D02*
X188469619Y-107966466D01*
X188469619Y-107966466D02*
X188469619Y-107728371D01*
X188469619Y-107728371D02*
X188517238Y-107537895D01*
X188517238Y-107537895D02*
X188564857Y-107442657D01*
X188564857Y-107442657D02*
X188612476Y-107395038D01*
X188612476Y-107395038D02*
X188707714Y-107347419D01*
X189993428Y-108347419D02*
X189422000Y-108347419D01*
X189707714Y-108347419D02*
X189707714Y-107347419D01*
X189707714Y-107347419D02*
X189612476Y-107490276D01*
X189612476Y-107490276D02*
X189517238Y-107585514D01*
X189517238Y-107585514D02*
X189422000Y-107633133D01*
X190850571Y-107347419D02*
X190660095Y-107347419D01*
X190660095Y-107347419D02*
X190564857Y-107395038D01*
X190564857Y-107395038D02*
X190517238Y-107442657D01*
X190517238Y-107442657D02*
X190422000Y-107585514D01*
X190422000Y-107585514D02*
X190374381Y-107775990D01*
X190374381Y-107775990D02*
X190374381Y-108156942D01*
X190374381Y-108156942D02*
X190422000Y-108252180D01*
X190422000Y-108252180D02*
X190469619Y-108299800D01*
X190469619Y-108299800D02*
X190564857Y-108347419D01*
X190564857Y-108347419D02*
X190755333Y-108347419D01*
X190755333Y-108347419D02*
X190850571Y-108299800D01*
X190850571Y-108299800D02*
X190898190Y-108252180D01*
X190898190Y-108252180D02*
X190945809Y-108156942D01*
X190945809Y-108156942D02*
X190945809Y-107918847D01*
X190945809Y-107918847D02*
X190898190Y-107823609D01*
X190898190Y-107823609D02*
X190850571Y-107775990D01*
X190850571Y-107775990D02*
X190755333Y-107728371D01*
X190755333Y-107728371D02*
X190564857Y-107728371D01*
X190564857Y-107728371D02*
X190469619Y-107775990D01*
X190469619Y-107775990D02*
X190422000Y-107823609D01*
X190422000Y-107823609D02*
X190374381Y-107918847D01*
X180320074Y-122240419D02*
X179843884Y-122240419D01*
X179843884Y-122240419D02*
X179843884Y-121240419D01*
X180653408Y-121859466D02*
X181415313Y-121859466D01*
X181034360Y-122240419D02*
X181034360Y-121478514D01*
X189813312Y-115382419D02*
X189479979Y-114906228D01*
X189241884Y-115382419D02*
X189241884Y-114382419D01*
X189241884Y-114382419D02*
X189622836Y-114382419D01*
X189622836Y-114382419D02*
X189718074Y-114430038D01*
X189718074Y-114430038D02*
X189765693Y-114477657D01*
X189765693Y-114477657D02*
X189813312Y-114572895D01*
X189813312Y-114572895D02*
X189813312Y-114715752D01*
X189813312Y-114715752D02*
X189765693Y-114810990D01*
X189765693Y-114810990D02*
X189718074Y-114858609D01*
X189718074Y-114858609D02*
X189622836Y-114906228D01*
X189622836Y-114906228D02*
X189241884Y-114906228D01*
X190432360Y-114382419D02*
X190622836Y-114382419D01*
X190622836Y-114382419D02*
X190718074Y-114430038D01*
X190718074Y-114430038D02*
X190813312Y-114525276D01*
X190813312Y-114525276D02*
X190860931Y-114715752D01*
X190860931Y-114715752D02*
X190860931Y-115049085D01*
X190860931Y-115049085D02*
X190813312Y-115239561D01*
X190813312Y-115239561D02*
X190718074Y-115334800D01*
X190718074Y-115334800D02*
X190622836Y-115382419D01*
X190622836Y-115382419D02*
X190432360Y-115382419D01*
X190432360Y-115382419D02*
X190337122Y-115334800D01*
X190337122Y-115334800D02*
X190241884Y-115239561D01*
X190241884Y-115239561D02*
X190194265Y-115049085D01*
X190194265Y-115049085D02*
X190194265Y-114715752D01*
X190194265Y-114715752D02*
X190241884Y-114525276D01*
X190241884Y-114525276D02*
X190337122Y-114430038D01*
X190337122Y-114430038D02*
X190432360Y-114382419D01*
X191289503Y-114382419D02*
X191289503Y-115191942D01*
X191289503Y-115191942D02*
X191337122Y-115287180D01*
X191337122Y-115287180D02*
X191384741Y-115334800D01*
X191384741Y-115334800D02*
X191479979Y-115382419D01*
X191479979Y-115382419D02*
X191670455Y-115382419D01*
X191670455Y-115382419D02*
X191765693Y-115334800D01*
X191765693Y-115334800D02*
X191813312Y-115287180D01*
X191813312Y-115287180D02*
X191860931Y-115191942D01*
X191860931Y-115191942D02*
X191860931Y-114382419D01*
X192194265Y-114382419D02*
X192765693Y-114382419D01*
X192479979Y-115382419D02*
X192479979Y-114382419D01*
X193099027Y-115001466D02*
X193860932Y-115001466D01*
X193479979Y-115382419D02*
X193479979Y-114620514D01*
X179756265Y-114572800D02*
X179899122Y-114620419D01*
X179899122Y-114620419D02*
X180137217Y-114620419D01*
X180137217Y-114620419D02*
X180232455Y-114572800D01*
X180232455Y-114572800D02*
X180280074Y-114525180D01*
X180280074Y-114525180D02*
X180327693Y-114429942D01*
X180327693Y-114429942D02*
X180327693Y-114334704D01*
X180327693Y-114334704D02*
X180280074Y-114239466D01*
X180280074Y-114239466D02*
X180232455Y-114191847D01*
X180232455Y-114191847D02*
X180137217Y-114144228D01*
X180137217Y-114144228D02*
X179946741Y-114096609D01*
X179946741Y-114096609D02*
X179851503Y-114048990D01*
X179851503Y-114048990D02*
X179803884Y-114001371D01*
X179803884Y-114001371D02*
X179756265Y-113906133D01*
X179756265Y-113906133D02*
X179756265Y-113810895D01*
X179756265Y-113810895D02*
X179803884Y-113715657D01*
X179803884Y-113715657D02*
X179851503Y-113668038D01*
X179851503Y-113668038D02*
X179946741Y-113620419D01*
X179946741Y-113620419D02*
X180184836Y-113620419D01*
X180184836Y-113620419D02*
X180327693Y-113668038D01*
X180756265Y-114620419D02*
X180756265Y-113620419D01*
X180756265Y-114096609D02*
X181327693Y-114096609D01*
X181327693Y-114620419D02*
X181327693Y-113620419D01*
X181803884Y-114620419D02*
X181803884Y-113620419D01*
X181803884Y-113620419D02*
X182041979Y-113620419D01*
X182041979Y-113620419D02*
X182184836Y-113668038D01*
X182184836Y-113668038D02*
X182280074Y-113763276D01*
X182280074Y-113763276D02*
X182327693Y-113858514D01*
X182327693Y-113858514D02*
X182375312Y-114048990D01*
X182375312Y-114048990D02*
X182375312Y-114191847D01*
X182375312Y-114191847D02*
X182327693Y-114382323D01*
X182327693Y-114382323D02*
X182280074Y-114477561D01*
X182280074Y-114477561D02*
X182184836Y-114572800D01*
X182184836Y-114572800D02*
X182041979Y-114620419D01*
X182041979Y-114620419D02*
X181803884Y-114620419D01*
X182803884Y-114620419D02*
X182803884Y-113620419D01*
X182803884Y-113620419D02*
X183375312Y-114620419D01*
X183375312Y-114620419D02*
X183375312Y-113620419D01*
X180415312Y-117160419D02*
X180081979Y-116684228D01*
X179843884Y-117160419D02*
X179843884Y-116160419D01*
X179843884Y-116160419D02*
X180224836Y-116160419D01*
X180224836Y-116160419D02*
X180320074Y-116208038D01*
X180320074Y-116208038D02*
X180367693Y-116255657D01*
X180367693Y-116255657D02*
X180415312Y-116350895D01*
X180415312Y-116350895D02*
X180415312Y-116493752D01*
X180415312Y-116493752D02*
X180367693Y-116588990D01*
X180367693Y-116588990D02*
X180320074Y-116636609D01*
X180320074Y-116636609D02*
X180224836Y-116684228D01*
X180224836Y-116684228D02*
X179843884Y-116684228D01*
X180843884Y-116779466D02*
X181605789Y-116779466D01*
X180320074Y-124932419D02*
X179843884Y-124932419D01*
X179843884Y-124932419D02*
X179843884Y-123932419D01*
X180653408Y-124551466D02*
X181415313Y-124551466D01*
X180415312Y-119700419D02*
X180081979Y-119224228D01*
X179843884Y-119700419D02*
X179843884Y-118700419D01*
X179843884Y-118700419D02*
X180224836Y-118700419D01*
X180224836Y-118700419D02*
X180320074Y-118748038D01*
X180320074Y-118748038D02*
X180367693Y-118795657D01*
X180367693Y-118795657D02*
X180415312Y-118890895D01*
X180415312Y-118890895D02*
X180415312Y-119033752D01*
X180415312Y-119033752D02*
X180367693Y-119128990D01*
X180367693Y-119128990D02*
X180320074Y-119176609D01*
X180320074Y-119176609D02*
X180224836Y-119224228D01*
X180224836Y-119224228D02*
X179843884Y-119224228D01*
X180843884Y-119319466D02*
X181605789Y-119319466D01*
X181224836Y-119700419D02*
X181224836Y-118938514D01*
X189813312Y-118938419D02*
X189479979Y-118462228D01*
X189241884Y-118938419D02*
X189241884Y-117938419D01*
X189241884Y-117938419D02*
X189622836Y-117938419D01*
X189622836Y-117938419D02*
X189718074Y-117986038D01*
X189718074Y-117986038D02*
X189765693Y-118033657D01*
X189765693Y-118033657D02*
X189813312Y-118128895D01*
X189813312Y-118128895D02*
X189813312Y-118271752D01*
X189813312Y-118271752D02*
X189765693Y-118366990D01*
X189765693Y-118366990D02*
X189718074Y-118414609D01*
X189718074Y-118414609D02*
X189622836Y-118462228D01*
X189622836Y-118462228D02*
X189241884Y-118462228D01*
X190432360Y-117938419D02*
X190622836Y-117938419D01*
X190622836Y-117938419D02*
X190718074Y-117986038D01*
X190718074Y-117986038D02*
X190813312Y-118081276D01*
X190813312Y-118081276D02*
X190860931Y-118271752D01*
X190860931Y-118271752D02*
X190860931Y-118605085D01*
X190860931Y-118605085D02*
X190813312Y-118795561D01*
X190813312Y-118795561D02*
X190718074Y-118890800D01*
X190718074Y-118890800D02*
X190622836Y-118938419D01*
X190622836Y-118938419D02*
X190432360Y-118938419D01*
X190432360Y-118938419D02*
X190337122Y-118890800D01*
X190337122Y-118890800D02*
X190241884Y-118795561D01*
X190241884Y-118795561D02*
X190194265Y-118605085D01*
X190194265Y-118605085D02*
X190194265Y-118271752D01*
X190194265Y-118271752D02*
X190241884Y-118081276D01*
X190241884Y-118081276D02*
X190337122Y-117986038D01*
X190337122Y-117986038D02*
X190432360Y-117938419D01*
X191289503Y-117938419D02*
X191289503Y-118747942D01*
X191289503Y-118747942D02*
X191337122Y-118843180D01*
X191337122Y-118843180D02*
X191384741Y-118890800D01*
X191384741Y-118890800D02*
X191479979Y-118938419D01*
X191479979Y-118938419D02*
X191670455Y-118938419D01*
X191670455Y-118938419D02*
X191765693Y-118890800D01*
X191765693Y-118890800D02*
X191813312Y-118843180D01*
X191813312Y-118843180D02*
X191860931Y-118747942D01*
X191860931Y-118747942D02*
X191860931Y-117938419D01*
X192194265Y-117938419D02*
X192765693Y-117938419D01*
X192479979Y-118938419D02*
X192479979Y-117938419D01*
X193099027Y-118557466D02*
X193860932Y-118557466D01*
X179796265Y-129812800D02*
X179939122Y-129860419D01*
X179939122Y-129860419D02*
X180177217Y-129860419D01*
X180177217Y-129860419D02*
X180272455Y-129812800D01*
X180272455Y-129812800D02*
X180320074Y-129765180D01*
X180320074Y-129765180D02*
X180367693Y-129669942D01*
X180367693Y-129669942D02*
X180367693Y-129574704D01*
X180367693Y-129574704D02*
X180320074Y-129479466D01*
X180320074Y-129479466D02*
X180272455Y-129431847D01*
X180272455Y-129431847D02*
X180177217Y-129384228D01*
X180177217Y-129384228D02*
X179986741Y-129336609D01*
X179986741Y-129336609D02*
X179891503Y-129288990D01*
X179891503Y-129288990D02*
X179843884Y-129241371D01*
X179843884Y-129241371D02*
X179796265Y-129146133D01*
X179796265Y-129146133D02*
X179796265Y-129050895D01*
X179796265Y-129050895D02*
X179843884Y-128955657D01*
X179843884Y-128955657D02*
X179891503Y-128908038D01*
X179891503Y-128908038D02*
X179986741Y-128860419D01*
X179986741Y-128860419D02*
X180224836Y-128860419D01*
X180224836Y-128860419D02*
X180367693Y-128908038D01*
X180796265Y-129860419D02*
X180796265Y-128860419D01*
X180796265Y-128860419D02*
X181034360Y-128860419D01*
X181034360Y-128860419D02*
X181177217Y-128908038D01*
X181177217Y-128908038D02*
X181272455Y-129003276D01*
X181272455Y-129003276D02*
X181320074Y-129098514D01*
X181320074Y-129098514D02*
X181367693Y-129288990D01*
X181367693Y-129288990D02*
X181367693Y-129431847D01*
X181367693Y-129431847D02*
X181320074Y-129622323D01*
X181320074Y-129622323D02*
X181272455Y-129717561D01*
X181272455Y-129717561D02*
X181177217Y-129812800D01*
X181177217Y-129812800D02*
X181034360Y-129860419D01*
X181034360Y-129860419D02*
X180796265Y-129860419D01*
X181748646Y-129574704D02*
X182224836Y-129574704D01*
X181653408Y-129860419D02*
X181986741Y-128860419D01*
X181986741Y-128860419D02*
X182320074Y-129860419D01*
X179843884Y-132432419D02*
X179843884Y-131432419D01*
X180272455Y-131527657D02*
X180320074Y-131480038D01*
X180320074Y-131480038D02*
X180415312Y-131432419D01*
X180415312Y-131432419D02*
X180653407Y-131432419D01*
X180653407Y-131432419D02*
X180748645Y-131480038D01*
X180748645Y-131480038D02*
X180796264Y-131527657D01*
X180796264Y-131527657D02*
X180843883Y-131622895D01*
X180843883Y-131622895D02*
X180843883Y-131718133D01*
X180843883Y-131718133D02*
X180796264Y-131860990D01*
X180796264Y-131860990D02*
X180224836Y-132432419D01*
X180224836Y-132432419D02*
X180843883Y-132432419D01*
X181843883Y-132337180D02*
X181796264Y-132384800D01*
X181796264Y-132384800D02*
X181653407Y-132432419D01*
X181653407Y-132432419D02*
X181558169Y-132432419D01*
X181558169Y-132432419D02*
X181415312Y-132384800D01*
X181415312Y-132384800D02*
X181320074Y-132289561D01*
X181320074Y-132289561D02*
X181272455Y-132194323D01*
X181272455Y-132194323D02*
X181224836Y-132003847D01*
X181224836Y-132003847D02*
X181224836Y-131860990D01*
X181224836Y-131860990D02*
X181272455Y-131670514D01*
X181272455Y-131670514D02*
X181320074Y-131575276D01*
X181320074Y-131575276D02*
X181415312Y-131480038D01*
X181415312Y-131480038D02*
X181558169Y-131432419D01*
X181558169Y-131432419D02*
X181653407Y-131432419D01*
X181653407Y-131432419D02*
X181796264Y-131480038D01*
X181796264Y-131480038D02*
X181843883Y-131527657D01*
X182891503Y-131432419D02*
X183224836Y-132432419D01*
X183224836Y-132432419D02*
X183558169Y-131432419D01*
X184462931Y-132337180D02*
X184415312Y-132384800D01*
X184415312Y-132384800D02*
X184272455Y-132432419D01*
X184272455Y-132432419D02*
X184177217Y-132432419D01*
X184177217Y-132432419D02*
X184034360Y-132384800D01*
X184034360Y-132384800D02*
X183939122Y-132289561D01*
X183939122Y-132289561D02*
X183891503Y-132194323D01*
X183891503Y-132194323D02*
X183843884Y-132003847D01*
X183843884Y-132003847D02*
X183843884Y-131860990D01*
X183843884Y-131860990D02*
X183891503Y-131670514D01*
X183891503Y-131670514D02*
X183939122Y-131575276D01*
X183939122Y-131575276D02*
X184034360Y-131480038D01*
X184034360Y-131480038D02*
X184177217Y-131432419D01*
X184177217Y-131432419D02*
X184272455Y-131432419D01*
X184272455Y-131432419D02*
X184415312Y-131480038D01*
X184415312Y-131480038D02*
X184462931Y-131527657D01*
X185462931Y-132337180D02*
X185415312Y-132384800D01*
X185415312Y-132384800D02*
X185272455Y-132432419D01*
X185272455Y-132432419D02*
X185177217Y-132432419D01*
X185177217Y-132432419D02*
X185034360Y-132384800D01*
X185034360Y-132384800D02*
X184939122Y-132289561D01*
X184939122Y-132289561D02*
X184891503Y-132194323D01*
X184891503Y-132194323D02*
X184843884Y-132003847D01*
X184843884Y-132003847D02*
X184843884Y-131860990D01*
X184843884Y-131860990D02*
X184891503Y-131670514D01*
X184891503Y-131670514D02*
X184939122Y-131575276D01*
X184939122Y-131575276D02*
X185034360Y-131480038D01*
X185034360Y-131480038D02*
X185177217Y-131432419D01*
X185177217Y-131432419D02*
X185272455Y-131432419D01*
X185272455Y-131432419D02*
X185415312Y-131480038D01*
X185415312Y-131480038D02*
X185462931Y-131527657D01*
X180327693Y-111128038D02*
X180232455Y-111080419D01*
X180232455Y-111080419D02*
X180089598Y-111080419D01*
X180089598Y-111080419D02*
X179946741Y-111128038D01*
X179946741Y-111128038D02*
X179851503Y-111223276D01*
X179851503Y-111223276D02*
X179803884Y-111318514D01*
X179803884Y-111318514D02*
X179756265Y-111508990D01*
X179756265Y-111508990D02*
X179756265Y-111651847D01*
X179756265Y-111651847D02*
X179803884Y-111842323D01*
X179803884Y-111842323D02*
X179851503Y-111937561D01*
X179851503Y-111937561D02*
X179946741Y-112032800D01*
X179946741Y-112032800D02*
X180089598Y-112080419D01*
X180089598Y-112080419D02*
X180184836Y-112080419D01*
X180184836Y-112080419D02*
X180327693Y-112032800D01*
X180327693Y-112032800D02*
X180375312Y-111985180D01*
X180375312Y-111985180D02*
X180375312Y-111651847D01*
X180375312Y-111651847D02*
X180184836Y-111651847D01*
X180803884Y-112080419D02*
X180803884Y-111080419D01*
X180803884Y-111080419D02*
X181375312Y-112080419D01*
X181375312Y-112080419D02*
X181375312Y-111080419D01*
X181851503Y-112080419D02*
X181851503Y-111080419D01*
X181851503Y-111080419D02*
X182089598Y-111080419D01*
X182089598Y-111080419D02*
X182232455Y-111128038D01*
X182232455Y-111128038D02*
X182327693Y-111223276D01*
X182327693Y-111223276D02*
X182375312Y-111318514D01*
X182375312Y-111318514D02*
X182422931Y-111508990D01*
X182422931Y-111508990D02*
X182422931Y-111651847D01*
X182422931Y-111651847D02*
X182375312Y-111842323D01*
X182375312Y-111842323D02*
X182327693Y-111937561D01*
X182327693Y-111937561D02*
X182232455Y-112032800D01*
X182232455Y-112032800D02*
X182089598Y-112080419D01*
X182089598Y-112080419D02*
X181851503Y-112080419D01*
X179796265Y-127272800D02*
X179939122Y-127320419D01*
X179939122Y-127320419D02*
X180177217Y-127320419D01*
X180177217Y-127320419D02*
X180272455Y-127272800D01*
X180272455Y-127272800D02*
X180320074Y-127225180D01*
X180320074Y-127225180D02*
X180367693Y-127129942D01*
X180367693Y-127129942D02*
X180367693Y-127034704D01*
X180367693Y-127034704D02*
X180320074Y-126939466D01*
X180320074Y-126939466D02*
X180272455Y-126891847D01*
X180272455Y-126891847D02*
X180177217Y-126844228D01*
X180177217Y-126844228D02*
X179986741Y-126796609D01*
X179986741Y-126796609D02*
X179891503Y-126748990D01*
X179891503Y-126748990D02*
X179843884Y-126701371D01*
X179843884Y-126701371D02*
X179796265Y-126606133D01*
X179796265Y-126606133D02*
X179796265Y-126510895D01*
X179796265Y-126510895D02*
X179843884Y-126415657D01*
X179843884Y-126415657D02*
X179891503Y-126368038D01*
X179891503Y-126368038D02*
X179986741Y-126320419D01*
X179986741Y-126320419D02*
X180224836Y-126320419D01*
X180224836Y-126320419D02*
X180367693Y-126368038D01*
X181367693Y-127225180D02*
X181320074Y-127272800D01*
X181320074Y-127272800D02*
X181177217Y-127320419D01*
X181177217Y-127320419D02*
X181081979Y-127320419D01*
X181081979Y-127320419D02*
X180939122Y-127272800D01*
X180939122Y-127272800D02*
X180843884Y-127177561D01*
X180843884Y-127177561D02*
X180796265Y-127082323D01*
X180796265Y-127082323D02*
X180748646Y-126891847D01*
X180748646Y-126891847D02*
X180748646Y-126748990D01*
X180748646Y-126748990D02*
X180796265Y-126558514D01*
X180796265Y-126558514D02*
X180843884Y-126463276D01*
X180843884Y-126463276D02*
X180939122Y-126368038D01*
X180939122Y-126368038D02*
X181081979Y-126320419D01*
X181081979Y-126320419D02*
X181177217Y-126320419D01*
X181177217Y-126320419D02*
X181320074Y-126368038D01*
X181320074Y-126368038D02*
X181367693Y-126415657D01*
X182272455Y-127320419D02*
X181796265Y-127320419D01*
X181796265Y-127320419D02*
X181796265Y-126320419D01*
X179599427Y-108632419D02*
X179932760Y-109632419D01*
X179932760Y-109632419D02*
X180266093Y-108632419D01*
X180599427Y-109632419D02*
X180599427Y-108632419D01*
X180599427Y-108632419D02*
X180837522Y-108632419D01*
X180837522Y-108632419D02*
X180980379Y-108680038D01*
X180980379Y-108680038D02*
X181075617Y-108775276D01*
X181075617Y-108775276D02*
X181123236Y-108870514D01*
X181123236Y-108870514D02*
X181170855Y-109060990D01*
X181170855Y-109060990D02*
X181170855Y-109203847D01*
X181170855Y-109203847D02*
X181123236Y-109394323D01*
X181123236Y-109394323D02*
X181075617Y-109489561D01*
X181075617Y-109489561D02*
X180980379Y-109584800D01*
X180980379Y-109584800D02*
X180837522Y-109632419D01*
X180837522Y-109632419D02*
X180599427Y-109632419D01*
X181599427Y-109632419D02*
X181599427Y-108632419D01*
X181599427Y-108632419D02*
X181837522Y-108632419D01*
X181837522Y-108632419D02*
X181980379Y-108680038D01*
X181980379Y-108680038D02*
X182075617Y-108775276D01*
X182075617Y-108775276D02*
X182123236Y-108870514D01*
X182123236Y-108870514D02*
X182170855Y-109060990D01*
X182170855Y-109060990D02*
X182170855Y-109203847D01*
X182170855Y-109203847D02*
X182123236Y-109394323D01*
X182123236Y-109394323D02*
X182075617Y-109489561D01*
X182075617Y-109489561D02*
X181980379Y-109584800D01*
X181980379Y-109584800D02*
X181837522Y-109632419D01*
X181837522Y-109632419D02*
X181599427Y-109632419D01*
X189718074Y-123002419D02*
X189241884Y-123002419D01*
X189241884Y-123002419D02*
X189241884Y-122002419D01*
X190241884Y-122002419D02*
X190432360Y-122002419D01*
X190432360Y-122002419D02*
X190527598Y-122050038D01*
X190527598Y-122050038D02*
X190622836Y-122145276D01*
X190622836Y-122145276D02*
X190670455Y-122335752D01*
X190670455Y-122335752D02*
X190670455Y-122669085D01*
X190670455Y-122669085D02*
X190622836Y-122859561D01*
X190622836Y-122859561D02*
X190527598Y-122954800D01*
X190527598Y-122954800D02*
X190432360Y-123002419D01*
X190432360Y-123002419D02*
X190241884Y-123002419D01*
X190241884Y-123002419D02*
X190146646Y-122954800D01*
X190146646Y-122954800D02*
X190051408Y-122859561D01*
X190051408Y-122859561D02*
X190003789Y-122669085D01*
X190003789Y-122669085D02*
X190003789Y-122335752D01*
X190003789Y-122335752D02*
X190051408Y-122145276D01*
X190051408Y-122145276D02*
X190146646Y-122050038D01*
X190146646Y-122050038D02*
X190241884Y-122002419D01*
X191099027Y-122002419D02*
X191099027Y-122811942D01*
X191099027Y-122811942D02*
X191146646Y-122907180D01*
X191146646Y-122907180D02*
X191194265Y-122954800D01*
X191194265Y-122954800D02*
X191289503Y-123002419D01*
X191289503Y-123002419D02*
X191479979Y-123002419D01*
X191479979Y-123002419D02*
X191575217Y-122954800D01*
X191575217Y-122954800D02*
X191622836Y-122907180D01*
X191622836Y-122907180D02*
X191670455Y-122811942D01*
X191670455Y-122811942D02*
X191670455Y-122002419D01*
X192003789Y-122002419D02*
X192575217Y-122002419D01*
X192289503Y-123002419D02*
X192289503Y-122002419D01*
X192908551Y-122621466D02*
X193670456Y-122621466D01*
X189718074Y-126558419D02*
X189241884Y-126558419D01*
X189241884Y-126558419D02*
X189241884Y-125558419D01*
X190241884Y-125558419D02*
X190432360Y-125558419D01*
X190432360Y-125558419D02*
X190527598Y-125606038D01*
X190527598Y-125606038D02*
X190622836Y-125701276D01*
X190622836Y-125701276D02*
X190670455Y-125891752D01*
X190670455Y-125891752D02*
X190670455Y-126225085D01*
X190670455Y-126225085D02*
X190622836Y-126415561D01*
X190622836Y-126415561D02*
X190527598Y-126510800D01*
X190527598Y-126510800D02*
X190432360Y-126558419D01*
X190432360Y-126558419D02*
X190241884Y-126558419D01*
X190241884Y-126558419D02*
X190146646Y-126510800D01*
X190146646Y-126510800D02*
X190051408Y-126415561D01*
X190051408Y-126415561D02*
X190003789Y-126225085D01*
X190003789Y-126225085D02*
X190003789Y-125891752D01*
X190003789Y-125891752D02*
X190051408Y-125701276D01*
X190051408Y-125701276D02*
X190146646Y-125606038D01*
X190146646Y-125606038D02*
X190241884Y-125558419D01*
X191099027Y-125558419D02*
X191099027Y-126367942D01*
X191099027Y-126367942D02*
X191146646Y-126463180D01*
X191146646Y-126463180D02*
X191194265Y-126510800D01*
X191194265Y-126510800D02*
X191289503Y-126558419D01*
X191289503Y-126558419D02*
X191479979Y-126558419D01*
X191479979Y-126558419D02*
X191575217Y-126510800D01*
X191575217Y-126510800D02*
X191622836Y-126463180D01*
X191622836Y-126463180D02*
X191670455Y-126367942D01*
X191670455Y-126367942D02*
X191670455Y-125558419D01*
X192003789Y-125558419D02*
X192575217Y-125558419D01*
X192289503Y-126558419D02*
X192289503Y-125558419D01*
X192908551Y-126177466D02*
X193670456Y-126177466D01*
X193289503Y-126558419D02*
X193289503Y-125796514D01*
X130666666Y-72457419D02*
X130666666Y-73171704D01*
X130666666Y-73171704D02*
X130619047Y-73314561D01*
X130619047Y-73314561D02*
X130523809Y-73409800D01*
X130523809Y-73409800D02*
X130380952Y-73457419D01*
X130380952Y-73457419D02*
X130285714Y-73457419D01*
X131666666Y-73457419D02*
X131095238Y-73457419D01*
X131380952Y-73457419D02*
X131380952Y-72457419D01*
X131380952Y-72457419D02*
X131285714Y-72600276D01*
X131285714Y-72600276D02*
X131190476Y-72695514D01*
X131190476Y-72695514D02*
X131095238Y-72743133D01*
D11*
X129547619Y-74454819D02*
X129738095Y-74454819D01*
X129738095Y-74454819D02*
X129833333Y-74502438D01*
X129833333Y-74502438D02*
X129928571Y-74597676D01*
X129928571Y-74597676D02*
X129976190Y-74788152D01*
X129976190Y-74788152D02*
X129976190Y-75121485D01*
X129976190Y-75121485D02*
X129928571Y-75311961D01*
X129928571Y-75311961D02*
X129833333Y-75407200D01*
X129833333Y-75407200D02*
X129738095Y-75454819D01*
X129738095Y-75454819D02*
X129547619Y-75454819D01*
X129547619Y-75454819D02*
X129452381Y-75407200D01*
X129452381Y-75407200D02*
X129357143Y-75311961D01*
X129357143Y-75311961D02*
X129309524Y-75121485D01*
X129309524Y-75121485D02*
X129309524Y-74788152D01*
X129309524Y-74788152D02*
X129357143Y-74597676D01*
X129357143Y-74597676D02*
X129452381Y-74502438D01*
X129452381Y-74502438D02*
X129547619Y-74454819D01*
X130880952Y-75454819D02*
X130404762Y-75454819D01*
X130404762Y-75454819D02*
X130404762Y-74454819D01*
X131214286Y-74931009D02*
X131547619Y-74931009D01*
X131690476Y-75454819D02*
X131214286Y-75454819D01*
X131214286Y-75454819D02*
X131214286Y-74454819D01*
X131214286Y-74454819D02*
X131690476Y-74454819D01*
X132119048Y-75454819D02*
X132119048Y-74454819D01*
X132119048Y-74454819D02*
X132357143Y-74454819D01*
X132357143Y-74454819D02*
X132500000Y-74502438D01*
X132500000Y-74502438D02*
X132595238Y-74597676D01*
X132595238Y-74597676D02*
X132642857Y-74692914D01*
X132642857Y-74692914D02*
X132690476Y-74883390D01*
X132690476Y-74883390D02*
X132690476Y-75026247D01*
X132690476Y-75026247D02*
X132642857Y-75216723D01*
X132642857Y-75216723D02*
X132595238Y-75311961D01*
X132595238Y-75311961D02*
X132500000Y-75407200D01*
X132500000Y-75407200D02*
X132357143Y-75454819D01*
X132357143Y-75454819D02*
X132119048Y-75454819D01*
D10*
X131256265Y-81324800D02*
X131399122Y-81372419D01*
X131399122Y-81372419D02*
X131637217Y-81372419D01*
X131637217Y-81372419D02*
X131732455Y-81324800D01*
X131732455Y-81324800D02*
X131780074Y-81277180D01*
X131780074Y-81277180D02*
X131827693Y-81181942D01*
X131827693Y-81181942D02*
X131827693Y-81086704D01*
X131827693Y-81086704D02*
X131780074Y-80991466D01*
X131780074Y-80991466D02*
X131732455Y-80943847D01*
X131732455Y-80943847D02*
X131637217Y-80896228D01*
X131637217Y-80896228D02*
X131446741Y-80848609D01*
X131446741Y-80848609D02*
X131351503Y-80800990D01*
X131351503Y-80800990D02*
X131303884Y-80753371D01*
X131303884Y-80753371D02*
X131256265Y-80658133D01*
X131256265Y-80658133D02*
X131256265Y-80562895D01*
X131256265Y-80562895D02*
X131303884Y-80467657D01*
X131303884Y-80467657D02*
X131351503Y-80420038D01*
X131351503Y-80420038D02*
X131446741Y-80372419D01*
X131446741Y-80372419D02*
X131684836Y-80372419D01*
X131684836Y-80372419D02*
X131827693Y-80420038D01*
X132827693Y-81277180D02*
X132780074Y-81324800D01*
X132780074Y-81324800D02*
X132637217Y-81372419D01*
X132637217Y-81372419D02*
X132541979Y-81372419D01*
X132541979Y-81372419D02*
X132399122Y-81324800D01*
X132399122Y-81324800D02*
X132303884Y-81229561D01*
X132303884Y-81229561D02*
X132256265Y-81134323D01*
X132256265Y-81134323D02*
X132208646Y-80943847D01*
X132208646Y-80943847D02*
X132208646Y-80800990D01*
X132208646Y-80800990D02*
X132256265Y-80610514D01*
X132256265Y-80610514D02*
X132303884Y-80515276D01*
X132303884Y-80515276D02*
X132399122Y-80420038D01*
X132399122Y-80420038D02*
X132541979Y-80372419D01*
X132541979Y-80372419D02*
X132637217Y-80372419D01*
X132637217Y-80372419D02*
X132780074Y-80420038D01*
X132780074Y-80420038D02*
X132827693Y-80467657D01*
X133732455Y-81372419D02*
X133256265Y-81372419D01*
X133256265Y-81372419D02*
X133256265Y-80372419D01*
X131827693Y-82960038D02*
X131732455Y-82912419D01*
X131732455Y-82912419D02*
X131589598Y-82912419D01*
X131589598Y-82912419D02*
X131446741Y-82960038D01*
X131446741Y-82960038D02*
X131351503Y-83055276D01*
X131351503Y-83055276D02*
X131303884Y-83150514D01*
X131303884Y-83150514D02*
X131256265Y-83340990D01*
X131256265Y-83340990D02*
X131256265Y-83483847D01*
X131256265Y-83483847D02*
X131303884Y-83674323D01*
X131303884Y-83674323D02*
X131351503Y-83769561D01*
X131351503Y-83769561D02*
X131446741Y-83864800D01*
X131446741Y-83864800D02*
X131589598Y-83912419D01*
X131589598Y-83912419D02*
X131684836Y-83912419D01*
X131684836Y-83912419D02*
X131827693Y-83864800D01*
X131827693Y-83864800D02*
X131875312Y-83817180D01*
X131875312Y-83817180D02*
X131875312Y-83483847D01*
X131875312Y-83483847D02*
X131684836Y-83483847D01*
X132303884Y-83912419D02*
X132303884Y-82912419D01*
X132303884Y-82912419D02*
X132875312Y-83912419D01*
X132875312Y-83912419D02*
X132875312Y-82912419D01*
X133351503Y-83912419D02*
X133351503Y-82912419D01*
X133351503Y-82912419D02*
X133589598Y-82912419D01*
X133589598Y-82912419D02*
X133732455Y-82960038D01*
X133732455Y-82960038D02*
X133827693Y-83055276D01*
X133827693Y-83055276D02*
X133875312Y-83150514D01*
X133875312Y-83150514D02*
X133922931Y-83340990D01*
X133922931Y-83340990D02*
X133922931Y-83483847D01*
X133922931Y-83483847D02*
X133875312Y-83674323D01*
X133875312Y-83674323D02*
X133827693Y-83769561D01*
X133827693Y-83769561D02*
X133732455Y-83864800D01*
X133732455Y-83864800D02*
X133589598Y-83912419D01*
X133589598Y-83912419D02*
X133351503Y-83912419D01*
X131161027Y-85452419D02*
X131494360Y-86452419D01*
X131494360Y-86452419D02*
X131827693Y-85452419D01*
X132732455Y-86357180D02*
X132684836Y-86404800D01*
X132684836Y-86404800D02*
X132541979Y-86452419D01*
X132541979Y-86452419D02*
X132446741Y-86452419D01*
X132446741Y-86452419D02*
X132303884Y-86404800D01*
X132303884Y-86404800D02*
X132208646Y-86309561D01*
X132208646Y-86309561D02*
X132161027Y-86214323D01*
X132161027Y-86214323D02*
X132113408Y-86023847D01*
X132113408Y-86023847D02*
X132113408Y-85880990D01*
X132113408Y-85880990D02*
X132161027Y-85690514D01*
X132161027Y-85690514D02*
X132208646Y-85595276D01*
X132208646Y-85595276D02*
X132303884Y-85500038D01*
X132303884Y-85500038D02*
X132446741Y-85452419D01*
X132446741Y-85452419D02*
X132541979Y-85452419D01*
X132541979Y-85452419D02*
X132684836Y-85500038D01*
X132684836Y-85500038D02*
X132732455Y-85547657D01*
X133732455Y-86357180D02*
X133684836Y-86404800D01*
X133684836Y-86404800D02*
X133541979Y-86452419D01*
X133541979Y-86452419D02*
X133446741Y-86452419D01*
X133446741Y-86452419D02*
X133303884Y-86404800D01*
X133303884Y-86404800D02*
X133208646Y-86309561D01*
X133208646Y-86309561D02*
X133161027Y-86214323D01*
X133161027Y-86214323D02*
X133113408Y-86023847D01*
X133113408Y-86023847D02*
X133113408Y-85880990D01*
X133113408Y-85880990D02*
X133161027Y-85690514D01*
X133161027Y-85690514D02*
X133208646Y-85595276D01*
X133208646Y-85595276D02*
X133303884Y-85500038D01*
X133303884Y-85500038D02*
X133446741Y-85452419D01*
X133446741Y-85452419D02*
X133541979Y-85452419D01*
X133541979Y-85452419D02*
X133684836Y-85500038D01*
X133684836Y-85500038D02*
X133732455Y-85547657D01*
X131256265Y-78784800D02*
X131399122Y-78832419D01*
X131399122Y-78832419D02*
X131637217Y-78832419D01*
X131637217Y-78832419D02*
X131732455Y-78784800D01*
X131732455Y-78784800D02*
X131780074Y-78737180D01*
X131780074Y-78737180D02*
X131827693Y-78641942D01*
X131827693Y-78641942D02*
X131827693Y-78546704D01*
X131827693Y-78546704D02*
X131780074Y-78451466D01*
X131780074Y-78451466D02*
X131732455Y-78403847D01*
X131732455Y-78403847D02*
X131637217Y-78356228D01*
X131637217Y-78356228D02*
X131446741Y-78308609D01*
X131446741Y-78308609D02*
X131351503Y-78260990D01*
X131351503Y-78260990D02*
X131303884Y-78213371D01*
X131303884Y-78213371D02*
X131256265Y-78118133D01*
X131256265Y-78118133D02*
X131256265Y-78022895D01*
X131256265Y-78022895D02*
X131303884Y-77927657D01*
X131303884Y-77927657D02*
X131351503Y-77880038D01*
X131351503Y-77880038D02*
X131446741Y-77832419D01*
X131446741Y-77832419D02*
X131684836Y-77832419D01*
X131684836Y-77832419D02*
X131827693Y-77880038D01*
X132256265Y-78832419D02*
X132256265Y-77832419D01*
X132256265Y-77832419D02*
X132494360Y-77832419D01*
X132494360Y-77832419D02*
X132637217Y-77880038D01*
X132637217Y-77880038D02*
X132732455Y-77975276D01*
X132732455Y-77975276D02*
X132780074Y-78070514D01*
X132780074Y-78070514D02*
X132827693Y-78260990D01*
X132827693Y-78260990D02*
X132827693Y-78403847D01*
X132827693Y-78403847D02*
X132780074Y-78594323D01*
X132780074Y-78594323D02*
X132732455Y-78689561D01*
X132732455Y-78689561D02*
X132637217Y-78784800D01*
X132637217Y-78784800D02*
X132494360Y-78832419D01*
X132494360Y-78832419D02*
X132256265Y-78832419D01*
X133208646Y-78546704D02*
X133684836Y-78546704D01*
X133113408Y-78832419D02*
X133446741Y-77832419D01*
X133446741Y-77832419D02*
X133780074Y-78832419D01*
X187827590Y-96957419D02*
X187494257Y-96481228D01*
X187256162Y-96957419D02*
X187256162Y-95957419D01*
X187256162Y-95957419D02*
X187637114Y-95957419D01*
X187637114Y-95957419D02*
X187732352Y-96005038D01*
X187732352Y-96005038D02*
X187779971Y-96052657D01*
X187779971Y-96052657D02*
X187827590Y-96147895D01*
X187827590Y-96147895D02*
X187827590Y-96290752D01*
X187827590Y-96290752D02*
X187779971Y-96385990D01*
X187779971Y-96385990D02*
X187732352Y-96433609D01*
X187732352Y-96433609D02*
X187637114Y-96481228D01*
X187637114Y-96481228D02*
X187256162Y-96481228D01*
X188256162Y-96957419D02*
X188256162Y-95957419D01*
X188256162Y-95957419D02*
X188494257Y-95957419D01*
X188494257Y-95957419D02*
X188637114Y-96005038D01*
X188637114Y-96005038D02*
X188732352Y-96100276D01*
X188732352Y-96100276D02*
X188779971Y-96195514D01*
X188779971Y-96195514D02*
X188827590Y-96385990D01*
X188827590Y-96385990D02*
X188827590Y-96528847D01*
X188827590Y-96528847D02*
X188779971Y-96719323D01*
X188779971Y-96719323D02*
X188732352Y-96814561D01*
X188732352Y-96814561D02*
X188637114Y-96909800D01*
X188637114Y-96909800D02*
X188494257Y-96957419D01*
X188494257Y-96957419D02*
X188256162Y-96957419D01*
X189208543Y-96671704D02*
X189684733Y-96671704D01*
X189113305Y-96957419D02*
X189446638Y-95957419D01*
X189446638Y-95957419D02*
X189779971Y-96957419D01*
X190589495Y-95957419D02*
X190113305Y-95957419D01*
X190113305Y-95957419D02*
X190065686Y-96433609D01*
X190065686Y-96433609D02*
X190113305Y-96385990D01*
X190113305Y-96385990D02*
X190208543Y-96338371D01*
X190208543Y-96338371D02*
X190446638Y-96338371D01*
X190446638Y-96338371D02*
X190541876Y-96385990D01*
X190541876Y-96385990D02*
X190589495Y-96433609D01*
X190589495Y-96433609D02*
X190637114Y-96528847D01*
X190637114Y-96528847D02*
X190637114Y-96766942D01*
X190637114Y-96766942D02*
X190589495Y-96862180D01*
X190589495Y-96862180D02*
X190541876Y-96909800D01*
X190541876Y-96909800D02*
X190446638Y-96957419D01*
X190446638Y-96957419D02*
X190208543Y-96957419D01*
X190208543Y-96957419D02*
X190113305Y-96909800D01*
X190113305Y-96909800D02*
X190065686Y-96862180D01*
X191208543Y-96385990D02*
X191113305Y-96338371D01*
X191113305Y-96338371D02*
X191065686Y-96290752D01*
X191065686Y-96290752D02*
X191018067Y-96195514D01*
X191018067Y-96195514D02*
X191018067Y-96147895D01*
X191018067Y-96147895D02*
X191065686Y-96052657D01*
X191065686Y-96052657D02*
X191113305Y-96005038D01*
X191113305Y-96005038D02*
X191208543Y-95957419D01*
X191208543Y-95957419D02*
X191399019Y-95957419D01*
X191399019Y-95957419D02*
X191494257Y-96005038D01*
X191494257Y-96005038D02*
X191541876Y-96052657D01*
X191541876Y-96052657D02*
X191589495Y-96147895D01*
X191589495Y-96147895D02*
X191589495Y-96195514D01*
X191589495Y-96195514D02*
X191541876Y-96290752D01*
X191541876Y-96290752D02*
X191494257Y-96338371D01*
X191494257Y-96338371D02*
X191399019Y-96385990D01*
X191399019Y-96385990D02*
X191208543Y-96385990D01*
X191208543Y-96385990D02*
X191113305Y-96433609D01*
X191113305Y-96433609D02*
X191065686Y-96481228D01*
X191065686Y-96481228D02*
X191018067Y-96576466D01*
X191018067Y-96576466D02*
X191018067Y-96766942D01*
X191018067Y-96766942D02*
X191065686Y-96862180D01*
X191065686Y-96862180D02*
X191113305Y-96909800D01*
X191113305Y-96909800D02*
X191208543Y-96957419D01*
X191208543Y-96957419D02*
X191399019Y-96957419D01*
X191399019Y-96957419D02*
X191494257Y-96909800D01*
X191494257Y-96909800D02*
X191541876Y-96862180D01*
X191541876Y-96862180D02*
X191589495Y-96766942D01*
X191589495Y-96766942D02*
X191589495Y-96576466D01*
X191589495Y-96576466D02*
X191541876Y-96481228D01*
X191541876Y-96481228D02*
X191494257Y-96433609D01*
X191494257Y-96433609D02*
X191399019Y-96385990D01*
X192208543Y-95957419D02*
X192303781Y-95957419D01*
X192303781Y-95957419D02*
X192399019Y-96005038D01*
X192399019Y-96005038D02*
X192446638Y-96052657D01*
X192446638Y-96052657D02*
X192494257Y-96147895D01*
X192494257Y-96147895D02*
X192541876Y-96338371D01*
X192541876Y-96338371D02*
X192541876Y-96576466D01*
X192541876Y-96576466D02*
X192494257Y-96766942D01*
X192494257Y-96766942D02*
X192446638Y-96862180D01*
X192446638Y-96862180D02*
X192399019Y-96909800D01*
X192399019Y-96909800D02*
X192303781Y-96957419D01*
X192303781Y-96957419D02*
X192208543Y-96957419D01*
X192208543Y-96957419D02*
X192113305Y-96909800D01*
X192113305Y-96909800D02*
X192065686Y-96862180D01*
X192065686Y-96862180D02*
X192018067Y-96766942D01*
X192018067Y-96766942D02*
X191970448Y-96576466D01*
X191970448Y-96576466D02*
X191970448Y-96338371D01*
X191970448Y-96338371D02*
X192018067Y-96147895D01*
X192018067Y-96147895D02*
X192065686Y-96052657D01*
X192065686Y-96052657D02*
X192113305Y-96005038D01*
X192113305Y-96005038D02*
X192208543Y-95957419D01*
X192875210Y-95957419D02*
X193541876Y-95957419D01*
X193541876Y-95957419D02*
X193113305Y-96957419D01*
X181393827Y-105460419D02*
X181727160Y-106460419D01*
X181727160Y-106460419D02*
X182060493Y-105460419D01*
X182393827Y-106460419D02*
X182393827Y-105460419D01*
X182393827Y-105460419D02*
X182631922Y-105460419D01*
X182631922Y-105460419D02*
X182774779Y-105508038D01*
X182774779Y-105508038D02*
X182870017Y-105603276D01*
X182870017Y-105603276D02*
X182917636Y-105698514D01*
X182917636Y-105698514D02*
X182965255Y-105888990D01*
X182965255Y-105888990D02*
X182965255Y-106031847D01*
X182965255Y-106031847D02*
X182917636Y-106222323D01*
X182917636Y-106222323D02*
X182870017Y-106317561D01*
X182870017Y-106317561D02*
X182774779Y-106412800D01*
X182774779Y-106412800D02*
X182631922Y-106460419D01*
X182631922Y-106460419D02*
X182393827Y-106460419D01*
X183393827Y-106460419D02*
X183393827Y-105460419D01*
X183393827Y-105460419D02*
X183631922Y-105460419D01*
X183631922Y-105460419D02*
X183774779Y-105508038D01*
X183774779Y-105508038D02*
X183870017Y-105603276D01*
X183870017Y-105603276D02*
X183917636Y-105698514D01*
X183917636Y-105698514D02*
X183965255Y-105888990D01*
X183965255Y-105888990D02*
X183965255Y-106031847D01*
X183965255Y-106031847D02*
X183917636Y-106222323D01*
X183917636Y-106222323D02*
X183870017Y-106317561D01*
X183870017Y-106317561D02*
X183774779Y-106412800D01*
X183774779Y-106412800D02*
X183631922Y-106460419D01*
X183631922Y-106460419D02*
X183393827Y-106460419D01*
X196726712Y-103920419D02*
X196393379Y-103444228D01*
X196155284Y-103920419D02*
X196155284Y-102920419D01*
X196155284Y-102920419D02*
X196536236Y-102920419D01*
X196536236Y-102920419D02*
X196631474Y-102968038D01*
X196631474Y-102968038D02*
X196679093Y-103015657D01*
X196679093Y-103015657D02*
X196726712Y-103110895D01*
X196726712Y-103110895D02*
X196726712Y-103253752D01*
X196726712Y-103253752D02*
X196679093Y-103348990D01*
X196679093Y-103348990D02*
X196631474Y-103396609D01*
X196631474Y-103396609D02*
X196536236Y-103444228D01*
X196536236Y-103444228D02*
X196155284Y-103444228D01*
X197345760Y-102920419D02*
X197536236Y-102920419D01*
X197536236Y-102920419D02*
X197631474Y-102968038D01*
X197631474Y-102968038D02*
X197726712Y-103063276D01*
X197726712Y-103063276D02*
X197774331Y-103253752D01*
X197774331Y-103253752D02*
X197774331Y-103587085D01*
X197774331Y-103587085D02*
X197726712Y-103777561D01*
X197726712Y-103777561D02*
X197631474Y-103872800D01*
X197631474Y-103872800D02*
X197536236Y-103920419D01*
X197536236Y-103920419D02*
X197345760Y-103920419D01*
X197345760Y-103920419D02*
X197250522Y-103872800D01*
X197250522Y-103872800D02*
X197155284Y-103777561D01*
X197155284Y-103777561D02*
X197107665Y-103587085D01*
X197107665Y-103587085D02*
X197107665Y-103253752D01*
X197107665Y-103253752D02*
X197155284Y-103063276D01*
X197155284Y-103063276D02*
X197250522Y-102968038D01*
X197250522Y-102968038D02*
X197345760Y-102920419D01*
X198202903Y-102920419D02*
X198202903Y-103729942D01*
X198202903Y-103729942D02*
X198250522Y-103825180D01*
X198250522Y-103825180D02*
X198298141Y-103872800D01*
X198298141Y-103872800D02*
X198393379Y-103920419D01*
X198393379Y-103920419D02*
X198583855Y-103920419D01*
X198583855Y-103920419D02*
X198679093Y-103872800D01*
X198679093Y-103872800D02*
X198726712Y-103825180D01*
X198726712Y-103825180D02*
X198774331Y-103729942D01*
X198774331Y-103729942D02*
X198774331Y-102920419D01*
X199107665Y-102920419D02*
X199679093Y-102920419D01*
X199393379Y-103920419D02*
X199393379Y-102920419D01*
X196957665Y-96014704D02*
X197433855Y-96014704D01*
X196862427Y-96300419D02*
X197195760Y-95300419D01*
X197195760Y-95300419D02*
X197529093Y-96300419D01*
X197862427Y-96300419D02*
X197862427Y-95300419D01*
X197862427Y-95300419D02*
X198433855Y-96300419D01*
X198433855Y-96300419D02*
X198433855Y-95300419D01*
X198767189Y-95300419D02*
X199338617Y-95300419D01*
X199052903Y-96300419D02*
X199052903Y-95300419D01*
X197275093Y-105508038D02*
X197179855Y-105460419D01*
X197179855Y-105460419D02*
X197036998Y-105460419D01*
X197036998Y-105460419D02*
X196894141Y-105508038D01*
X196894141Y-105508038D02*
X196798903Y-105603276D01*
X196798903Y-105603276D02*
X196751284Y-105698514D01*
X196751284Y-105698514D02*
X196703665Y-105888990D01*
X196703665Y-105888990D02*
X196703665Y-106031847D01*
X196703665Y-106031847D02*
X196751284Y-106222323D01*
X196751284Y-106222323D02*
X196798903Y-106317561D01*
X196798903Y-106317561D02*
X196894141Y-106412800D01*
X196894141Y-106412800D02*
X197036998Y-106460419D01*
X197036998Y-106460419D02*
X197132236Y-106460419D01*
X197132236Y-106460419D02*
X197275093Y-106412800D01*
X197275093Y-106412800D02*
X197322712Y-106365180D01*
X197322712Y-106365180D02*
X197322712Y-106031847D01*
X197322712Y-106031847D02*
X197132236Y-106031847D01*
X197751284Y-106460419D02*
X197751284Y-105460419D01*
X197751284Y-105460419D02*
X198322712Y-106460419D01*
X198322712Y-106460419D02*
X198322712Y-105460419D01*
X198798903Y-106460419D02*
X198798903Y-105460419D01*
X198798903Y-105460419D02*
X199036998Y-105460419D01*
X199036998Y-105460419D02*
X199179855Y-105508038D01*
X199179855Y-105508038D02*
X199275093Y-105603276D01*
X199275093Y-105603276D02*
X199322712Y-105698514D01*
X199322712Y-105698514D02*
X199370331Y-105888990D01*
X199370331Y-105888990D02*
X199370331Y-106031847D01*
X199370331Y-106031847D02*
X199322712Y-106222323D01*
X199322712Y-106222323D02*
X199275093Y-106317561D01*
X199275093Y-106317561D02*
X199179855Y-106412800D01*
X199179855Y-106412800D02*
X199036998Y-106460419D01*
X199036998Y-106460419D02*
X198798903Y-106460419D01*
X181463665Y-98792800D02*
X181606522Y-98840419D01*
X181606522Y-98840419D02*
X181844617Y-98840419D01*
X181844617Y-98840419D02*
X181939855Y-98792800D01*
X181939855Y-98792800D02*
X181987474Y-98745180D01*
X181987474Y-98745180D02*
X182035093Y-98649942D01*
X182035093Y-98649942D02*
X182035093Y-98554704D01*
X182035093Y-98554704D02*
X181987474Y-98459466D01*
X181987474Y-98459466D02*
X181939855Y-98411847D01*
X181939855Y-98411847D02*
X181844617Y-98364228D01*
X181844617Y-98364228D02*
X181654141Y-98316609D01*
X181654141Y-98316609D02*
X181558903Y-98268990D01*
X181558903Y-98268990D02*
X181511284Y-98221371D01*
X181511284Y-98221371D02*
X181463665Y-98126133D01*
X181463665Y-98126133D02*
X181463665Y-98030895D01*
X181463665Y-98030895D02*
X181511284Y-97935657D01*
X181511284Y-97935657D02*
X181558903Y-97888038D01*
X181558903Y-97888038D02*
X181654141Y-97840419D01*
X181654141Y-97840419D02*
X181892236Y-97840419D01*
X181892236Y-97840419D02*
X182035093Y-97888038D01*
X183035093Y-98745180D02*
X182987474Y-98792800D01*
X182987474Y-98792800D02*
X182844617Y-98840419D01*
X182844617Y-98840419D02*
X182749379Y-98840419D01*
X182749379Y-98840419D02*
X182606522Y-98792800D01*
X182606522Y-98792800D02*
X182511284Y-98697561D01*
X182511284Y-98697561D02*
X182463665Y-98602323D01*
X182463665Y-98602323D02*
X182416046Y-98411847D01*
X182416046Y-98411847D02*
X182416046Y-98268990D01*
X182416046Y-98268990D02*
X182463665Y-98078514D01*
X182463665Y-98078514D02*
X182511284Y-97983276D01*
X182511284Y-97983276D02*
X182606522Y-97888038D01*
X182606522Y-97888038D02*
X182749379Y-97840419D01*
X182749379Y-97840419D02*
X182844617Y-97840419D01*
X182844617Y-97840419D02*
X182987474Y-97888038D01*
X182987474Y-97888038D02*
X183035093Y-97935657D01*
X183463665Y-98840419D02*
X183463665Y-97840419D01*
X184035093Y-98840419D02*
X183606522Y-98268990D01*
X184035093Y-97840419D02*
X183463665Y-98411847D01*
X196631474Y-101380419D02*
X196155284Y-101380419D01*
X196155284Y-101380419D02*
X196155284Y-100380419D01*
X197155284Y-100380419D02*
X197345760Y-100380419D01*
X197345760Y-100380419D02*
X197440998Y-100428038D01*
X197440998Y-100428038D02*
X197536236Y-100523276D01*
X197536236Y-100523276D02*
X197583855Y-100713752D01*
X197583855Y-100713752D02*
X197583855Y-101047085D01*
X197583855Y-101047085D02*
X197536236Y-101237561D01*
X197536236Y-101237561D02*
X197440998Y-101332800D01*
X197440998Y-101332800D02*
X197345760Y-101380419D01*
X197345760Y-101380419D02*
X197155284Y-101380419D01*
X197155284Y-101380419D02*
X197060046Y-101332800D01*
X197060046Y-101332800D02*
X196964808Y-101237561D01*
X196964808Y-101237561D02*
X196917189Y-101047085D01*
X196917189Y-101047085D02*
X196917189Y-100713752D01*
X196917189Y-100713752D02*
X196964808Y-100523276D01*
X196964808Y-100523276D02*
X197060046Y-100428038D01*
X197060046Y-100428038D02*
X197155284Y-100380419D01*
X198012427Y-100380419D02*
X198012427Y-101189942D01*
X198012427Y-101189942D02*
X198060046Y-101285180D01*
X198060046Y-101285180D02*
X198107665Y-101332800D01*
X198107665Y-101332800D02*
X198202903Y-101380419D01*
X198202903Y-101380419D02*
X198393379Y-101380419D01*
X198393379Y-101380419D02*
X198488617Y-101332800D01*
X198488617Y-101332800D02*
X198536236Y-101285180D01*
X198536236Y-101285180D02*
X198583855Y-101189942D01*
X198583855Y-101189942D02*
X198583855Y-100380419D01*
X198917189Y-100380419D02*
X199488617Y-100380419D01*
X199202903Y-101380419D02*
X199202903Y-100380419D01*
X197322712Y-98840419D02*
X196989379Y-98364228D01*
X196751284Y-98840419D02*
X196751284Y-97840419D01*
X196751284Y-97840419D02*
X197132236Y-97840419D01*
X197132236Y-97840419D02*
X197227474Y-97888038D01*
X197227474Y-97888038D02*
X197275093Y-97935657D01*
X197275093Y-97935657D02*
X197322712Y-98030895D01*
X197322712Y-98030895D02*
X197322712Y-98173752D01*
X197322712Y-98173752D02*
X197275093Y-98268990D01*
X197275093Y-98268990D02*
X197227474Y-98316609D01*
X197227474Y-98316609D02*
X197132236Y-98364228D01*
X197132236Y-98364228D02*
X196751284Y-98364228D01*
X198322712Y-98745180D02*
X198275093Y-98792800D01*
X198275093Y-98792800D02*
X198132236Y-98840419D01*
X198132236Y-98840419D02*
X198036998Y-98840419D01*
X198036998Y-98840419D02*
X197894141Y-98792800D01*
X197894141Y-98792800D02*
X197798903Y-98697561D01*
X197798903Y-98697561D02*
X197751284Y-98602323D01*
X197751284Y-98602323D02*
X197703665Y-98411847D01*
X197703665Y-98411847D02*
X197703665Y-98268990D01*
X197703665Y-98268990D02*
X197751284Y-98078514D01*
X197751284Y-98078514D02*
X197798903Y-97983276D01*
X197798903Y-97983276D02*
X197894141Y-97888038D01*
X197894141Y-97888038D02*
X198036998Y-97840419D01*
X198036998Y-97840419D02*
X198132236Y-97840419D01*
X198132236Y-97840419D02*
X198275093Y-97888038D01*
X198275093Y-97888038D02*
X198322712Y-97935657D01*
X198751284Y-98840419D02*
X198751284Y-97840419D01*
X199322712Y-98840419D02*
X198894141Y-98268990D01*
X199322712Y-97840419D02*
X198751284Y-98411847D01*
X181463665Y-96252800D02*
X181606522Y-96300419D01*
X181606522Y-96300419D02*
X181844617Y-96300419D01*
X181844617Y-96300419D02*
X181939855Y-96252800D01*
X181939855Y-96252800D02*
X181987474Y-96205180D01*
X181987474Y-96205180D02*
X182035093Y-96109942D01*
X182035093Y-96109942D02*
X182035093Y-96014704D01*
X182035093Y-96014704D02*
X181987474Y-95919466D01*
X181987474Y-95919466D02*
X181939855Y-95871847D01*
X181939855Y-95871847D02*
X181844617Y-95824228D01*
X181844617Y-95824228D02*
X181654141Y-95776609D01*
X181654141Y-95776609D02*
X181558903Y-95728990D01*
X181558903Y-95728990D02*
X181511284Y-95681371D01*
X181511284Y-95681371D02*
X181463665Y-95586133D01*
X181463665Y-95586133D02*
X181463665Y-95490895D01*
X181463665Y-95490895D02*
X181511284Y-95395657D01*
X181511284Y-95395657D02*
X181558903Y-95348038D01*
X181558903Y-95348038D02*
X181654141Y-95300419D01*
X181654141Y-95300419D02*
X181892236Y-95300419D01*
X181892236Y-95300419D02*
X182035093Y-95348038D01*
X182463665Y-96300419D02*
X182463665Y-95300419D01*
X182463665Y-95300419D02*
X182701760Y-95300419D01*
X182701760Y-95300419D02*
X182844617Y-95348038D01*
X182844617Y-95348038D02*
X182939855Y-95443276D01*
X182939855Y-95443276D02*
X182987474Y-95538514D01*
X182987474Y-95538514D02*
X183035093Y-95728990D01*
X183035093Y-95728990D02*
X183035093Y-95871847D01*
X183035093Y-95871847D02*
X182987474Y-96062323D01*
X182987474Y-96062323D02*
X182939855Y-96157561D01*
X182939855Y-96157561D02*
X182844617Y-96252800D01*
X182844617Y-96252800D02*
X182701760Y-96300419D01*
X182701760Y-96300419D02*
X182463665Y-96300419D01*
X183416046Y-96014704D02*
X183892236Y-96014704D01*
X183320808Y-96300419D02*
X183654141Y-95300419D01*
X183654141Y-95300419D02*
X183987474Y-96300419D01*
X202042580Y-115357142D02*
X202042580Y-114880952D01*
X202042580Y-114880952D02*
X203042580Y-114880952D01*
X202090200Y-115642857D02*
X202042580Y-115785714D01*
X202042580Y-115785714D02*
X202042580Y-116023809D01*
X202042580Y-116023809D02*
X202090200Y-116119047D01*
X202090200Y-116119047D02*
X202137819Y-116166666D01*
X202137819Y-116166666D02*
X202233057Y-116214285D01*
X202233057Y-116214285D02*
X202328295Y-116214285D01*
X202328295Y-116214285D02*
X202423533Y-116166666D01*
X202423533Y-116166666D02*
X202471152Y-116119047D01*
X202471152Y-116119047D02*
X202518771Y-116023809D01*
X202518771Y-116023809D02*
X202566390Y-115833333D01*
X202566390Y-115833333D02*
X202614009Y-115738095D01*
X202614009Y-115738095D02*
X202661628Y-115690476D01*
X202661628Y-115690476D02*
X202756866Y-115642857D01*
X202756866Y-115642857D02*
X202852104Y-115642857D01*
X202852104Y-115642857D02*
X202947342Y-115690476D01*
X202947342Y-115690476D02*
X202994961Y-115738095D01*
X202994961Y-115738095D02*
X203042580Y-115833333D01*
X203042580Y-115833333D02*
X203042580Y-116071428D01*
X203042580Y-116071428D02*
X202994961Y-116214285D01*
X202947342Y-116595238D02*
X202994961Y-116642857D01*
X202994961Y-116642857D02*
X203042580Y-116738095D01*
X203042580Y-116738095D02*
X203042580Y-116976190D01*
X203042580Y-116976190D02*
X202994961Y-117071428D01*
X202994961Y-117071428D02*
X202947342Y-117119047D01*
X202947342Y-117119047D02*
X202852104Y-117166666D01*
X202852104Y-117166666D02*
X202756866Y-117166666D01*
X202756866Y-117166666D02*
X202614009Y-117119047D01*
X202614009Y-117119047D02*
X202042580Y-116547619D01*
X202042580Y-116547619D02*
X202042580Y-117166666D01*
D11*
X204092800Y-113488095D02*
X204045180Y-113630952D01*
X204045180Y-113630952D02*
X204045180Y-113869047D01*
X204045180Y-113869047D02*
X204092800Y-113964285D01*
X204092800Y-113964285D02*
X204140419Y-114011904D01*
X204140419Y-114011904D02*
X204235657Y-114059523D01*
X204235657Y-114059523D02*
X204330895Y-114059523D01*
X204330895Y-114059523D02*
X204426133Y-114011904D01*
X204426133Y-114011904D02*
X204473752Y-113964285D01*
X204473752Y-113964285D02*
X204521371Y-113869047D01*
X204521371Y-113869047D02*
X204568990Y-113678571D01*
X204568990Y-113678571D02*
X204616609Y-113583333D01*
X204616609Y-113583333D02*
X204664228Y-113535714D01*
X204664228Y-113535714D02*
X204759466Y-113488095D01*
X204759466Y-113488095D02*
X204854704Y-113488095D01*
X204854704Y-113488095D02*
X204949942Y-113535714D01*
X204949942Y-113535714D02*
X204997561Y-113583333D01*
X204997561Y-113583333D02*
X205045180Y-113678571D01*
X205045180Y-113678571D02*
X205045180Y-113916666D01*
X205045180Y-113916666D02*
X204997561Y-114059523D01*
X204711847Y-114488095D02*
X203711847Y-114488095D01*
X204664228Y-114488095D02*
X204711847Y-114583333D01*
X204711847Y-114583333D02*
X204711847Y-114773809D01*
X204711847Y-114773809D02*
X204664228Y-114869047D01*
X204664228Y-114869047D02*
X204616609Y-114916666D01*
X204616609Y-114916666D02*
X204521371Y-114964285D01*
X204521371Y-114964285D02*
X204235657Y-114964285D01*
X204235657Y-114964285D02*
X204140419Y-114916666D01*
X204140419Y-114916666D02*
X204092800Y-114869047D01*
X204092800Y-114869047D02*
X204045180Y-114773809D01*
X204045180Y-114773809D02*
X204045180Y-114583333D01*
X204045180Y-114583333D02*
X204092800Y-114488095D01*
X204092800Y-115773809D02*
X204045180Y-115678571D01*
X204045180Y-115678571D02*
X204045180Y-115488095D01*
X204045180Y-115488095D02*
X204092800Y-115392857D01*
X204092800Y-115392857D02*
X204188038Y-115345238D01*
X204188038Y-115345238D02*
X204568990Y-115345238D01*
X204568990Y-115345238D02*
X204664228Y-115392857D01*
X204664228Y-115392857D02*
X204711847Y-115488095D01*
X204711847Y-115488095D02*
X204711847Y-115678571D01*
X204711847Y-115678571D02*
X204664228Y-115773809D01*
X204664228Y-115773809D02*
X204568990Y-115821428D01*
X204568990Y-115821428D02*
X204473752Y-115821428D01*
X204473752Y-115821428D02*
X204378514Y-115345238D01*
X204045180Y-116678571D02*
X204568990Y-116678571D01*
X204568990Y-116678571D02*
X204664228Y-116630952D01*
X204664228Y-116630952D02*
X204711847Y-116535714D01*
X204711847Y-116535714D02*
X204711847Y-116345238D01*
X204711847Y-116345238D02*
X204664228Y-116250000D01*
X204092800Y-116678571D02*
X204045180Y-116583333D01*
X204045180Y-116583333D02*
X204045180Y-116345238D01*
X204045180Y-116345238D02*
X204092800Y-116250000D01*
X204092800Y-116250000D02*
X204188038Y-116202381D01*
X204188038Y-116202381D02*
X204283276Y-116202381D01*
X204283276Y-116202381D02*
X204378514Y-116250000D01*
X204378514Y-116250000D02*
X204426133Y-116345238D01*
X204426133Y-116345238D02*
X204426133Y-116583333D01*
X204426133Y-116583333D02*
X204473752Y-116678571D01*
X204045180Y-117154762D02*
X205045180Y-117154762D01*
X204426133Y-117250000D02*
X204045180Y-117535714D01*
X204711847Y-117535714D02*
X204330895Y-117154762D01*
X204092800Y-118345238D02*
X204045180Y-118250000D01*
X204045180Y-118250000D02*
X204045180Y-118059524D01*
X204045180Y-118059524D02*
X204092800Y-117964286D01*
X204092800Y-117964286D02*
X204188038Y-117916667D01*
X204188038Y-117916667D02*
X204568990Y-117916667D01*
X204568990Y-117916667D02*
X204664228Y-117964286D01*
X204664228Y-117964286D02*
X204711847Y-118059524D01*
X204711847Y-118059524D02*
X204711847Y-118250000D01*
X204711847Y-118250000D02*
X204664228Y-118345238D01*
X204664228Y-118345238D02*
X204568990Y-118392857D01*
X204568990Y-118392857D02*
X204473752Y-118392857D01*
X204473752Y-118392857D02*
X204378514Y-117916667D01*
X204045180Y-118821429D02*
X204711847Y-118821429D01*
X204521371Y-118821429D02*
X204616609Y-118869048D01*
X204616609Y-118869048D02*
X204664228Y-118916667D01*
X204664228Y-118916667D02*
X204711847Y-119011905D01*
X204711847Y-119011905D02*
X204711847Y-119107143D01*
D10*
X200341580Y-118907312D02*
X200817771Y-118573979D01*
X200341580Y-118335884D02*
X201341580Y-118335884D01*
X201341580Y-118335884D02*
X201341580Y-118716836D01*
X201341580Y-118716836D02*
X201293961Y-118812074D01*
X201293961Y-118812074D02*
X201246342Y-118859693D01*
X201246342Y-118859693D02*
X201151104Y-118907312D01*
X201151104Y-118907312D02*
X201008247Y-118907312D01*
X201008247Y-118907312D02*
X200913009Y-118859693D01*
X200913009Y-118859693D02*
X200865390Y-118812074D01*
X200865390Y-118812074D02*
X200817771Y-118716836D01*
X200817771Y-118716836D02*
X200817771Y-118335884D01*
X200341580Y-113986074D02*
X200341580Y-113509884D01*
X200341580Y-113509884D02*
X201341580Y-113509884D01*
X197976190Y-78433609D02*
X198119047Y-78481228D01*
X198119047Y-78481228D02*
X198166666Y-78528847D01*
X198166666Y-78528847D02*
X198214285Y-78624085D01*
X198214285Y-78624085D02*
X198214285Y-78766942D01*
X198214285Y-78766942D02*
X198166666Y-78862180D01*
X198166666Y-78862180D02*
X198119047Y-78909800D01*
X198119047Y-78909800D02*
X198023809Y-78957419D01*
X198023809Y-78957419D02*
X197642857Y-78957419D01*
X197642857Y-78957419D02*
X197642857Y-77957419D01*
X197642857Y-77957419D02*
X197976190Y-77957419D01*
X197976190Y-77957419D02*
X198071428Y-78005038D01*
X198071428Y-78005038D02*
X198119047Y-78052657D01*
X198119047Y-78052657D02*
X198166666Y-78147895D01*
X198166666Y-78147895D02*
X198166666Y-78243133D01*
X198166666Y-78243133D02*
X198119047Y-78338371D01*
X198119047Y-78338371D02*
X198071428Y-78385990D01*
X198071428Y-78385990D02*
X197976190Y-78433609D01*
X197976190Y-78433609D02*
X197642857Y-78433609D01*
X198595238Y-78671704D02*
X199071428Y-78671704D01*
X198500000Y-78957419D02*
X198833333Y-77957419D01*
X198833333Y-77957419D02*
X199166666Y-78957419D01*
X199357143Y-77957419D02*
X199928571Y-77957419D01*
X199642857Y-78957419D02*
X199642857Y-77957419D01*
X200119048Y-77957419D02*
X200690476Y-77957419D01*
X200404762Y-78957419D02*
X200404762Y-77957419D01*
X202357143Y-78862180D02*
X202309524Y-78909800D01*
X202309524Y-78909800D02*
X202166667Y-78957419D01*
X202166667Y-78957419D02*
X202071429Y-78957419D01*
X202071429Y-78957419D02*
X201928572Y-78909800D01*
X201928572Y-78909800D02*
X201833334Y-78814561D01*
X201833334Y-78814561D02*
X201785715Y-78719323D01*
X201785715Y-78719323D02*
X201738096Y-78528847D01*
X201738096Y-78528847D02*
X201738096Y-78385990D01*
X201738096Y-78385990D02*
X201785715Y-78195514D01*
X201785715Y-78195514D02*
X201833334Y-78100276D01*
X201833334Y-78100276D02*
X201928572Y-78005038D01*
X201928572Y-78005038D02*
X202071429Y-77957419D01*
X202071429Y-77957419D02*
X202166667Y-77957419D01*
X202166667Y-77957419D02*
X202309524Y-78005038D01*
X202309524Y-78005038D02*
X202357143Y-78052657D01*
X202785715Y-78957419D02*
X202785715Y-77957419D01*
X202785715Y-78433609D02*
X203357143Y-78433609D01*
X203357143Y-78957419D02*
X203357143Y-77957419D01*
X204357143Y-78005038D02*
X204261905Y-77957419D01*
X204261905Y-77957419D02*
X204119048Y-77957419D01*
X204119048Y-77957419D02*
X203976191Y-78005038D01*
X203976191Y-78005038D02*
X203880953Y-78100276D01*
X203880953Y-78100276D02*
X203833334Y-78195514D01*
X203833334Y-78195514D02*
X203785715Y-78385990D01*
X203785715Y-78385990D02*
X203785715Y-78528847D01*
X203785715Y-78528847D02*
X203833334Y-78719323D01*
X203833334Y-78719323D02*
X203880953Y-78814561D01*
X203880953Y-78814561D02*
X203976191Y-78909800D01*
X203976191Y-78909800D02*
X204119048Y-78957419D01*
X204119048Y-78957419D02*
X204214286Y-78957419D01*
X204214286Y-78957419D02*
X204357143Y-78909800D01*
X204357143Y-78909800D02*
X204404762Y-78862180D01*
X204404762Y-78862180D02*
X204404762Y-78528847D01*
X204404762Y-78528847D02*
X204214286Y-78528847D01*
X130626667Y-122329800D02*
X130769524Y-122377419D01*
X130769524Y-122377419D02*
X131007619Y-122377419D01*
X131007619Y-122377419D02*
X131102857Y-122329800D01*
X131102857Y-122329800D02*
X131150476Y-122282180D01*
X131150476Y-122282180D02*
X131198095Y-122186942D01*
X131198095Y-122186942D02*
X131198095Y-122091704D01*
X131198095Y-122091704D02*
X131150476Y-121996466D01*
X131150476Y-121996466D02*
X131102857Y-121948847D01*
X131102857Y-121948847D02*
X131007619Y-121901228D01*
X131007619Y-121901228D02*
X130817143Y-121853609D01*
X130817143Y-121853609D02*
X130721905Y-121805990D01*
X130721905Y-121805990D02*
X130674286Y-121758371D01*
X130674286Y-121758371D02*
X130626667Y-121663133D01*
X130626667Y-121663133D02*
X130626667Y-121567895D01*
X130626667Y-121567895D02*
X130674286Y-121472657D01*
X130674286Y-121472657D02*
X130721905Y-121425038D01*
X130721905Y-121425038D02*
X130817143Y-121377419D01*
X130817143Y-121377419D02*
X131055238Y-121377419D01*
X131055238Y-121377419D02*
X131198095Y-121425038D01*
X131531429Y-121377419D02*
X131769524Y-122377419D01*
X131769524Y-122377419D02*
X131960000Y-121663133D01*
X131960000Y-121663133D02*
X132150476Y-122377419D01*
X132150476Y-122377419D02*
X132388572Y-121377419D01*
X133198095Y-121710752D02*
X133198095Y-122377419D01*
X132960000Y-121329800D02*
X132721905Y-122044085D01*
X132721905Y-122044085D02*
X133340952Y-122044085D01*
D11*
X128864762Y-132487200D02*
X129007619Y-132534819D01*
X129007619Y-132534819D02*
X129245714Y-132534819D01*
X129245714Y-132534819D02*
X129340952Y-132487200D01*
X129340952Y-132487200D02*
X129388571Y-132439580D01*
X129388571Y-132439580D02*
X129436190Y-132344342D01*
X129436190Y-132344342D02*
X129436190Y-132249104D01*
X129436190Y-132249104D02*
X129388571Y-132153866D01*
X129388571Y-132153866D02*
X129340952Y-132106247D01*
X129340952Y-132106247D02*
X129245714Y-132058628D01*
X129245714Y-132058628D02*
X129055238Y-132011009D01*
X129055238Y-132011009D02*
X128960000Y-131963390D01*
X128960000Y-131963390D02*
X128912381Y-131915771D01*
X128912381Y-131915771D02*
X128864762Y-131820533D01*
X128864762Y-131820533D02*
X128864762Y-131725295D01*
X128864762Y-131725295D02*
X128912381Y-131630057D01*
X128912381Y-131630057D02*
X128960000Y-131582438D01*
X128960000Y-131582438D02*
X129055238Y-131534819D01*
X129055238Y-131534819D02*
X129293333Y-131534819D01*
X129293333Y-131534819D02*
X129436190Y-131582438D01*
X129769524Y-131534819D02*
X130007619Y-132534819D01*
X130007619Y-132534819D02*
X130198095Y-131820533D01*
X130198095Y-131820533D02*
X130388571Y-132534819D01*
X130388571Y-132534819D02*
X130626667Y-131534819D01*
X130769524Y-132630057D02*
X131531428Y-132630057D01*
X131721905Y-132487200D02*
X131864762Y-132534819D01*
X131864762Y-132534819D02*
X132102857Y-132534819D01*
X132102857Y-132534819D02*
X132198095Y-132487200D01*
X132198095Y-132487200D02*
X132245714Y-132439580D01*
X132245714Y-132439580D02*
X132293333Y-132344342D01*
X132293333Y-132344342D02*
X132293333Y-132249104D01*
X132293333Y-132249104D02*
X132245714Y-132153866D01*
X132245714Y-132153866D02*
X132198095Y-132106247D01*
X132198095Y-132106247D02*
X132102857Y-132058628D01*
X132102857Y-132058628D02*
X131912381Y-132011009D01*
X131912381Y-132011009D02*
X131817143Y-131963390D01*
X131817143Y-131963390D02*
X131769524Y-131915771D01*
X131769524Y-131915771D02*
X131721905Y-131820533D01*
X131721905Y-131820533D02*
X131721905Y-131725295D01*
X131721905Y-131725295D02*
X131769524Y-131630057D01*
X131769524Y-131630057D02*
X131817143Y-131582438D01*
X131817143Y-131582438D02*
X131912381Y-131534819D01*
X131912381Y-131534819D02*
X132150476Y-131534819D01*
X132150476Y-131534819D02*
X132293333Y-131582438D01*
X132721905Y-132534819D02*
X132721905Y-131534819D01*
X132721905Y-131534819D02*
X133102857Y-131534819D01*
X133102857Y-131534819D02*
X133198095Y-131582438D01*
X133198095Y-131582438D02*
X133245714Y-131630057D01*
X133245714Y-131630057D02*
X133293333Y-131725295D01*
X133293333Y-131725295D02*
X133293333Y-131868152D01*
X133293333Y-131868152D02*
X133245714Y-131963390D01*
X133245714Y-131963390D02*
X133198095Y-132011009D01*
X133198095Y-132011009D02*
X133102857Y-132058628D01*
X133102857Y-132058628D02*
X132721905Y-132058628D01*
X133721905Y-132534819D02*
X133721905Y-131534819D01*
X133721905Y-131534819D02*
X133960000Y-131534819D01*
X133960000Y-131534819D02*
X134102857Y-131582438D01*
X134102857Y-131582438D02*
X134198095Y-131677676D01*
X134198095Y-131677676D02*
X134245714Y-131772914D01*
X134245714Y-131772914D02*
X134293333Y-131963390D01*
X134293333Y-131963390D02*
X134293333Y-132106247D01*
X134293333Y-132106247D02*
X134245714Y-132296723D01*
X134245714Y-132296723D02*
X134198095Y-132391961D01*
X134198095Y-132391961D02*
X134102857Y-132487200D01*
X134102857Y-132487200D02*
X133960000Y-132534819D01*
X133960000Y-132534819D02*
X133721905Y-132534819D01*
X134579048Y-131534819D02*
X135150476Y-131534819D01*
X134864762Y-132534819D02*
X134864762Y-131534819D01*
D10*
X126866360Y-129174419D02*
X127056836Y-129174419D01*
X127056836Y-129174419D02*
X127152074Y-129222038D01*
X127152074Y-129222038D02*
X127247312Y-129317276D01*
X127247312Y-129317276D02*
X127294931Y-129507752D01*
X127294931Y-129507752D02*
X127294931Y-129841085D01*
X127294931Y-129841085D02*
X127247312Y-130031561D01*
X127247312Y-130031561D02*
X127152074Y-130126800D01*
X127152074Y-130126800D02*
X127056836Y-130174419D01*
X127056836Y-130174419D02*
X126866360Y-130174419D01*
X126866360Y-130174419D02*
X126771122Y-130126800D01*
X126771122Y-130126800D02*
X126675884Y-130031561D01*
X126675884Y-130031561D02*
X126628265Y-129841085D01*
X126628265Y-129841085D02*
X126628265Y-129507752D01*
X126628265Y-129507752D02*
X126675884Y-129317276D01*
X126675884Y-129317276D02*
X126771122Y-129222038D01*
X126771122Y-129222038D02*
X126866360Y-129174419D01*
X127723503Y-129174419D02*
X127723503Y-129983942D01*
X127723503Y-129983942D02*
X127771122Y-130079180D01*
X127771122Y-130079180D02*
X127818741Y-130126800D01*
X127818741Y-130126800D02*
X127913979Y-130174419D01*
X127913979Y-130174419D02*
X128104455Y-130174419D01*
X128104455Y-130174419D02*
X128199693Y-130126800D01*
X128199693Y-130126800D02*
X128247312Y-130079180D01*
X128247312Y-130079180D02*
X128294931Y-129983942D01*
X128294931Y-129983942D02*
X128294931Y-129174419D01*
X128628265Y-129174419D02*
X129199693Y-129174419D01*
X128913979Y-130174419D02*
X128913979Y-129174419D01*
X132263884Y-127380419D02*
X132263884Y-126380419D01*
X132740074Y-127380419D02*
X132740074Y-126380419D01*
X132740074Y-126380419D02*
X133311502Y-127380419D01*
X133311502Y-127380419D02*
X133311502Y-126380419D01*
X126866360Y-124094419D02*
X127056836Y-124094419D01*
X127056836Y-124094419D02*
X127152074Y-124142038D01*
X127152074Y-124142038D02*
X127247312Y-124237276D01*
X127247312Y-124237276D02*
X127294931Y-124427752D01*
X127294931Y-124427752D02*
X127294931Y-124761085D01*
X127294931Y-124761085D02*
X127247312Y-124951561D01*
X127247312Y-124951561D02*
X127152074Y-125046800D01*
X127152074Y-125046800D02*
X127056836Y-125094419D01*
X127056836Y-125094419D02*
X126866360Y-125094419D01*
X126866360Y-125094419D02*
X126771122Y-125046800D01*
X126771122Y-125046800D02*
X126675884Y-124951561D01*
X126675884Y-124951561D02*
X126628265Y-124761085D01*
X126628265Y-124761085D02*
X126628265Y-124427752D01*
X126628265Y-124427752D02*
X126675884Y-124237276D01*
X126675884Y-124237276D02*
X126771122Y-124142038D01*
X126771122Y-124142038D02*
X126866360Y-124094419D01*
X127723503Y-124094419D02*
X127723503Y-124903942D01*
X127723503Y-124903942D02*
X127771122Y-124999180D01*
X127771122Y-124999180D02*
X127818741Y-125046800D01*
X127818741Y-125046800D02*
X127913979Y-125094419D01*
X127913979Y-125094419D02*
X128104455Y-125094419D01*
X128104455Y-125094419D02*
X128199693Y-125046800D01*
X128199693Y-125046800D02*
X128247312Y-124999180D01*
X128247312Y-124999180D02*
X128294931Y-124903942D01*
X128294931Y-124903942D02*
X128294931Y-124094419D01*
X128628265Y-124094419D02*
X129199693Y-124094419D01*
X128913979Y-125094419D02*
X128913979Y-124094419D01*
D11*
X170846660Y-126804104D02*
X171322850Y-126804104D01*
X170751422Y-127089819D02*
X171084755Y-126089819D01*
X171084755Y-126089819D02*
X171418088Y-127089819D01*
X172275231Y-127089819D02*
X171703803Y-127089819D01*
X171989517Y-127089819D02*
X171989517Y-126089819D01*
X171989517Y-126089819D02*
X171894279Y-126232676D01*
X171894279Y-126232676D02*
X171799041Y-126327914D01*
X171799041Y-126327914D02*
X171703803Y-126375533D01*
X111666665Y-110954819D02*
X111333332Y-110478628D01*
X111095237Y-110954819D02*
X111095237Y-109954819D01*
X111095237Y-109954819D02*
X111476189Y-109954819D01*
X111476189Y-109954819D02*
X111571427Y-110002438D01*
X111571427Y-110002438D02*
X111619046Y-110050057D01*
X111619046Y-110050057D02*
X111666665Y-110145295D01*
X111666665Y-110145295D02*
X111666665Y-110288152D01*
X111666665Y-110288152D02*
X111619046Y-110383390D01*
X111619046Y-110383390D02*
X111571427Y-110431009D01*
X111571427Y-110431009D02*
X111476189Y-110478628D01*
X111476189Y-110478628D02*
X111095237Y-110478628D01*
X112238094Y-110954819D02*
X112142856Y-110907200D01*
X112142856Y-110907200D02*
X112095237Y-110859580D01*
X112095237Y-110859580D02*
X112047618Y-110764342D01*
X112047618Y-110764342D02*
X112047618Y-110478628D01*
X112047618Y-110478628D02*
X112095237Y-110383390D01*
X112095237Y-110383390D02*
X112142856Y-110335771D01*
X112142856Y-110335771D02*
X112238094Y-110288152D01*
X112238094Y-110288152D02*
X112380951Y-110288152D01*
X112380951Y-110288152D02*
X112476189Y-110335771D01*
X112476189Y-110335771D02*
X112523808Y-110383390D01*
X112523808Y-110383390D02*
X112571427Y-110478628D01*
X112571427Y-110478628D02*
X112571427Y-110764342D01*
X112571427Y-110764342D02*
X112523808Y-110859580D01*
X112523808Y-110859580D02*
X112476189Y-110907200D01*
X112476189Y-110907200D02*
X112380951Y-110954819D01*
X112380951Y-110954819D02*
X112238094Y-110954819D01*
X112857142Y-110288152D02*
X113238094Y-110288152D01*
X112999999Y-109954819D02*
X112999999Y-110811961D01*
X112999999Y-110811961D02*
X113047618Y-110907200D01*
X113047618Y-110907200D02*
X113142856Y-110954819D01*
X113142856Y-110954819D02*
X113238094Y-110954819D01*
X113999999Y-110954819D02*
X113999999Y-110431009D01*
X113999999Y-110431009D02*
X113952380Y-110335771D01*
X113952380Y-110335771D02*
X113857142Y-110288152D01*
X113857142Y-110288152D02*
X113666666Y-110288152D01*
X113666666Y-110288152D02*
X113571428Y-110335771D01*
X113999999Y-110907200D02*
X113904761Y-110954819D01*
X113904761Y-110954819D02*
X113666666Y-110954819D01*
X113666666Y-110954819D02*
X113571428Y-110907200D01*
X113571428Y-110907200D02*
X113523809Y-110811961D01*
X113523809Y-110811961D02*
X113523809Y-110716723D01*
X113523809Y-110716723D02*
X113571428Y-110621485D01*
X113571428Y-110621485D02*
X113666666Y-110573866D01*
X113666666Y-110573866D02*
X113904761Y-110573866D01*
X113904761Y-110573866D02*
X113999999Y-110526247D01*
X114476190Y-110954819D02*
X114476190Y-110288152D01*
X114476190Y-110478628D02*
X114523809Y-110383390D01*
X114523809Y-110383390D02*
X114571428Y-110335771D01*
X114571428Y-110335771D02*
X114666666Y-110288152D01*
X114666666Y-110288152D02*
X114761904Y-110288152D01*
X115000000Y-110288152D02*
X115238095Y-110954819D01*
X115476190Y-110288152D02*
X115238095Y-110954819D01*
X115238095Y-110954819D02*
X115142857Y-111192914D01*
X115142857Y-111192914D02*
X115095238Y-111240533D01*
X115095238Y-111240533D02*
X115000000Y-111288152D01*
X115857143Y-110431009D02*
X116190476Y-110431009D01*
X116333333Y-110954819D02*
X115857143Y-110954819D01*
X115857143Y-110954819D02*
X115857143Y-109954819D01*
X115857143Y-109954819D02*
X116333333Y-109954819D01*
X116761905Y-110288152D02*
X116761905Y-110954819D01*
X116761905Y-110383390D02*
X116809524Y-110335771D01*
X116809524Y-110335771D02*
X116904762Y-110288152D01*
X116904762Y-110288152D02*
X117047619Y-110288152D01*
X117047619Y-110288152D02*
X117142857Y-110335771D01*
X117142857Y-110335771D02*
X117190476Y-110431009D01*
X117190476Y-110431009D02*
X117190476Y-110954819D01*
X118095238Y-110907200D02*
X118000000Y-110954819D01*
X118000000Y-110954819D02*
X117809524Y-110954819D01*
X117809524Y-110954819D02*
X117714286Y-110907200D01*
X117714286Y-110907200D02*
X117666667Y-110859580D01*
X117666667Y-110859580D02*
X117619048Y-110764342D01*
X117619048Y-110764342D02*
X117619048Y-110478628D01*
X117619048Y-110478628D02*
X117666667Y-110383390D01*
X117666667Y-110383390D02*
X117714286Y-110335771D01*
X117714286Y-110335771D02*
X117809524Y-110288152D01*
X117809524Y-110288152D02*
X118000000Y-110288152D01*
X118000000Y-110288152D02*
X118095238Y-110335771D01*
X118666667Y-110954819D02*
X118571429Y-110907200D01*
X118571429Y-110907200D02*
X118523810Y-110859580D01*
X118523810Y-110859580D02*
X118476191Y-110764342D01*
X118476191Y-110764342D02*
X118476191Y-110478628D01*
X118476191Y-110478628D02*
X118523810Y-110383390D01*
X118523810Y-110383390D02*
X118571429Y-110335771D01*
X118571429Y-110335771D02*
X118666667Y-110288152D01*
X118666667Y-110288152D02*
X118809524Y-110288152D01*
X118809524Y-110288152D02*
X118904762Y-110335771D01*
X118904762Y-110335771D02*
X118952381Y-110383390D01*
X118952381Y-110383390D02*
X119000000Y-110478628D01*
X119000000Y-110478628D02*
X119000000Y-110764342D01*
X119000000Y-110764342D02*
X118952381Y-110859580D01*
X118952381Y-110859580D02*
X118904762Y-110907200D01*
X118904762Y-110907200D02*
X118809524Y-110954819D01*
X118809524Y-110954819D02*
X118666667Y-110954819D01*
X119857143Y-110954819D02*
X119857143Y-109954819D01*
X119857143Y-110907200D02*
X119761905Y-110954819D01*
X119761905Y-110954819D02*
X119571429Y-110954819D01*
X119571429Y-110954819D02*
X119476191Y-110907200D01*
X119476191Y-110907200D02*
X119428572Y-110859580D01*
X119428572Y-110859580D02*
X119380953Y-110764342D01*
X119380953Y-110764342D02*
X119380953Y-110478628D01*
X119380953Y-110478628D02*
X119428572Y-110383390D01*
X119428572Y-110383390D02*
X119476191Y-110335771D01*
X119476191Y-110335771D02*
X119571429Y-110288152D01*
X119571429Y-110288152D02*
X119761905Y-110288152D01*
X119761905Y-110288152D02*
X119857143Y-110335771D01*
X120714286Y-110907200D02*
X120619048Y-110954819D01*
X120619048Y-110954819D02*
X120428572Y-110954819D01*
X120428572Y-110954819D02*
X120333334Y-110907200D01*
X120333334Y-110907200D02*
X120285715Y-110811961D01*
X120285715Y-110811961D02*
X120285715Y-110431009D01*
X120285715Y-110431009D02*
X120333334Y-110335771D01*
X120333334Y-110335771D02*
X120428572Y-110288152D01*
X120428572Y-110288152D02*
X120619048Y-110288152D01*
X120619048Y-110288152D02*
X120714286Y-110335771D01*
X120714286Y-110335771D02*
X120761905Y-110431009D01*
X120761905Y-110431009D02*
X120761905Y-110526247D01*
X120761905Y-110526247D02*
X120285715Y-110621485D01*
X121190477Y-110954819D02*
X121190477Y-110288152D01*
X121190477Y-110478628D02*
X121238096Y-110383390D01*
X121238096Y-110383390D02*
X121285715Y-110335771D01*
X121285715Y-110335771D02*
X121380953Y-110288152D01*
X121380953Y-110288152D02*
X121476191Y-110288152D01*
X121571430Y-111050057D02*
X122333334Y-111050057D01*
X122523811Y-110907200D02*
X122666668Y-110954819D01*
X122666668Y-110954819D02*
X122904763Y-110954819D01*
X122904763Y-110954819D02*
X123000001Y-110907200D01*
X123000001Y-110907200D02*
X123047620Y-110859580D01*
X123047620Y-110859580D02*
X123095239Y-110764342D01*
X123095239Y-110764342D02*
X123095239Y-110669104D01*
X123095239Y-110669104D02*
X123047620Y-110573866D01*
X123047620Y-110573866D02*
X123000001Y-110526247D01*
X123000001Y-110526247D02*
X122904763Y-110478628D01*
X122904763Y-110478628D02*
X122714287Y-110431009D01*
X122714287Y-110431009D02*
X122619049Y-110383390D01*
X122619049Y-110383390D02*
X122571430Y-110335771D01*
X122571430Y-110335771D02*
X122523811Y-110240533D01*
X122523811Y-110240533D02*
X122523811Y-110145295D01*
X122523811Y-110145295D02*
X122571430Y-110050057D01*
X122571430Y-110050057D02*
X122619049Y-110002438D01*
X122619049Y-110002438D02*
X122714287Y-109954819D01*
X122714287Y-109954819D02*
X122952382Y-109954819D01*
X122952382Y-109954819D02*
X123095239Y-110002438D01*
X123428573Y-110288152D02*
X123619049Y-110954819D01*
X123619049Y-110954819D02*
X123809525Y-110478628D01*
X123809525Y-110478628D02*
X124000001Y-110954819D01*
X124000001Y-110954819D02*
X124190477Y-110288152D01*
X124571430Y-110954819D02*
X124571430Y-110288152D01*
X124571430Y-109954819D02*
X124523811Y-110002438D01*
X124523811Y-110002438D02*
X124571430Y-110050057D01*
X124571430Y-110050057D02*
X124619049Y-110002438D01*
X124619049Y-110002438D02*
X124571430Y-109954819D01*
X124571430Y-109954819D02*
X124571430Y-110050057D01*
X124904763Y-110288152D02*
X125285715Y-110288152D01*
X125047620Y-109954819D02*
X125047620Y-110811961D01*
X125047620Y-110811961D02*
X125095239Y-110907200D01*
X125095239Y-110907200D02*
X125190477Y-110954819D01*
X125190477Y-110954819D02*
X125285715Y-110954819D01*
X126047620Y-110907200D02*
X125952382Y-110954819D01*
X125952382Y-110954819D02*
X125761906Y-110954819D01*
X125761906Y-110954819D02*
X125666668Y-110907200D01*
X125666668Y-110907200D02*
X125619049Y-110859580D01*
X125619049Y-110859580D02*
X125571430Y-110764342D01*
X125571430Y-110764342D02*
X125571430Y-110478628D01*
X125571430Y-110478628D02*
X125619049Y-110383390D01*
X125619049Y-110383390D02*
X125666668Y-110335771D01*
X125666668Y-110335771D02*
X125761906Y-110288152D01*
X125761906Y-110288152D02*
X125952382Y-110288152D01*
X125952382Y-110288152D02*
X126047620Y-110335771D01*
X126476192Y-110954819D02*
X126476192Y-109954819D01*
X126904763Y-110954819D02*
X126904763Y-110431009D01*
X126904763Y-110431009D02*
X126857144Y-110335771D01*
X126857144Y-110335771D02*
X126761906Y-110288152D01*
X126761906Y-110288152D02*
X126619049Y-110288152D01*
X126619049Y-110288152D02*
X126523811Y-110335771D01*
X126523811Y-110335771D02*
X126476192Y-110383390D01*
D10*
X123756265Y-113324800D02*
X123899122Y-113372419D01*
X123899122Y-113372419D02*
X124137217Y-113372419D01*
X124137217Y-113372419D02*
X124232455Y-113324800D01*
X124232455Y-113324800D02*
X124280074Y-113277180D01*
X124280074Y-113277180D02*
X124327693Y-113181942D01*
X124327693Y-113181942D02*
X124327693Y-113086704D01*
X124327693Y-113086704D02*
X124280074Y-112991466D01*
X124280074Y-112991466D02*
X124232455Y-112943847D01*
X124232455Y-112943847D02*
X124137217Y-112896228D01*
X124137217Y-112896228D02*
X123946741Y-112848609D01*
X123946741Y-112848609D02*
X123851503Y-112800990D01*
X123851503Y-112800990D02*
X123803884Y-112753371D01*
X123803884Y-112753371D02*
X123756265Y-112658133D01*
X123756265Y-112658133D02*
X123756265Y-112562895D01*
X123756265Y-112562895D02*
X123803884Y-112467657D01*
X123803884Y-112467657D02*
X123851503Y-112420038D01*
X123851503Y-112420038D02*
X123946741Y-112372419D01*
X123946741Y-112372419D02*
X124184836Y-112372419D01*
X124184836Y-112372419D02*
X124327693Y-112420038D01*
X124708646Y-112467657D02*
X124756265Y-112420038D01*
X124756265Y-112420038D02*
X124851503Y-112372419D01*
X124851503Y-112372419D02*
X125089598Y-112372419D01*
X125089598Y-112372419D02*
X125184836Y-112420038D01*
X125184836Y-112420038D02*
X125232455Y-112467657D01*
X125232455Y-112467657D02*
X125280074Y-112562895D01*
X125280074Y-112562895D02*
X125280074Y-112658133D01*
X125280074Y-112658133D02*
X125232455Y-112800990D01*
X125232455Y-112800990D02*
X124661027Y-113372419D01*
X124661027Y-113372419D02*
X125280074Y-113372419D01*
X111753884Y-117948609D02*
X112087217Y-117948609D01*
X112230074Y-118472419D02*
X111753884Y-118472419D01*
X111753884Y-118472419D02*
X111753884Y-117472419D01*
X111753884Y-117472419D02*
X112230074Y-117472419D01*
X112658646Y-118472419D02*
X112658646Y-117472419D01*
X112658646Y-117472419D02*
X113230074Y-118472419D01*
X113230074Y-118472419D02*
X113230074Y-117472419D01*
X114277693Y-118377180D02*
X114230074Y-118424800D01*
X114230074Y-118424800D02*
X114087217Y-118472419D01*
X114087217Y-118472419D02*
X113991979Y-118472419D01*
X113991979Y-118472419D02*
X113849122Y-118424800D01*
X113849122Y-118424800D02*
X113753884Y-118329561D01*
X113753884Y-118329561D02*
X113706265Y-118234323D01*
X113706265Y-118234323D02*
X113658646Y-118043847D01*
X113658646Y-118043847D02*
X113658646Y-117900990D01*
X113658646Y-117900990D02*
X113706265Y-117710514D01*
X113706265Y-117710514D02*
X113753884Y-117615276D01*
X113753884Y-117615276D02*
X113849122Y-117520038D01*
X113849122Y-117520038D02*
X113991979Y-117472419D01*
X113991979Y-117472419D02*
X114087217Y-117472419D01*
X114087217Y-117472419D02*
X114230074Y-117520038D01*
X114230074Y-117520038D02*
X114277693Y-117567657D01*
X114468170Y-118567657D02*
X115230074Y-118567657D01*
X115801503Y-117948609D02*
X115944360Y-117996228D01*
X115944360Y-117996228D02*
X115991979Y-118043847D01*
X115991979Y-118043847D02*
X116039598Y-118139085D01*
X116039598Y-118139085D02*
X116039598Y-118281942D01*
X116039598Y-118281942D02*
X115991979Y-118377180D01*
X115991979Y-118377180D02*
X115944360Y-118424800D01*
X115944360Y-118424800D02*
X115849122Y-118472419D01*
X115849122Y-118472419D02*
X115468170Y-118472419D01*
X115468170Y-118472419D02*
X115468170Y-117472419D01*
X115468170Y-117472419D02*
X115801503Y-117472419D01*
X115801503Y-117472419D02*
X115896741Y-117520038D01*
X115896741Y-117520038D02*
X115944360Y-117567657D01*
X115944360Y-117567657D02*
X115991979Y-117662895D01*
X115991979Y-117662895D02*
X115991979Y-117758133D01*
X115991979Y-117758133D02*
X115944360Y-117853371D01*
X115944360Y-117853371D02*
X115896741Y-117900990D01*
X115896741Y-117900990D02*
X115801503Y-117948609D01*
X115801503Y-117948609D02*
X115468170Y-117948609D01*
X123756265Y-118324800D02*
X123899122Y-118372419D01*
X123899122Y-118372419D02*
X124137217Y-118372419D01*
X124137217Y-118372419D02*
X124232455Y-118324800D01*
X124232455Y-118324800D02*
X124280074Y-118277180D01*
X124280074Y-118277180D02*
X124327693Y-118181942D01*
X124327693Y-118181942D02*
X124327693Y-118086704D01*
X124327693Y-118086704D02*
X124280074Y-117991466D01*
X124280074Y-117991466D02*
X124232455Y-117943847D01*
X124232455Y-117943847D02*
X124137217Y-117896228D01*
X124137217Y-117896228D02*
X123946741Y-117848609D01*
X123946741Y-117848609D02*
X123851503Y-117800990D01*
X123851503Y-117800990D02*
X123803884Y-117753371D01*
X123803884Y-117753371D02*
X123756265Y-117658133D01*
X123756265Y-117658133D02*
X123756265Y-117562895D01*
X123756265Y-117562895D02*
X123803884Y-117467657D01*
X123803884Y-117467657D02*
X123851503Y-117420038D01*
X123851503Y-117420038D02*
X123946741Y-117372419D01*
X123946741Y-117372419D02*
X124184836Y-117372419D01*
X124184836Y-117372419D02*
X124327693Y-117420038D01*
X125280074Y-118372419D02*
X124708646Y-118372419D01*
X124994360Y-118372419D02*
X124994360Y-117372419D01*
X124994360Y-117372419D02*
X124899122Y-117515276D01*
X124899122Y-117515276D02*
X124803884Y-117610514D01*
X124803884Y-117610514D02*
X124708646Y-117658133D01*
X111803884Y-112848609D02*
X112137217Y-112848609D01*
X112280074Y-113372419D02*
X111803884Y-113372419D01*
X111803884Y-113372419D02*
X111803884Y-112372419D01*
X111803884Y-112372419D02*
X112280074Y-112372419D01*
X112708646Y-113372419D02*
X112708646Y-112372419D01*
X112708646Y-112372419D02*
X113280074Y-113372419D01*
X113280074Y-113372419D02*
X113280074Y-112372419D01*
X114327693Y-113277180D02*
X114280074Y-113324800D01*
X114280074Y-113324800D02*
X114137217Y-113372419D01*
X114137217Y-113372419D02*
X114041979Y-113372419D01*
X114041979Y-113372419D02*
X113899122Y-113324800D01*
X113899122Y-113324800D02*
X113803884Y-113229561D01*
X113803884Y-113229561D02*
X113756265Y-113134323D01*
X113756265Y-113134323D02*
X113708646Y-112943847D01*
X113708646Y-112943847D02*
X113708646Y-112800990D01*
X113708646Y-112800990D02*
X113756265Y-112610514D01*
X113756265Y-112610514D02*
X113803884Y-112515276D01*
X113803884Y-112515276D02*
X113899122Y-112420038D01*
X113899122Y-112420038D02*
X114041979Y-112372419D01*
X114041979Y-112372419D02*
X114137217Y-112372419D01*
X114137217Y-112372419D02*
X114280074Y-112420038D01*
X114280074Y-112420038D02*
X114327693Y-112467657D01*
X114518170Y-113467657D02*
X115280074Y-113467657D01*
X115470551Y-113086704D02*
X115946741Y-113086704D01*
X115375313Y-113372419D02*
X115708646Y-112372419D01*
X115708646Y-112372419D02*
X116041979Y-113372419D01*
X114327693Y-114920038D02*
X114232455Y-114872419D01*
X114232455Y-114872419D02*
X114089598Y-114872419D01*
X114089598Y-114872419D02*
X113946741Y-114920038D01*
X113946741Y-114920038D02*
X113851503Y-115015276D01*
X113851503Y-115015276D02*
X113803884Y-115110514D01*
X113803884Y-115110514D02*
X113756265Y-115300990D01*
X113756265Y-115300990D02*
X113756265Y-115443847D01*
X113756265Y-115443847D02*
X113803884Y-115634323D01*
X113803884Y-115634323D02*
X113851503Y-115729561D01*
X113851503Y-115729561D02*
X113946741Y-115824800D01*
X113946741Y-115824800D02*
X114089598Y-115872419D01*
X114089598Y-115872419D02*
X114184836Y-115872419D01*
X114184836Y-115872419D02*
X114327693Y-115824800D01*
X114327693Y-115824800D02*
X114375312Y-115777180D01*
X114375312Y-115777180D02*
X114375312Y-115443847D01*
X114375312Y-115443847D02*
X114184836Y-115443847D01*
X114803884Y-115872419D02*
X114803884Y-114872419D01*
X114803884Y-114872419D02*
X115375312Y-115872419D01*
X115375312Y-115872419D02*
X115375312Y-114872419D01*
X115851503Y-115872419D02*
X115851503Y-114872419D01*
X115851503Y-114872419D02*
X116089598Y-114872419D01*
X116089598Y-114872419D02*
X116232455Y-114920038D01*
X116232455Y-114920038D02*
X116327693Y-115015276D01*
X116327693Y-115015276D02*
X116375312Y-115110514D01*
X116375312Y-115110514D02*
X116422931Y-115300990D01*
X116422931Y-115300990D02*
X116422931Y-115443847D01*
X116422931Y-115443847D02*
X116375312Y-115634323D01*
X116375312Y-115634323D02*
X116327693Y-115729561D01*
X116327693Y-115729561D02*
X116232455Y-115824800D01*
X116232455Y-115824800D02*
X116089598Y-115872419D01*
X116089598Y-115872419D02*
X115851503Y-115872419D01*
D11*
X176333333Y-106874819D02*
X176000000Y-106398628D01*
X175761905Y-106874819D02*
X175761905Y-105874819D01*
X175761905Y-105874819D02*
X176142857Y-105874819D01*
X176142857Y-105874819D02*
X176238095Y-105922438D01*
X176238095Y-105922438D02*
X176285714Y-105970057D01*
X176285714Y-105970057D02*
X176333333Y-106065295D01*
X176333333Y-106065295D02*
X176333333Y-106208152D01*
X176333333Y-106208152D02*
X176285714Y-106303390D01*
X176285714Y-106303390D02*
X176238095Y-106351009D01*
X176238095Y-106351009D02*
X176142857Y-106398628D01*
X176142857Y-106398628D02*
X175761905Y-106398628D01*
X177285714Y-106874819D02*
X176714286Y-106874819D01*
X177000000Y-106874819D02*
X177000000Y-105874819D01*
X177000000Y-105874819D02*
X176904762Y-106017676D01*
X176904762Y-106017676D02*
X176809524Y-106112914D01*
X176809524Y-106112914D02*
X176714286Y-106160533D01*
D10*
X202042580Y-124857142D02*
X202042580Y-124380952D01*
X202042580Y-124380952D02*
X203042580Y-124380952D01*
X202090200Y-125142857D02*
X202042580Y-125285714D01*
X202042580Y-125285714D02*
X202042580Y-125523809D01*
X202042580Y-125523809D02*
X202090200Y-125619047D01*
X202090200Y-125619047D02*
X202137819Y-125666666D01*
X202137819Y-125666666D02*
X202233057Y-125714285D01*
X202233057Y-125714285D02*
X202328295Y-125714285D01*
X202328295Y-125714285D02*
X202423533Y-125666666D01*
X202423533Y-125666666D02*
X202471152Y-125619047D01*
X202471152Y-125619047D02*
X202518771Y-125523809D01*
X202518771Y-125523809D02*
X202566390Y-125333333D01*
X202566390Y-125333333D02*
X202614009Y-125238095D01*
X202614009Y-125238095D02*
X202661628Y-125190476D01*
X202661628Y-125190476D02*
X202756866Y-125142857D01*
X202756866Y-125142857D02*
X202852104Y-125142857D01*
X202852104Y-125142857D02*
X202947342Y-125190476D01*
X202947342Y-125190476D02*
X202994961Y-125238095D01*
X202994961Y-125238095D02*
X203042580Y-125333333D01*
X203042580Y-125333333D02*
X203042580Y-125571428D01*
X203042580Y-125571428D02*
X202994961Y-125714285D01*
X202042580Y-126666666D02*
X202042580Y-126095238D01*
X202042580Y-126380952D02*
X203042580Y-126380952D01*
X203042580Y-126380952D02*
X202899723Y-126285714D01*
X202899723Y-126285714D02*
X202804485Y-126190476D01*
X202804485Y-126190476D02*
X202756866Y-126095238D01*
D11*
X204092800Y-122738095D02*
X204045180Y-122880952D01*
X204045180Y-122880952D02*
X204045180Y-123119047D01*
X204045180Y-123119047D02*
X204092800Y-123214285D01*
X204092800Y-123214285D02*
X204140419Y-123261904D01*
X204140419Y-123261904D02*
X204235657Y-123309523D01*
X204235657Y-123309523D02*
X204330895Y-123309523D01*
X204330895Y-123309523D02*
X204426133Y-123261904D01*
X204426133Y-123261904D02*
X204473752Y-123214285D01*
X204473752Y-123214285D02*
X204521371Y-123119047D01*
X204521371Y-123119047D02*
X204568990Y-122928571D01*
X204568990Y-122928571D02*
X204616609Y-122833333D01*
X204616609Y-122833333D02*
X204664228Y-122785714D01*
X204664228Y-122785714D02*
X204759466Y-122738095D01*
X204759466Y-122738095D02*
X204854704Y-122738095D01*
X204854704Y-122738095D02*
X204949942Y-122785714D01*
X204949942Y-122785714D02*
X204997561Y-122833333D01*
X204997561Y-122833333D02*
X205045180Y-122928571D01*
X205045180Y-122928571D02*
X205045180Y-123166666D01*
X205045180Y-123166666D02*
X204997561Y-123309523D01*
X204711847Y-123738095D02*
X203711847Y-123738095D01*
X204664228Y-123738095D02*
X204711847Y-123833333D01*
X204711847Y-123833333D02*
X204711847Y-124023809D01*
X204711847Y-124023809D02*
X204664228Y-124119047D01*
X204664228Y-124119047D02*
X204616609Y-124166666D01*
X204616609Y-124166666D02*
X204521371Y-124214285D01*
X204521371Y-124214285D02*
X204235657Y-124214285D01*
X204235657Y-124214285D02*
X204140419Y-124166666D01*
X204140419Y-124166666D02*
X204092800Y-124119047D01*
X204092800Y-124119047D02*
X204045180Y-124023809D01*
X204045180Y-124023809D02*
X204045180Y-123833333D01*
X204045180Y-123833333D02*
X204092800Y-123738095D01*
X204092800Y-125023809D02*
X204045180Y-124928571D01*
X204045180Y-124928571D02*
X204045180Y-124738095D01*
X204045180Y-124738095D02*
X204092800Y-124642857D01*
X204092800Y-124642857D02*
X204188038Y-124595238D01*
X204188038Y-124595238D02*
X204568990Y-124595238D01*
X204568990Y-124595238D02*
X204664228Y-124642857D01*
X204664228Y-124642857D02*
X204711847Y-124738095D01*
X204711847Y-124738095D02*
X204711847Y-124928571D01*
X204711847Y-124928571D02*
X204664228Y-125023809D01*
X204664228Y-125023809D02*
X204568990Y-125071428D01*
X204568990Y-125071428D02*
X204473752Y-125071428D01*
X204473752Y-125071428D02*
X204378514Y-124595238D01*
X204045180Y-125928571D02*
X204568990Y-125928571D01*
X204568990Y-125928571D02*
X204664228Y-125880952D01*
X204664228Y-125880952D02*
X204711847Y-125785714D01*
X204711847Y-125785714D02*
X204711847Y-125595238D01*
X204711847Y-125595238D02*
X204664228Y-125500000D01*
X204092800Y-125928571D02*
X204045180Y-125833333D01*
X204045180Y-125833333D02*
X204045180Y-125595238D01*
X204045180Y-125595238D02*
X204092800Y-125500000D01*
X204092800Y-125500000D02*
X204188038Y-125452381D01*
X204188038Y-125452381D02*
X204283276Y-125452381D01*
X204283276Y-125452381D02*
X204378514Y-125500000D01*
X204378514Y-125500000D02*
X204426133Y-125595238D01*
X204426133Y-125595238D02*
X204426133Y-125833333D01*
X204426133Y-125833333D02*
X204473752Y-125928571D01*
X204045180Y-126404762D02*
X205045180Y-126404762D01*
X204426133Y-126500000D02*
X204045180Y-126785714D01*
X204711847Y-126785714D02*
X204330895Y-126404762D01*
X204092800Y-127595238D02*
X204045180Y-127500000D01*
X204045180Y-127500000D02*
X204045180Y-127309524D01*
X204045180Y-127309524D02*
X204092800Y-127214286D01*
X204092800Y-127214286D02*
X204188038Y-127166667D01*
X204188038Y-127166667D02*
X204568990Y-127166667D01*
X204568990Y-127166667D02*
X204664228Y-127214286D01*
X204664228Y-127214286D02*
X204711847Y-127309524D01*
X204711847Y-127309524D02*
X204711847Y-127500000D01*
X204711847Y-127500000D02*
X204664228Y-127595238D01*
X204664228Y-127595238D02*
X204568990Y-127642857D01*
X204568990Y-127642857D02*
X204473752Y-127642857D01*
X204473752Y-127642857D02*
X204378514Y-127166667D01*
X204045180Y-128071429D02*
X204711847Y-128071429D01*
X204521371Y-128071429D02*
X204616609Y-128119048D01*
X204616609Y-128119048D02*
X204664228Y-128166667D01*
X204664228Y-128166667D02*
X204711847Y-128261905D01*
X204711847Y-128261905D02*
X204711847Y-128357143D01*
D10*
X200341580Y-123486074D02*
X200341580Y-123009884D01*
X200341580Y-123009884D02*
X201341580Y-123009884D01*
X200341580Y-128407312D02*
X200817771Y-128073979D01*
X200341580Y-127835884D02*
X201341580Y-127835884D01*
X201341580Y-127835884D02*
X201341580Y-128216836D01*
X201341580Y-128216836D02*
X201293961Y-128312074D01*
X201293961Y-128312074D02*
X201246342Y-128359693D01*
X201246342Y-128359693D02*
X201151104Y-128407312D01*
X201151104Y-128407312D02*
X201008247Y-128407312D01*
X201008247Y-128407312D02*
X200913009Y-128359693D01*
X200913009Y-128359693D02*
X200865390Y-128312074D01*
X200865390Y-128312074D02*
X200817771Y-128216836D01*
X200817771Y-128216836D02*
X200817771Y-127835884D01*
X201833333Y-134671704D02*
X202309523Y-134671704D01*
X201738095Y-134957419D02*
X202071428Y-133957419D01*
X202071428Y-133957419D02*
X202404761Y-134957419D01*
X202738095Y-134433609D02*
X203071428Y-134433609D01*
X203214285Y-134957419D02*
X202738095Y-134957419D01*
X202738095Y-134957419D02*
X202738095Y-133957419D01*
X202738095Y-133957419D02*
X203214285Y-133957419D01*
X204166666Y-134957419D02*
X203595238Y-134957419D01*
X203880952Y-134957419D02*
X203880952Y-133957419D01*
X203880952Y-133957419D02*
X203785714Y-134100276D01*
X203785714Y-134100276D02*
X203690476Y-134195514D01*
X203690476Y-134195514D02*
X203595238Y-134243133D01*
D11*
X199988095Y-139169104D02*
X200464285Y-139169104D01*
X199892857Y-139454819D02*
X200226190Y-138454819D01*
X200226190Y-138454819D02*
X200559523Y-139454819D01*
X200892857Y-138788152D02*
X200892857Y-139454819D01*
X200892857Y-138883390D02*
X200940476Y-138835771D01*
X200940476Y-138835771D02*
X201035714Y-138788152D01*
X201035714Y-138788152D02*
X201178571Y-138788152D01*
X201178571Y-138788152D02*
X201273809Y-138835771D01*
X201273809Y-138835771D02*
X201321428Y-138931009D01*
X201321428Y-138931009D02*
X201321428Y-139454819D01*
X201654762Y-138788152D02*
X202035714Y-138788152D01*
X201797619Y-138454819D02*
X201797619Y-139311961D01*
X201797619Y-139311961D02*
X201845238Y-139407200D01*
X201845238Y-139407200D02*
X201940476Y-139454819D01*
X201940476Y-139454819D02*
X202035714Y-139454819D01*
X202750000Y-139407200D02*
X202654762Y-139454819D01*
X202654762Y-139454819D02*
X202464286Y-139454819D01*
X202464286Y-139454819D02*
X202369048Y-139407200D01*
X202369048Y-139407200D02*
X202321429Y-139311961D01*
X202321429Y-139311961D02*
X202321429Y-138931009D01*
X202321429Y-138931009D02*
X202369048Y-138835771D01*
X202369048Y-138835771D02*
X202464286Y-138788152D01*
X202464286Y-138788152D02*
X202654762Y-138788152D01*
X202654762Y-138788152D02*
X202750000Y-138835771D01*
X202750000Y-138835771D02*
X202797619Y-138931009D01*
X202797619Y-138931009D02*
X202797619Y-139026247D01*
X202797619Y-139026247D02*
X202321429Y-139121485D01*
X203226191Y-138788152D02*
X203226191Y-139454819D01*
X203226191Y-138883390D02*
X203273810Y-138835771D01*
X203273810Y-138835771D02*
X203369048Y-138788152D01*
X203369048Y-138788152D02*
X203511905Y-138788152D01*
X203511905Y-138788152D02*
X203607143Y-138835771D01*
X203607143Y-138835771D02*
X203654762Y-138931009D01*
X203654762Y-138931009D02*
X203654762Y-139454819D01*
X204130953Y-138788152D02*
X204130953Y-139454819D01*
X204130953Y-138883390D02*
X204178572Y-138835771D01*
X204178572Y-138835771D02*
X204273810Y-138788152D01*
X204273810Y-138788152D02*
X204416667Y-138788152D01*
X204416667Y-138788152D02*
X204511905Y-138835771D01*
X204511905Y-138835771D02*
X204559524Y-138931009D01*
X204559524Y-138931009D02*
X204559524Y-139454819D01*
X205464286Y-139454819D02*
X205464286Y-138931009D01*
X205464286Y-138931009D02*
X205416667Y-138835771D01*
X205416667Y-138835771D02*
X205321429Y-138788152D01*
X205321429Y-138788152D02*
X205130953Y-138788152D01*
X205130953Y-138788152D02*
X205035715Y-138835771D01*
X205464286Y-139407200D02*
X205369048Y-139454819D01*
X205369048Y-139454819D02*
X205130953Y-139454819D01*
X205130953Y-139454819D02*
X205035715Y-139407200D01*
X205035715Y-139407200D02*
X204988096Y-139311961D01*
X204988096Y-139311961D02*
X204988096Y-139216723D01*
X204988096Y-139216723D02*
X205035715Y-139121485D01*
X205035715Y-139121485D02*
X205130953Y-139073866D01*
X205130953Y-139073866D02*
X205369048Y-139073866D01*
X205369048Y-139073866D02*
X205464286Y-139026247D01*
X112166665Y-131454819D02*
X111833332Y-130978628D01*
X111595237Y-131454819D02*
X111595237Y-130454819D01*
X111595237Y-130454819D02*
X111976189Y-130454819D01*
X111976189Y-130454819D02*
X112071427Y-130502438D01*
X112071427Y-130502438D02*
X112119046Y-130550057D01*
X112119046Y-130550057D02*
X112166665Y-130645295D01*
X112166665Y-130645295D02*
X112166665Y-130788152D01*
X112166665Y-130788152D02*
X112119046Y-130883390D01*
X112119046Y-130883390D02*
X112071427Y-130931009D01*
X112071427Y-130931009D02*
X111976189Y-130978628D01*
X111976189Y-130978628D02*
X111595237Y-130978628D01*
X112738094Y-131454819D02*
X112642856Y-131407200D01*
X112642856Y-131407200D02*
X112595237Y-131359580D01*
X112595237Y-131359580D02*
X112547618Y-131264342D01*
X112547618Y-131264342D02*
X112547618Y-130978628D01*
X112547618Y-130978628D02*
X112595237Y-130883390D01*
X112595237Y-130883390D02*
X112642856Y-130835771D01*
X112642856Y-130835771D02*
X112738094Y-130788152D01*
X112738094Y-130788152D02*
X112880951Y-130788152D01*
X112880951Y-130788152D02*
X112976189Y-130835771D01*
X112976189Y-130835771D02*
X113023808Y-130883390D01*
X113023808Y-130883390D02*
X113071427Y-130978628D01*
X113071427Y-130978628D02*
X113071427Y-131264342D01*
X113071427Y-131264342D02*
X113023808Y-131359580D01*
X113023808Y-131359580D02*
X112976189Y-131407200D01*
X112976189Y-131407200D02*
X112880951Y-131454819D01*
X112880951Y-131454819D02*
X112738094Y-131454819D01*
X113357142Y-130788152D02*
X113738094Y-130788152D01*
X113499999Y-130454819D02*
X113499999Y-131311961D01*
X113499999Y-131311961D02*
X113547618Y-131407200D01*
X113547618Y-131407200D02*
X113642856Y-131454819D01*
X113642856Y-131454819D02*
X113738094Y-131454819D01*
X114499999Y-131454819D02*
X114499999Y-130931009D01*
X114499999Y-130931009D02*
X114452380Y-130835771D01*
X114452380Y-130835771D02*
X114357142Y-130788152D01*
X114357142Y-130788152D02*
X114166666Y-130788152D01*
X114166666Y-130788152D02*
X114071428Y-130835771D01*
X114499999Y-131407200D02*
X114404761Y-131454819D01*
X114404761Y-131454819D02*
X114166666Y-131454819D01*
X114166666Y-131454819D02*
X114071428Y-131407200D01*
X114071428Y-131407200D02*
X114023809Y-131311961D01*
X114023809Y-131311961D02*
X114023809Y-131216723D01*
X114023809Y-131216723D02*
X114071428Y-131121485D01*
X114071428Y-131121485D02*
X114166666Y-131073866D01*
X114166666Y-131073866D02*
X114404761Y-131073866D01*
X114404761Y-131073866D02*
X114499999Y-131026247D01*
X114976190Y-131454819D02*
X114976190Y-130788152D01*
X114976190Y-130978628D02*
X115023809Y-130883390D01*
X115023809Y-130883390D02*
X115071428Y-130835771D01*
X115071428Y-130835771D02*
X115166666Y-130788152D01*
X115166666Y-130788152D02*
X115261904Y-130788152D01*
X115500000Y-130788152D02*
X115738095Y-131454819D01*
X115976190Y-130788152D02*
X115738095Y-131454819D01*
X115738095Y-131454819D02*
X115642857Y-131692914D01*
X115642857Y-131692914D02*
X115595238Y-131740533D01*
X115595238Y-131740533D02*
X115500000Y-131788152D01*
X116357143Y-130931009D02*
X116690476Y-130931009D01*
X116833333Y-131454819D02*
X116357143Y-131454819D01*
X116357143Y-131454819D02*
X116357143Y-130454819D01*
X116357143Y-130454819D02*
X116833333Y-130454819D01*
X117261905Y-130788152D02*
X117261905Y-131454819D01*
X117261905Y-130883390D02*
X117309524Y-130835771D01*
X117309524Y-130835771D02*
X117404762Y-130788152D01*
X117404762Y-130788152D02*
X117547619Y-130788152D01*
X117547619Y-130788152D02*
X117642857Y-130835771D01*
X117642857Y-130835771D02*
X117690476Y-130931009D01*
X117690476Y-130931009D02*
X117690476Y-131454819D01*
X118595238Y-131407200D02*
X118500000Y-131454819D01*
X118500000Y-131454819D02*
X118309524Y-131454819D01*
X118309524Y-131454819D02*
X118214286Y-131407200D01*
X118214286Y-131407200D02*
X118166667Y-131359580D01*
X118166667Y-131359580D02*
X118119048Y-131264342D01*
X118119048Y-131264342D02*
X118119048Y-130978628D01*
X118119048Y-130978628D02*
X118166667Y-130883390D01*
X118166667Y-130883390D02*
X118214286Y-130835771D01*
X118214286Y-130835771D02*
X118309524Y-130788152D01*
X118309524Y-130788152D02*
X118500000Y-130788152D01*
X118500000Y-130788152D02*
X118595238Y-130835771D01*
X119166667Y-131454819D02*
X119071429Y-131407200D01*
X119071429Y-131407200D02*
X119023810Y-131359580D01*
X119023810Y-131359580D02*
X118976191Y-131264342D01*
X118976191Y-131264342D02*
X118976191Y-130978628D01*
X118976191Y-130978628D02*
X119023810Y-130883390D01*
X119023810Y-130883390D02*
X119071429Y-130835771D01*
X119071429Y-130835771D02*
X119166667Y-130788152D01*
X119166667Y-130788152D02*
X119309524Y-130788152D01*
X119309524Y-130788152D02*
X119404762Y-130835771D01*
X119404762Y-130835771D02*
X119452381Y-130883390D01*
X119452381Y-130883390D02*
X119500000Y-130978628D01*
X119500000Y-130978628D02*
X119500000Y-131264342D01*
X119500000Y-131264342D02*
X119452381Y-131359580D01*
X119452381Y-131359580D02*
X119404762Y-131407200D01*
X119404762Y-131407200D02*
X119309524Y-131454819D01*
X119309524Y-131454819D02*
X119166667Y-131454819D01*
X120357143Y-131454819D02*
X120357143Y-130454819D01*
X120357143Y-131407200D02*
X120261905Y-131454819D01*
X120261905Y-131454819D02*
X120071429Y-131454819D01*
X120071429Y-131454819D02*
X119976191Y-131407200D01*
X119976191Y-131407200D02*
X119928572Y-131359580D01*
X119928572Y-131359580D02*
X119880953Y-131264342D01*
X119880953Y-131264342D02*
X119880953Y-130978628D01*
X119880953Y-130978628D02*
X119928572Y-130883390D01*
X119928572Y-130883390D02*
X119976191Y-130835771D01*
X119976191Y-130835771D02*
X120071429Y-130788152D01*
X120071429Y-130788152D02*
X120261905Y-130788152D01*
X120261905Y-130788152D02*
X120357143Y-130835771D01*
X121214286Y-131407200D02*
X121119048Y-131454819D01*
X121119048Y-131454819D02*
X120928572Y-131454819D01*
X120928572Y-131454819D02*
X120833334Y-131407200D01*
X120833334Y-131407200D02*
X120785715Y-131311961D01*
X120785715Y-131311961D02*
X120785715Y-130931009D01*
X120785715Y-130931009D02*
X120833334Y-130835771D01*
X120833334Y-130835771D02*
X120928572Y-130788152D01*
X120928572Y-130788152D02*
X121119048Y-130788152D01*
X121119048Y-130788152D02*
X121214286Y-130835771D01*
X121214286Y-130835771D02*
X121261905Y-130931009D01*
X121261905Y-130931009D02*
X121261905Y-131026247D01*
X121261905Y-131026247D02*
X120785715Y-131121485D01*
X121690477Y-131454819D02*
X121690477Y-130788152D01*
X121690477Y-130978628D02*
X121738096Y-130883390D01*
X121738096Y-130883390D02*
X121785715Y-130835771D01*
X121785715Y-130835771D02*
X121880953Y-130788152D01*
X121880953Y-130788152D02*
X121976191Y-130788152D01*
X122071430Y-131550057D02*
X122833334Y-131550057D01*
X123023811Y-131407200D02*
X123166668Y-131454819D01*
X123166668Y-131454819D02*
X123404763Y-131454819D01*
X123404763Y-131454819D02*
X123500001Y-131407200D01*
X123500001Y-131407200D02*
X123547620Y-131359580D01*
X123547620Y-131359580D02*
X123595239Y-131264342D01*
X123595239Y-131264342D02*
X123595239Y-131169104D01*
X123595239Y-131169104D02*
X123547620Y-131073866D01*
X123547620Y-131073866D02*
X123500001Y-131026247D01*
X123500001Y-131026247D02*
X123404763Y-130978628D01*
X123404763Y-130978628D02*
X123214287Y-130931009D01*
X123214287Y-130931009D02*
X123119049Y-130883390D01*
X123119049Y-130883390D02*
X123071430Y-130835771D01*
X123071430Y-130835771D02*
X123023811Y-130740533D01*
X123023811Y-130740533D02*
X123023811Y-130645295D01*
X123023811Y-130645295D02*
X123071430Y-130550057D01*
X123071430Y-130550057D02*
X123119049Y-130502438D01*
X123119049Y-130502438D02*
X123214287Y-130454819D01*
X123214287Y-130454819D02*
X123452382Y-130454819D01*
X123452382Y-130454819D02*
X123595239Y-130502438D01*
X123928573Y-130788152D02*
X124119049Y-131454819D01*
X124119049Y-131454819D02*
X124309525Y-130978628D01*
X124309525Y-130978628D02*
X124500001Y-131454819D01*
X124500001Y-131454819D02*
X124690477Y-130788152D01*
X125071430Y-131454819D02*
X125071430Y-130788152D01*
X125071430Y-130454819D02*
X125023811Y-130502438D01*
X125023811Y-130502438D02*
X125071430Y-130550057D01*
X125071430Y-130550057D02*
X125119049Y-130502438D01*
X125119049Y-130502438D02*
X125071430Y-130454819D01*
X125071430Y-130454819D02*
X125071430Y-130550057D01*
X125404763Y-130788152D02*
X125785715Y-130788152D01*
X125547620Y-130454819D02*
X125547620Y-131311961D01*
X125547620Y-131311961D02*
X125595239Y-131407200D01*
X125595239Y-131407200D02*
X125690477Y-131454819D01*
X125690477Y-131454819D02*
X125785715Y-131454819D01*
X126547620Y-131407200D02*
X126452382Y-131454819D01*
X126452382Y-131454819D02*
X126261906Y-131454819D01*
X126261906Y-131454819D02*
X126166668Y-131407200D01*
X126166668Y-131407200D02*
X126119049Y-131359580D01*
X126119049Y-131359580D02*
X126071430Y-131264342D01*
X126071430Y-131264342D02*
X126071430Y-130978628D01*
X126071430Y-130978628D02*
X126119049Y-130883390D01*
X126119049Y-130883390D02*
X126166668Y-130835771D01*
X126166668Y-130835771D02*
X126261906Y-130788152D01*
X126261906Y-130788152D02*
X126452382Y-130788152D01*
X126452382Y-130788152D02*
X126547620Y-130835771D01*
X126976192Y-131454819D02*
X126976192Y-130454819D01*
X127404763Y-131454819D02*
X127404763Y-130931009D01*
X127404763Y-130931009D02*
X127357144Y-130835771D01*
X127357144Y-130835771D02*
X127261906Y-130788152D01*
X127261906Y-130788152D02*
X127119049Y-130788152D01*
X127119049Y-130788152D02*
X127023811Y-130835771D01*
X127023811Y-130835771D02*
X126976192Y-130883390D01*
D10*
X111803884Y-122948609D02*
X112137217Y-122948609D01*
X112280074Y-123472419D02*
X111803884Y-123472419D01*
X111803884Y-123472419D02*
X111803884Y-122472419D01*
X111803884Y-122472419D02*
X112280074Y-122472419D01*
X112708646Y-123472419D02*
X112708646Y-122472419D01*
X112708646Y-122472419D02*
X113280074Y-123472419D01*
X113280074Y-123472419D02*
X113280074Y-122472419D01*
X114327693Y-123377180D02*
X114280074Y-123424800D01*
X114280074Y-123424800D02*
X114137217Y-123472419D01*
X114137217Y-123472419D02*
X114041979Y-123472419D01*
X114041979Y-123472419D02*
X113899122Y-123424800D01*
X113899122Y-123424800D02*
X113803884Y-123329561D01*
X113803884Y-123329561D02*
X113756265Y-123234323D01*
X113756265Y-123234323D02*
X113708646Y-123043847D01*
X113708646Y-123043847D02*
X113708646Y-122900990D01*
X113708646Y-122900990D02*
X113756265Y-122710514D01*
X113756265Y-122710514D02*
X113803884Y-122615276D01*
X113803884Y-122615276D02*
X113899122Y-122520038D01*
X113899122Y-122520038D02*
X114041979Y-122472419D01*
X114041979Y-122472419D02*
X114137217Y-122472419D01*
X114137217Y-122472419D02*
X114280074Y-122520038D01*
X114280074Y-122520038D02*
X114327693Y-122567657D01*
X114518170Y-123567657D02*
X115280074Y-123567657D01*
X115470551Y-123186704D02*
X115946741Y-123186704D01*
X115375313Y-123472419D02*
X115708646Y-122472419D01*
X115708646Y-122472419D02*
X116041979Y-123472419D01*
X111753884Y-128048609D02*
X112087217Y-128048609D01*
X112230074Y-128572419D02*
X111753884Y-128572419D01*
X111753884Y-128572419D02*
X111753884Y-127572419D01*
X111753884Y-127572419D02*
X112230074Y-127572419D01*
X112658646Y-128572419D02*
X112658646Y-127572419D01*
X112658646Y-127572419D02*
X113230074Y-128572419D01*
X113230074Y-128572419D02*
X113230074Y-127572419D01*
X114277693Y-128477180D02*
X114230074Y-128524800D01*
X114230074Y-128524800D02*
X114087217Y-128572419D01*
X114087217Y-128572419D02*
X113991979Y-128572419D01*
X113991979Y-128572419D02*
X113849122Y-128524800D01*
X113849122Y-128524800D02*
X113753884Y-128429561D01*
X113753884Y-128429561D02*
X113706265Y-128334323D01*
X113706265Y-128334323D02*
X113658646Y-128143847D01*
X113658646Y-128143847D02*
X113658646Y-128000990D01*
X113658646Y-128000990D02*
X113706265Y-127810514D01*
X113706265Y-127810514D02*
X113753884Y-127715276D01*
X113753884Y-127715276D02*
X113849122Y-127620038D01*
X113849122Y-127620038D02*
X113991979Y-127572419D01*
X113991979Y-127572419D02*
X114087217Y-127572419D01*
X114087217Y-127572419D02*
X114230074Y-127620038D01*
X114230074Y-127620038D02*
X114277693Y-127667657D01*
X114468170Y-128667657D02*
X115230074Y-128667657D01*
X115801503Y-128048609D02*
X115944360Y-128096228D01*
X115944360Y-128096228D02*
X115991979Y-128143847D01*
X115991979Y-128143847D02*
X116039598Y-128239085D01*
X116039598Y-128239085D02*
X116039598Y-128381942D01*
X116039598Y-128381942D02*
X115991979Y-128477180D01*
X115991979Y-128477180D02*
X115944360Y-128524800D01*
X115944360Y-128524800D02*
X115849122Y-128572419D01*
X115849122Y-128572419D02*
X115468170Y-128572419D01*
X115468170Y-128572419D02*
X115468170Y-127572419D01*
X115468170Y-127572419D02*
X115801503Y-127572419D01*
X115801503Y-127572419D02*
X115896741Y-127620038D01*
X115896741Y-127620038D02*
X115944360Y-127667657D01*
X115944360Y-127667657D02*
X115991979Y-127762895D01*
X115991979Y-127762895D02*
X115991979Y-127858133D01*
X115991979Y-127858133D02*
X115944360Y-127953371D01*
X115944360Y-127953371D02*
X115896741Y-128000990D01*
X115896741Y-128000990D02*
X115801503Y-128048609D01*
X115801503Y-128048609D02*
X115468170Y-128048609D01*
X114327693Y-125020038D02*
X114232455Y-124972419D01*
X114232455Y-124972419D02*
X114089598Y-124972419D01*
X114089598Y-124972419D02*
X113946741Y-125020038D01*
X113946741Y-125020038D02*
X113851503Y-125115276D01*
X113851503Y-125115276D02*
X113803884Y-125210514D01*
X113803884Y-125210514D02*
X113756265Y-125400990D01*
X113756265Y-125400990D02*
X113756265Y-125543847D01*
X113756265Y-125543847D02*
X113803884Y-125734323D01*
X113803884Y-125734323D02*
X113851503Y-125829561D01*
X113851503Y-125829561D02*
X113946741Y-125924800D01*
X113946741Y-125924800D02*
X114089598Y-125972419D01*
X114089598Y-125972419D02*
X114184836Y-125972419D01*
X114184836Y-125972419D02*
X114327693Y-125924800D01*
X114327693Y-125924800D02*
X114375312Y-125877180D01*
X114375312Y-125877180D02*
X114375312Y-125543847D01*
X114375312Y-125543847D02*
X114184836Y-125543847D01*
X114803884Y-125972419D02*
X114803884Y-124972419D01*
X114803884Y-124972419D02*
X115375312Y-125972419D01*
X115375312Y-125972419D02*
X115375312Y-124972419D01*
X115851503Y-125972419D02*
X115851503Y-124972419D01*
X115851503Y-124972419D02*
X116089598Y-124972419D01*
X116089598Y-124972419D02*
X116232455Y-125020038D01*
X116232455Y-125020038D02*
X116327693Y-125115276D01*
X116327693Y-125115276D02*
X116375312Y-125210514D01*
X116375312Y-125210514D02*
X116422931Y-125400990D01*
X116422931Y-125400990D02*
X116422931Y-125543847D01*
X116422931Y-125543847D02*
X116375312Y-125734323D01*
X116375312Y-125734323D02*
X116327693Y-125829561D01*
X116327693Y-125829561D02*
X116232455Y-125924800D01*
X116232455Y-125924800D02*
X116089598Y-125972419D01*
X116089598Y-125972419D02*
X115851503Y-125972419D01*
X123756265Y-123424800D02*
X123899122Y-123472419D01*
X123899122Y-123472419D02*
X124137217Y-123472419D01*
X124137217Y-123472419D02*
X124232455Y-123424800D01*
X124232455Y-123424800D02*
X124280074Y-123377180D01*
X124280074Y-123377180D02*
X124327693Y-123281942D01*
X124327693Y-123281942D02*
X124327693Y-123186704D01*
X124327693Y-123186704D02*
X124280074Y-123091466D01*
X124280074Y-123091466D02*
X124232455Y-123043847D01*
X124232455Y-123043847D02*
X124137217Y-122996228D01*
X124137217Y-122996228D02*
X123946741Y-122948609D01*
X123946741Y-122948609D02*
X123851503Y-122900990D01*
X123851503Y-122900990D02*
X123803884Y-122853371D01*
X123803884Y-122853371D02*
X123756265Y-122758133D01*
X123756265Y-122758133D02*
X123756265Y-122662895D01*
X123756265Y-122662895D02*
X123803884Y-122567657D01*
X123803884Y-122567657D02*
X123851503Y-122520038D01*
X123851503Y-122520038D02*
X123946741Y-122472419D01*
X123946741Y-122472419D02*
X124184836Y-122472419D01*
X124184836Y-122472419D02*
X124327693Y-122520038D01*
X124708646Y-122567657D02*
X124756265Y-122520038D01*
X124756265Y-122520038D02*
X124851503Y-122472419D01*
X124851503Y-122472419D02*
X125089598Y-122472419D01*
X125089598Y-122472419D02*
X125184836Y-122520038D01*
X125184836Y-122520038D02*
X125232455Y-122567657D01*
X125232455Y-122567657D02*
X125280074Y-122662895D01*
X125280074Y-122662895D02*
X125280074Y-122758133D01*
X125280074Y-122758133D02*
X125232455Y-122900990D01*
X125232455Y-122900990D02*
X124661027Y-123472419D01*
X124661027Y-123472419D02*
X125280074Y-123472419D01*
X123756265Y-128424800D02*
X123899122Y-128472419D01*
X123899122Y-128472419D02*
X124137217Y-128472419D01*
X124137217Y-128472419D02*
X124232455Y-128424800D01*
X124232455Y-128424800D02*
X124280074Y-128377180D01*
X124280074Y-128377180D02*
X124327693Y-128281942D01*
X124327693Y-128281942D02*
X124327693Y-128186704D01*
X124327693Y-128186704D02*
X124280074Y-128091466D01*
X124280074Y-128091466D02*
X124232455Y-128043847D01*
X124232455Y-128043847D02*
X124137217Y-127996228D01*
X124137217Y-127996228D02*
X123946741Y-127948609D01*
X123946741Y-127948609D02*
X123851503Y-127900990D01*
X123851503Y-127900990D02*
X123803884Y-127853371D01*
X123803884Y-127853371D02*
X123756265Y-127758133D01*
X123756265Y-127758133D02*
X123756265Y-127662895D01*
X123756265Y-127662895D02*
X123803884Y-127567657D01*
X123803884Y-127567657D02*
X123851503Y-127520038D01*
X123851503Y-127520038D02*
X123946741Y-127472419D01*
X123946741Y-127472419D02*
X124184836Y-127472419D01*
X124184836Y-127472419D02*
X124327693Y-127520038D01*
X125280074Y-128472419D02*
X124708646Y-128472419D01*
X124994360Y-128472419D02*
X124994360Y-127472419D01*
X124994360Y-127472419D02*
X124899122Y-127615276D01*
X124899122Y-127615276D02*
X124803884Y-127710514D01*
X124803884Y-127710514D02*
X124708646Y-127758133D01*
X122285714Y-96631704D02*
X122761904Y-96631704D01*
X122190476Y-96917419D02*
X122523809Y-95917419D01*
X122523809Y-95917419D02*
X122857142Y-96917419D01*
X123142857Y-96012657D02*
X123190476Y-95965038D01*
X123190476Y-95965038D02*
X123285714Y-95917419D01*
X123285714Y-95917419D02*
X123523809Y-95917419D01*
X123523809Y-95917419D02*
X123619047Y-95965038D01*
X123619047Y-95965038D02*
X123666666Y-96012657D01*
X123666666Y-96012657D02*
X123714285Y-96107895D01*
X123714285Y-96107895D02*
X123714285Y-96203133D01*
X123714285Y-96203133D02*
X123666666Y-96345990D01*
X123666666Y-96345990D02*
X123095238Y-96917419D01*
X123095238Y-96917419D02*
X123714285Y-96917419D01*
X130303884Y-91872419D02*
X130303884Y-90872419D01*
X130875312Y-91872419D02*
X130446741Y-91300990D01*
X130875312Y-90872419D02*
X130303884Y-91443847D01*
X131875312Y-91777180D02*
X131827693Y-91824800D01*
X131827693Y-91824800D02*
X131684836Y-91872419D01*
X131684836Y-91872419D02*
X131589598Y-91872419D01*
X131589598Y-91872419D02*
X131446741Y-91824800D01*
X131446741Y-91824800D02*
X131351503Y-91729561D01*
X131351503Y-91729561D02*
X131303884Y-91634323D01*
X131303884Y-91634323D02*
X131256265Y-91443847D01*
X131256265Y-91443847D02*
X131256265Y-91300990D01*
X131256265Y-91300990D02*
X131303884Y-91110514D01*
X131303884Y-91110514D02*
X131351503Y-91015276D01*
X131351503Y-91015276D02*
X131446741Y-90920038D01*
X131446741Y-90920038D02*
X131589598Y-90872419D01*
X131589598Y-90872419D02*
X131684836Y-90872419D01*
X131684836Y-90872419D02*
X131827693Y-90920038D01*
X131827693Y-90920038D02*
X131875312Y-90967657D01*
X131780074Y-99372419D02*
X131303884Y-99372419D01*
X131303884Y-99372419D02*
X131303884Y-98372419D01*
X131875312Y-96872419D02*
X131541979Y-96396228D01*
X131303884Y-96872419D02*
X131303884Y-95872419D01*
X131303884Y-95872419D02*
X131684836Y-95872419D01*
X131684836Y-95872419D02*
X131780074Y-95920038D01*
X131780074Y-95920038D02*
X131827693Y-95967657D01*
X131827693Y-95967657D02*
X131875312Y-96062895D01*
X131875312Y-96062895D02*
X131875312Y-96205752D01*
X131875312Y-96205752D02*
X131827693Y-96300990D01*
X131827693Y-96300990D02*
X131780074Y-96348609D01*
X131780074Y-96348609D02*
X131684836Y-96396228D01*
X131684836Y-96396228D02*
X131303884Y-96396228D01*
X129161027Y-103372419D02*
X129494360Y-104372419D01*
X129494360Y-104372419D02*
X129827693Y-103372419D01*
X130732455Y-104277180D02*
X130684836Y-104324800D01*
X130684836Y-104324800D02*
X130541979Y-104372419D01*
X130541979Y-104372419D02*
X130446741Y-104372419D01*
X130446741Y-104372419D02*
X130303884Y-104324800D01*
X130303884Y-104324800D02*
X130208646Y-104229561D01*
X130208646Y-104229561D02*
X130161027Y-104134323D01*
X130161027Y-104134323D02*
X130113408Y-103943847D01*
X130113408Y-103943847D02*
X130113408Y-103800990D01*
X130113408Y-103800990D02*
X130161027Y-103610514D01*
X130161027Y-103610514D02*
X130208646Y-103515276D01*
X130208646Y-103515276D02*
X130303884Y-103420038D01*
X130303884Y-103420038D02*
X130446741Y-103372419D01*
X130446741Y-103372419D02*
X130541979Y-103372419D01*
X130541979Y-103372419D02*
X130684836Y-103420038D01*
X130684836Y-103420038D02*
X130732455Y-103467657D01*
X131732455Y-104277180D02*
X131684836Y-104324800D01*
X131684836Y-104324800D02*
X131541979Y-104372419D01*
X131541979Y-104372419D02*
X131446741Y-104372419D01*
X131446741Y-104372419D02*
X131303884Y-104324800D01*
X131303884Y-104324800D02*
X131208646Y-104229561D01*
X131208646Y-104229561D02*
X131161027Y-104134323D01*
X131161027Y-104134323D02*
X131113408Y-103943847D01*
X131113408Y-103943847D02*
X131113408Y-103800990D01*
X131113408Y-103800990D02*
X131161027Y-103610514D01*
X131161027Y-103610514D02*
X131208646Y-103515276D01*
X131208646Y-103515276D02*
X131303884Y-103420038D01*
X131303884Y-103420038D02*
X131446741Y-103372419D01*
X131446741Y-103372419D02*
X131541979Y-103372419D01*
X131541979Y-103372419D02*
X131684836Y-103420038D01*
X131684836Y-103420038D02*
X131732455Y-103467657D01*
X128303884Y-94372419D02*
X128303884Y-93372419D01*
X128303884Y-93372419D02*
X128637217Y-94086704D01*
X128637217Y-94086704D02*
X128970550Y-93372419D01*
X128970550Y-93372419D02*
X128970550Y-94372419D01*
X129446741Y-93372419D02*
X129446741Y-94181942D01*
X129446741Y-94181942D02*
X129494360Y-94277180D01*
X129494360Y-94277180D02*
X129541979Y-94324800D01*
X129541979Y-94324800D02*
X129637217Y-94372419D01*
X129637217Y-94372419D02*
X129827693Y-94372419D01*
X129827693Y-94372419D02*
X129922931Y-94324800D01*
X129922931Y-94324800D02*
X129970550Y-94277180D01*
X129970550Y-94277180D02*
X130018169Y-94181942D01*
X130018169Y-94181942D02*
X130018169Y-93372419D01*
X130351503Y-93372419D02*
X130922931Y-93372419D01*
X130637217Y-94372419D02*
X130637217Y-93372419D01*
X131256265Y-93848609D02*
X131589598Y-93848609D01*
X131732455Y-94372419D02*
X131256265Y-94372419D01*
X131256265Y-94372419D02*
X131256265Y-93372419D01*
X131256265Y-93372419D02*
X131732455Y-93372419D01*
X129827693Y-100920038D02*
X129732455Y-100872419D01*
X129732455Y-100872419D02*
X129589598Y-100872419D01*
X129589598Y-100872419D02*
X129446741Y-100920038D01*
X129446741Y-100920038D02*
X129351503Y-101015276D01*
X129351503Y-101015276D02*
X129303884Y-101110514D01*
X129303884Y-101110514D02*
X129256265Y-101300990D01*
X129256265Y-101300990D02*
X129256265Y-101443847D01*
X129256265Y-101443847D02*
X129303884Y-101634323D01*
X129303884Y-101634323D02*
X129351503Y-101729561D01*
X129351503Y-101729561D02*
X129446741Y-101824800D01*
X129446741Y-101824800D02*
X129589598Y-101872419D01*
X129589598Y-101872419D02*
X129684836Y-101872419D01*
X129684836Y-101872419D02*
X129827693Y-101824800D01*
X129827693Y-101824800D02*
X129875312Y-101777180D01*
X129875312Y-101777180D02*
X129875312Y-101443847D01*
X129875312Y-101443847D02*
X129684836Y-101443847D01*
X130303884Y-101872419D02*
X130303884Y-100872419D01*
X130303884Y-100872419D02*
X130875312Y-101872419D01*
X130875312Y-101872419D02*
X130875312Y-100872419D01*
X131351503Y-101872419D02*
X131351503Y-100872419D01*
X131351503Y-100872419D02*
X131589598Y-100872419D01*
X131589598Y-100872419D02*
X131732455Y-100920038D01*
X131732455Y-100920038D02*
X131827693Y-101015276D01*
X131827693Y-101015276D02*
X131875312Y-101110514D01*
X131875312Y-101110514D02*
X131922931Y-101300990D01*
X131922931Y-101300990D02*
X131922931Y-101443847D01*
X131922931Y-101443847D02*
X131875312Y-101634323D01*
X131875312Y-101634323D02*
X131827693Y-101729561D01*
X131827693Y-101729561D02*
X131732455Y-101824800D01*
X131732455Y-101824800D02*
X131589598Y-101872419D01*
X131589598Y-101872419D02*
X131351503Y-101872419D01*
X188309524Y-90921704D02*
X188785714Y-90921704D01*
X188214286Y-91207419D02*
X188547619Y-90207419D01*
X188547619Y-90207419D02*
X188880952Y-91207419D01*
X189214286Y-91207419D02*
X189214286Y-90207419D01*
X189214286Y-90207419D02*
X189547619Y-90921704D01*
X189547619Y-90921704D02*
X189880952Y-90207419D01*
X189880952Y-90207419D02*
X189880952Y-91207419D01*
X190309524Y-91159800D02*
X190452381Y-91207419D01*
X190452381Y-91207419D02*
X190690476Y-91207419D01*
X190690476Y-91207419D02*
X190785714Y-91159800D01*
X190785714Y-91159800D02*
X190833333Y-91112180D01*
X190833333Y-91112180D02*
X190880952Y-91016942D01*
X190880952Y-91016942D02*
X190880952Y-90921704D01*
X190880952Y-90921704D02*
X190833333Y-90826466D01*
X190833333Y-90826466D02*
X190785714Y-90778847D01*
X190785714Y-90778847D02*
X190690476Y-90731228D01*
X190690476Y-90731228D02*
X190500000Y-90683609D01*
X190500000Y-90683609D02*
X190404762Y-90635990D01*
X190404762Y-90635990D02*
X190357143Y-90588371D01*
X190357143Y-90588371D02*
X190309524Y-90493133D01*
X190309524Y-90493133D02*
X190309524Y-90397895D01*
X190309524Y-90397895D02*
X190357143Y-90302657D01*
X190357143Y-90302657D02*
X190404762Y-90255038D01*
X190404762Y-90255038D02*
X190500000Y-90207419D01*
X190500000Y-90207419D02*
X190738095Y-90207419D01*
X190738095Y-90207419D02*
X190880952Y-90255038D01*
X191833333Y-91207419D02*
X191261905Y-91207419D01*
X191547619Y-91207419D02*
X191547619Y-90207419D01*
X191547619Y-90207419D02*
X191452381Y-90350276D01*
X191452381Y-90350276D02*
X191357143Y-90445514D01*
X191357143Y-90445514D02*
X191261905Y-90493133D01*
X192785714Y-91207419D02*
X192214286Y-91207419D01*
X192500000Y-91207419D02*
X192500000Y-90207419D01*
X192500000Y-90207419D02*
X192404762Y-90350276D01*
X192404762Y-90350276D02*
X192309524Y-90445514D01*
X192309524Y-90445514D02*
X192214286Y-90493133D01*
X193738095Y-91207419D02*
X193166667Y-91207419D01*
X193452381Y-91207419D02*
X193452381Y-90207419D01*
X193452381Y-90207419D02*
X193357143Y-90350276D01*
X193357143Y-90350276D02*
X193261905Y-90445514D01*
X193261905Y-90445514D02*
X193166667Y-90493133D01*
X194071429Y-90207419D02*
X194738095Y-90207419D01*
X194738095Y-90207419D02*
X194309524Y-91207419D01*
X193211027Y-85222419D02*
X193544360Y-86222419D01*
X193544360Y-86222419D02*
X193877693Y-85222419D01*
X194401503Y-85222419D02*
X194591979Y-85222419D01*
X194591979Y-85222419D02*
X194687217Y-85270038D01*
X194687217Y-85270038D02*
X194782455Y-85365276D01*
X194782455Y-85365276D02*
X194830074Y-85555752D01*
X194830074Y-85555752D02*
X194830074Y-85889085D01*
X194830074Y-85889085D02*
X194782455Y-86079561D01*
X194782455Y-86079561D02*
X194687217Y-86174800D01*
X194687217Y-86174800D02*
X194591979Y-86222419D01*
X194591979Y-86222419D02*
X194401503Y-86222419D01*
X194401503Y-86222419D02*
X194306265Y-86174800D01*
X194306265Y-86174800D02*
X194211027Y-86079561D01*
X194211027Y-86079561D02*
X194163408Y-85889085D01*
X194163408Y-85889085D02*
X194163408Y-85555752D01*
X194163408Y-85555752D02*
X194211027Y-85365276D01*
X194211027Y-85365276D02*
X194306265Y-85270038D01*
X194306265Y-85270038D02*
X194401503Y-85222419D01*
X195258646Y-85222419D02*
X195258646Y-86031942D01*
X195258646Y-86031942D02*
X195306265Y-86127180D01*
X195306265Y-86127180D02*
X195353884Y-86174800D01*
X195353884Y-86174800D02*
X195449122Y-86222419D01*
X195449122Y-86222419D02*
X195639598Y-86222419D01*
X195639598Y-86222419D02*
X195734836Y-86174800D01*
X195734836Y-86174800D02*
X195782455Y-86127180D01*
X195782455Y-86127180D02*
X195830074Y-86031942D01*
X195830074Y-86031942D02*
X195830074Y-85222419D01*
X196163408Y-85222419D02*
X196734836Y-85222419D01*
X196449122Y-86222419D02*
X196449122Y-85222419D01*
X194477693Y-82670038D02*
X194382455Y-82622419D01*
X194382455Y-82622419D02*
X194239598Y-82622419D01*
X194239598Y-82622419D02*
X194096741Y-82670038D01*
X194096741Y-82670038D02*
X194001503Y-82765276D01*
X194001503Y-82765276D02*
X193953884Y-82860514D01*
X193953884Y-82860514D02*
X193906265Y-83050990D01*
X193906265Y-83050990D02*
X193906265Y-83193847D01*
X193906265Y-83193847D02*
X193953884Y-83384323D01*
X193953884Y-83384323D02*
X194001503Y-83479561D01*
X194001503Y-83479561D02*
X194096741Y-83574800D01*
X194096741Y-83574800D02*
X194239598Y-83622419D01*
X194239598Y-83622419D02*
X194334836Y-83622419D01*
X194334836Y-83622419D02*
X194477693Y-83574800D01*
X194477693Y-83574800D02*
X194525312Y-83527180D01*
X194525312Y-83527180D02*
X194525312Y-83193847D01*
X194525312Y-83193847D02*
X194334836Y-83193847D01*
X194953884Y-83622419D02*
X194953884Y-82622419D01*
X194953884Y-82622419D02*
X195525312Y-83622419D01*
X195525312Y-83622419D02*
X195525312Y-82622419D01*
X196001503Y-83622419D02*
X196001503Y-82622419D01*
X196001503Y-82622419D02*
X196239598Y-82622419D01*
X196239598Y-82622419D02*
X196382455Y-82670038D01*
X196382455Y-82670038D02*
X196477693Y-82765276D01*
X196477693Y-82765276D02*
X196525312Y-82860514D01*
X196525312Y-82860514D02*
X196572931Y-83050990D01*
X196572931Y-83050990D02*
X196572931Y-83193847D01*
X196572931Y-83193847D02*
X196525312Y-83384323D01*
X196525312Y-83384323D02*
X196477693Y-83479561D01*
X196477693Y-83479561D02*
X196382455Y-83574800D01*
X196382455Y-83574800D02*
X196239598Y-83622419D01*
X196239598Y-83622419D02*
X196001503Y-83622419D01*
X194511027Y-87622419D02*
X194844360Y-88622419D01*
X194844360Y-88622419D02*
X195177693Y-87622419D01*
X195511027Y-88622419D02*
X195511027Y-87622419D01*
X195987217Y-88622419D02*
X195987217Y-87622419D01*
X195987217Y-87622419D02*
X196558645Y-88622419D01*
X196558645Y-88622419D02*
X196558645Y-87622419D01*
X174738095Y-81957419D02*
X174738095Y-80957419D01*
X174738095Y-80957419D02*
X175119047Y-80957419D01*
X175119047Y-80957419D02*
X175214285Y-81005038D01*
X175214285Y-81005038D02*
X175261904Y-81052657D01*
X175261904Y-81052657D02*
X175309523Y-81147895D01*
X175309523Y-81147895D02*
X175309523Y-81290752D01*
X175309523Y-81290752D02*
X175261904Y-81385990D01*
X175261904Y-81385990D02*
X175214285Y-81433609D01*
X175214285Y-81433609D02*
X175119047Y-81481228D01*
X175119047Y-81481228D02*
X174738095Y-81481228D01*
X175642857Y-80957419D02*
X175880952Y-81957419D01*
X175880952Y-81957419D02*
X176071428Y-81243133D01*
X176071428Y-81243133D02*
X176261904Y-81957419D01*
X176261904Y-81957419D02*
X176500000Y-80957419D01*
X177595238Y-81909800D02*
X177738095Y-81957419D01*
X177738095Y-81957419D02*
X177976190Y-81957419D01*
X177976190Y-81957419D02*
X178071428Y-81909800D01*
X178071428Y-81909800D02*
X178119047Y-81862180D01*
X178119047Y-81862180D02*
X178166666Y-81766942D01*
X178166666Y-81766942D02*
X178166666Y-81671704D01*
X178166666Y-81671704D02*
X178119047Y-81576466D01*
X178119047Y-81576466D02*
X178071428Y-81528847D01*
X178071428Y-81528847D02*
X177976190Y-81481228D01*
X177976190Y-81481228D02*
X177785714Y-81433609D01*
X177785714Y-81433609D02*
X177690476Y-81385990D01*
X177690476Y-81385990D02*
X177642857Y-81338371D01*
X177642857Y-81338371D02*
X177595238Y-81243133D01*
X177595238Y-81243133D02*
X177595238Y-81147895D01*
X177595238Y-81147895D02*
X177642857Y-81052657D01*
X177642857Y-81052657D02*
X177690476Y-81005038D01*
X177690476Y-81005038D02*
X177785714Y-80957419D01*
X177785714Y-80957419D02*
X178023809Y-80957419D01*
X178023809Y-80957419D02*
X178166666Y-81005038D01*
X178500000Y-80957419D02*
X178738095Y-81957419D01*
X178738095Y-81957419D02*
X178928571Y-81243133D01*
X178928571Y-81243133D02*
X179119047Y-81957419D01*
X179119047Y-81957419D02*
X179357143Y-80957419D01*
D11*
X192293333Y-75034819D02*
X191960000Y-74558628D01*
X191721905Y-75034819D02*
X191721905Y-74034819D01*
X191721905Y-74034819D02*
X192102857Y-74034819D01*
X192102857Y-74034819D02*
X192198095Y-74082438D01*
X192198095Y-74082438D02*
X192245714Y-74130057D01*
X192245714Y-74130057D02*
X192293333Y-74225295D01*
X192293333Y-74225295D02*
X192293333Y-74368152D01*
X192293333Y-74368152D02*
X192245714Y-74463390D01*
X192245714Y-74463390D02*
X192198095Y-74511009D01*
X192198095Y-74511009D02*
X192102857Y-74558628D01*
X192102857Y-74558628D02*
X191721905Y-74558628D01*
X192674286Y-74130057D02*
X192721905Y-74082438D01*
X192721905Y-74082438D02*
X192817143Y-74034819D01*
X192817143Y-74034819D02*
X193055238Y-74034819D01*
X193055238Y-74034819D02*
X193150476Y-74082438D01*
X193150476Y-74082438D02*
X193198095Y-74130057D01*
X193198095Y-74130057D02*
X193245714Y-74225295D01*
X193245714Y-74225295D02*
X193245714Y-74320533D01*
X193245714Y-74320533D02*
X193198095Y-74463390D01*
X193198095Y-74463390D02*
X192626667Y-75034819D01*
X192626667Y-75034819D02*
X193245714Y-75034819D01*
%TO.C,TPA2016*%
D10*
X177000000Y-106560000D02*
X199000000Y-106560000D01*
X199000000Y-134560000D01*
X177000000Y-134560000D01*
X177000000Y-106560000D01*
%TO.C,J1*%
X127000000Y-77000000D02*
X135500000Y-77000000D01*
X135500000Y-87500000D01*
X127000000Y-87500000D01*
X127000000Y-77000000D01*
%TO.C,RDA5807*%
X184851400Y-95500000D02*
X195851400Y-95500000D01*
X195851400Y-106500000D01*
X184851400Y-106500000D01*
X184851400Y-95500000D01*
%TO.C,LS2*%
X199960000Y-118540000D02*
X199960000Y-113460000D01*
X205040000Y-113460000D02*
X205040000Y-118540000D01*
X199960000Y-113460000D02*
G75*
G02*
X205040000Y-113460000I2540000J0D01*
G01*
X205040000Y-118540000D02*
G75*
G02*
X199960000Y-118540000I-2540000J0D01*
G01*
%TO.C,SW4*%
X126460000Y-121000000D02*
X137460000Y-121000000D01*
X137460000Y-133000000D01*
X126460000Y-133000000D01*
X126460000Y-121000000D01*
D12*
%TO.C,A1*%
X148200000Y-78800000D02*
X147720000Y-78800000D01*
X148200000Y-78800000D02*
X148200000Y-79220000D01*
X148200000Y-81340000D02*
X148200000Y-81760000D01*
X148200000Y-83880000D02*
X148200000Y-84300000D01*
X148200000Y-86420000D02*
X148200000Y-86840000D01*
X148200000Y-88960000D02*
X148200000Y-89380000D01*
X148200000Y-91500000D02*
X148200000Y-91920000D01*
X148200000Y-94040000D02*
X148200000Y-94460000D01*
X148200000Y-96580000D02*
X148200000Y-97000000D01*
X148200000Y-99120000D02*
X148200000Y-99540000D01*
X148200000Y-101660000D02*
X148200000Y-102080000D01*
X148200000Y-104200000D02*
X148200000Y-104620000D01*
X148200000Y-106740000D02*
X148200000Y-107160000D01*
X148200000Y-109280000D02*
X148200000Y-109700000D01*
X148200000Y-111820000D02*
X148200000Y-112240000D01*
X148200000Y-114360000D02*
X148200000Y-114780000D01*
X148200000Y-116900000D02*
X148200000Y-117320000D01*
X148200000Y-119440000D02*
X148200000Y-119860000D01*
X148200000Y-121980000D02*
X148200000Y-122400000D01*
X148200000Y-124520000D02*
X148200000Y-124940000D01*
X148230324Y-76680000D02*
X147720000Y-76680000D01*
X148540000Y-76680063D02*
X148540000Y-76323000D01*
X148540000Y-78800000D02*
X148540000Y-79220000D01*
X148540000Y-81340000D02*
X148540000Y-81760000D01*
X148540000Y-83880000D02*
X148540000Y-84300000D01*
X148540000Y-86420000D02*
X148540000Y-86840000D01*
X148540000Y-88960000D02*
X148540000Y-89380000D01*
X148540000Y-91500000D02*
X148540000Y-91920000D01*
X148540000Y-94040000D02*
X148540000Y-94460000D01*
X148540000Y-96580000D02*
X148540000Y-97000000D01*
X148540000Y-99120000D02*
X148540000Y-99540000D01*
X148540000Y-101660000D02*
X148540000Y-102080000D01*
X148540000Y-104200000D02*
X148540000Y-104620000D01*
X148540000Y-106740000D02*
X148540000Y-107160000D01*
X148540000Y-109280000D02*
X148540000Y-109700000D01*
X148540000Y-111820000D02*
X148540000Y-112240000D01*
X148540000Y-114360000D02*
X148540000Y-114780000D01*
X148540000Y-116900000D02*
X148540000Y-117320000D01*
X148540000Y-119440000D02*
X148540000Y-119860000D01*
X148540000Y-121980000D02*
X148540000Y-122400000D01*
X148540000Y-124520000D02*
X148540000Y-124940000D01*
X148540000Y-127059937D02*
X148540000Y-127417000D01*
X148810000Y-76260000D02*
X151300000Y-76260000D01*
X148810000Y-127480000D02*
X152647939Y-127480000D01*
X151300000Y-76260000D02*
X151300000Y-77173520D01*
X151300000Y-76260000D02*
X152647940Y-76260000D01*
X151300000Y-79566480D02*
X151300000Y-124173520D01*
X151300000Y-126566480D02*
X151300000Y-127480000D01*
X153572061Y-76260000D02*
X154575000Y-76260000D01*
X154575000Y-76260000D02*
X163045000Y-76260000D01*
X154910000Y-76260000D02*
X154910000Y-77176000D01*
X154910000Y-79564000D02*
X154910000Y-80780000D01*
X154910000Y-80780000D02*
X155206090Y-80780000D01*
X155210000Y-127480000D02*
X153572061Y-127480000D01*
X157563910Y-80780000D02*
X160056090Y-80780000D01*
X162410000Y-127480000D02*
X155210000Y-127480000D01*
X162413910Y-80780000D02*
X162710000Y-80780000D01*
X162710000Y-76260000D02*
X162710000Y-77176000D01*
X162710000Y-79564000D02*
X162710000Y-80780000D01*
X163045000Y-76260000D02*
X164047939Y-76260000D01*
X164047939Y-127480000D02*
X162410000Y-127480000D01*
X164972061Y-76260000D02*
X166320000Y-76260000D01*
X164972061Y-127480000D02*
X168810000Y-127480000D01*
X166320000Y-76260000D02*
X166320000Y-77173520D01*
X166320000Y-79566480D02*
X166320000Y-124173520D01*
X166320000Y-126566480D02*
X166320000Y-127480000D01*
X168810000Y-76260000D02*
X166320000Y-76260000D01*
X169080000Y-76680063D02*
X169080000Y-76323000D01*
X169080000Y-78800000D02*
X169080000Y-79220000D01*
X169080000Y-81340000D02*
X169080000Y-81760000D01*
X169080000Y-83880000D02*
X169080000Y-84300000D01*
X169080000Y-86420000D02*
X169080000Y-86840000D01*
X169080000Y-88960000D02*
X169080000Y-89380000D01*
X169080000Y-91500000D02*
X169080000Y-91920000D01*
X169080000Y-94040000D02*
X169080000Y-94460000D01*
X169080000Y-96580000D02*
X169080000Y-97000000D01*
X169080000Y-99120000D02*
X169080000Y-99540000D01*
X169080000Y-101660000D02*
X169080000Y-102080000D01*
X169080000Y-104200000D02*
X169080000Y-104620000D01*
X169080000Y-106740000D02*
X169080000Y-107160000D01*
X169080000Y-109280000D02*
X169080000Y-109700000D01*
X169080000Y-111820000D02*
X169080000Y-112240000D01*
X169080000Y-114360000D02*
X169080000Y-114780000D01*
X169080000Y-116900000D02*
X169080000Y-117320000D01*
X169080000Y-119440000D02*
X169080000Y-119860000D01*
X169080000Y-121980000D02*
X169080000Y-122400000D01*
X169080000Y-124520000D02*
X169080000Y-124940000D01*
X169080000Y-127059937D02*
X169080000Y-127417000D01*
X169420000Y-78800000D02*
X169420000Y-79220000D01*
X169420000Y-81340000D02*
X169420000Y-81760000D01*
X169420000Y-83880000D02*
X169420000Y-84300000D01*
X169420000Y-86420000D02*
X169420000Y-86840000D01*
X169420000Y-88960000D02*
X169420000Y-89380000D01*
X169420000Y-91500000D02*
X169420000Y-91920000D01*
X169420000Y-94040000D02*
X169420000Y-94460000D01*
X169420000Y-96580000D02*
X169420000Y-97000000D01*
X169420000Y-99120000D02*
X169420000Y-99540000D01*
X169420000Y-101660000D02*
X169420000Y-102080000D01*
X169420000Y-104200000D02*
X169420000Y-104620000D01*
X169420000Y-106740000D02*
X169420000Y-107160000D01*
X169420000Y-109280000D02*
X169420000Y-109700000D01*
X169420000Y-111820000D02*
X169420000Y-112240000D01*
X169420000Y-114360000D02*
X169420000Y-114780000D01*
X169420000Y-116900000D02*
X169420000Y-117320000D01*
X169420000Y-119440000D02*
X169420000Y-119860000D01*
X169420000Y-121980000D02*
X169420000Y-122400000D01*
X169420000Y-124520000D02*
X169420000Y-124940000D01*
X148230324Y-76680000D02*
G75*
G02*
X148810000Y-76260000I579692J-190051D01*
G01*
X148810000Y-127480000D02*
G75*
G02*
X148230324Y-127059937I1J610002D01*
G01*
X168810000Y-76260000D02*
G75*
G02*
X169389676Y-76680063I0J-610000D01*
G01*
X169389676Y-127059937D02*
G75*
G02*
X168810000Y-127480069I-579676J189837D01*
G01*
%TO.C,SW2*%
D10*
X111500000Y-111000000D02*
X125500000Y-111000000D01*
X125500000Y-120000000D01*
X111500000Y-120000000D01*
X111500000Y-111000000D01*
D12*
%TO.C,R1*%
X178420000Y-103580000D02*
X174580000Y-103580000D01*
X178420000Y-105420000D02*
X174580000Y-105420000D01*
D10*
%TO.C,LS1*%
X199960000Y-128040000D02*
X199960000Y-122960000D01*
X205040000Y-122960000D02*
X205040000Y-128040000D01*
X199960000Y-122960000D02*
G75*
G02*
X205040000Y-122960000I2540000J0D01*
G01*
X205040000Y-128040000D02*
G75*
G02*
X199960000Y-128040000I-2540000J0D01*
G01*
%TO.C,AE1*%
X208334000Y-137000000D02*
G75*
G02*
X197666000Y-137000000I-5334000J0D01*
G01*
X197666000Y-137000000D02*
G75*
G02*
X208334000Y-137000000I5334000J0D01*
G01*
%TO.C,SW3*%
X111500000Y-121100000D02*
X125500000Y-121100000D01*
X125500000Y-130100000D01*
X111500000Y-130100000D01*
X111500000Y-121100000D01*
%TO.C,A2*%
X111500000Y-89210000D02*
X134500000Y-89210000D01*
X134500000Y-106290000D01*
X111500000Y-106290000D01*
X111500000Y-89210000D01*
%TO.C,AMS1117*%
X187450000Y-81350000D02*
X199750000Y-81350000D01*
X199750000Y-89950000D01*
X187450000Y-89950000D01*
X187450000Y-81350000D01*
D12*
%TO.C,R2*%
X190540000Y-75580000D02*
X194380000Y-75580000D01*
X190540000Y-77420000D02*
X194380000Y-77420000D01*
%TD*%
M02*
