%TF.GenerationSoftware,KiCad,Pcbnew,9.0.6*%
%TF.CreationDate,2026-07-19T21:30:42+03:00*%
%TF.ProjectId,Schematic,53636865-6d61-4746-9963-2e6b69636164,rev?*%
%TF.SameCoordinates,Original*%
%TF.FileFunction,Copper,L2,Bot*%
%TF.FilePolarity,Positive*%
%FSLAX46Y46*%
G04 Gerber Fmt 4.6, Leading zero omitted, Abs format (unit mm)*
G04 Created by KiCad (PCBNEW 9.0.6) date 2026-07-19 21:30:42*
%MOMM*%
%LPD*%
G01*
G04 APERTURE LIST*
G04 Aperture macros list*
%AMRoundRect*
0 Rectangle with rounded corners*
0 $1 Rounding radius*
0 $2 $3 $4 $5 $6 $7 $8 $9 X,Y pos of 4 corners*
0 Add a 4 corners polygon primitive as box body*
4,1,4,$2,$3,$4,$5,$6,$7,$8,$9,$2,$3,0*
0 Add four circle primitives for the rounded corners*
1,1,$1+$1,$2,$3*
1,1,$1+$1,$4,$5*
1,1,$1+$1,$6,$7*
1,1,$1+$1,$8,$9*
0 Add four rect primitives between the rounded corners*
20,1,$1+$1,$2,$3,$4,$5,0*
20,1,$1+$1,$4,$5,$6,$7,0*
20,1,$1+$1,$6,$7,$8,$9,0*
20,1,$1+$1,$8,$9,$2,$3,0*%
%AMFreePoly0*
4,1,37,0.603843,0.796157,0.639018,0.796157,0.711114,0.766294,0.766294,0.711114,0.796157,0.639018,0.796157,0.603843,0.800000,0.600000,0.800000,-0.600000,0.796157,-0.603843,0.796157,-0.639018,0.766294,-0.711114,0.711114,-0.766294,0.639018,-0.796157,0.603843,-0.796157,0.600000,-0.800000,0.000000,-0.800000,0.000000,-0.796148,-0.078414,-0.796148,-0.232228,-0.765552,-0.377117,-0.705537,
-0.507515,-0.618408,-0.618408,-0.507515,-0.705537,-0.377117,-0.765552,-0.232228,-0.796148,-0.078414,-0.796148,0.078414,-0.765552,0.232228,-0.705537,0.377117,-0.618408,0.507515,-0.507515,0.618408,-0.377117,0.705537,-0.232228,0.765552,-0.078414,0.796148,0.000000,0.796148,0.000000,0.800000,0.600000,0.800000,0.603843,0.796157,0.603843,0.796157,$1*%
%AMFreePoly1*
4,1,37,0.000000,0.796148,0.078414,0.796148,0.232228,0.765552,0.377117,0.705537,0.507515,0.618408,0.618408,0.507515,0.705537,0.377117,0.765552,0.232228,0.796148,0.078414,0.796148,-0.078414,0.765552,-0.232228,0.705537,-0.377117,0.618408,-0.507515,0.507515,-0.618408,0.377117,-0.705537,0.232228,-0.765552,0.078414,-0.796148,0.000000,-0.796148,0.000000,-0.800000,-0.600000,-0.800000,
-0.603843,-0.796157,-0.639018,-0.796157,-0.711114,-0.766294,-0.766294,-0.711114,-0.796157,-0.639018,-0.796157,-0.603843,-0.800000,-0.600000,-0.800000,0.600000,-0.796157,0.603843,-0.796157,0.639018,-0.766294,0.711114,-0.711114,0.766294,-0.639018,0.796157,-0.603843,0.796157,-0.600000,0.800000,0.000000,0.800000,0.000000,0.796148,0.000000,0.796148,$1*%
G04 Aperture macros list end*
%TA.AperFunction,ComponentPad*%
%ADD10C,1.700000*%
%TD*%
%TA.AperFunction,ComponentPad*%
%ADD11C,5.080000*%
%TD*%
%TA.AperFunction,ComponentPad*%
%ADD12R,1.500000X1.500000*%
%TD*%
%TA.AperFunction,ComponentPad*%
%ADD13C,2.000000*%
%TD*%
%TA.AperFunction,ComponentPad*%
%ADD14RoundRect,0.190500X-0.762000X-0.444500X0.762000X-0.444500X0.762000X0.444500X-0.762000X0.444500X0*%
%TD*%
%TA.AperFunction,ComponentPad*%
%ADD15R,2.000000X2.000000*%
%TD*%
%TA.AperFunction,ComponentPad*%
%ADD16RoundRect,0.195000X0.455000X-0.605000X0.455000X0.605000X-0.455000X0.605000X-0.455000X-0.605000X0*%
%TD*%
%TA.AperFunction,ComponentPad*%
%ADD17RoundRect,0.200000X-0.600000X-0.600000X0.600000X-0.600000X0.600000X0.600000X-0.600000X0.600000X0*%
%TD*%
%TA.AperFunction,ComponentPad*%
%ADD18C,1.600000*%
%TD*%
%TA.AperFunction,ComponentPad*%
%ADD19FreePoly0,0.000000*%
%TD*%
%TA.AperFunction,ComponentPad*%
%ADD20FreePoly1,0.000000*%
%TD*%
%TA.AperFunction,ComponentPad*%
%ADD21C,1.400000*%
%TD*%
%TA.AperFunction,ComponentPad*%
%ADD22C,2.400000*%
%TD*%
%TA.AperFunction,ComponentPad*%
%ADD23C,1.905000*%
%TD*%
%TA.AperFunction,SMDPad,CuDef*%
%ADD24RoundRect,0.292500X0.682500X0.707500X-0.682500X0.707500X-0.682500X-0.707500X0.682500X-0.707500X0*%
%TD*%
%TA.AperFunction,SMDPad,CuDef*%
%ADD25RoundRect,0.195000X0.455000X0.805000X-0.455000X0.805000X-0.455000X-0.805000X0.455000X-0.805000X0*%
%TD*%
%TA.AperFunction,ViaPad*%
%ADD26C,0.600000*%
%TD*%
%TA.AperFunction,Conductor*%
%ADD27C,0.200000*%
%TD*%
G04 APERTURE END LIST*
D10*
%TO.P,TPA2016,*%
%TO.N,*%
X178500000Y-114160000D03*
D11*
X196460000Y-109100000D03*
X196460000Y-132020000D03*
D12*
%TO.P,TPA2016,1,VDD*%
%TO.N,3V3*%
X178500000Y-109080000D03*
D10*
%TO.P,TPA2016,2,GND*%
%TO.N,GND*%
X178500000Y-111620000D03*
%TO.P,TPA2016,3,RGND*%
X178500000Y-116700000D03*
%TO.P,TPA2016,4,RIN*%
%TO.N,RIGHT*%
X178500000Y-119240000D03*
%TO.P,TPA2016,5,LIN*%
%TO.N,LEFT*%
X178500000Y-121780000D03*
%TO.P,TPA2016,6,LGND*%
%TO.N,GND*%
X178500000Y-124320000D03*
%TO.P,TPA2016,7,SCL*%
%TO.N,SCL_A*%
X178500000Y-126860000D03*
%TO.P,TPA2016,8,SDA*%
%TO.N,SDA_A*%
X178500000Y-129400000D03*
%TO.P,TPA2016,9,I2C_VCC*%
%TO.N,3V3*%
X178500000Y-131940000D03*
D13*
%TO.P,TPA2016,10,ROUT+*%
%TO.N,Net-(U2-ROUT+)*%
X195000000Y-115000000D03*
%TO.P,TPA2016,11,ROUT-*%
%TO.N,Net-(U2-ROUT-)*%
X195000000Y-118500000D03*
%TO.P,TPA2016,12,LOUT-*%
%TO.N,Net-(U2-LOUT-)*%
X195000000Y-122620000D03*
%TO.P,TPA2016,13,LOUT+*%
%TO.N,Net-(U2-LOUT+)*%
X195000000Y-126120000D03*
%TD*%
D14*
%TO.P,J1,1,VCC*%
%TO.N,3V3*%
X129500000Y-86000000D03*
%TO.P,J1,2,GND*%
%TO.N,GND*%
X129500000Y-83460000D03*
%TO.P,J1,3,SCL*%
%TO.N,SCL*%
X129500000Y-80920000D03*
%TO.P,J1,4,SDA*%
%TO.N,SDA*%
X129500000Y-78380000D03*
%TD*%
D15*
%TO.P,LS2,1,1*%
%TO.N,Net-(U2-ROUT+)*%
X202500000Y-113460000D03*
%TO.P,LS2,2,2*%
%TO.N,Net-(U2-ROUT-)*%
X202500000Y-118540000D03*
%TD*%
D16*
%TO.P,BATT CHG,OUT+,OUT+*%
%TO.N,Net-(D1-K)*%
X200000000Y-76500000D03*
%TO.P,BATT CHG,OUT-,OUT-*%
%TO.N,GND*%
X202540000Y-76500000D03*
%TD*%
D15*
%TO.P,SW4,1,A*%
%TO.N,5V_IN*%
X130000000Y-124460000D03*
%TO.P,SW4,2,B*%
%TO.N,5V*%
X134500000Y-127000000D03*
%TO.P,SW4,3,C*%
%TO.N,3.3v*%
X130000000Y-129540000D03*
%TD*%
D17*
%TO.P,A1,1,GPIO0*%
%TO.N,SDA*%
X149920000Y-77740000D03*
D18*
%TO.P,A1,2,GPIO1*%
%TO.N,SCL*%
X149920000Y-80280000D03*
D19*
%TO.P,A1,3,GND*%
%TO.N,GND*%
X149920000Y-82820000D03*
D18*
%TO.P,A1,4,GPIO2*%
%TO.N,SCK*%
X149920000Y-85360000D03*
%TO.P,A1,5,GPIO3*%
%TO.N,unconnected-(A1-GPIO3-Pad5)*%
X149920000Y-87900000D03*
%TO.P,A1,6,GPIO4*%
%TO.N,unconnected-(A1-GPIO4-Pad6)*%
X149920000Y-90440000D03*
%TO.P,A1,7,GPIO5*%
%TO.N,unconnected-(A1-GPIO5-Pad7)*%
X149920000Y-92980000D03*
D19*
%TO.P,A1,8,GND*%
%TO.N,GND*%
X149920000Y-95520000D03*
D18*
%TO.P,A1,9,GPIO6*%
%TO.N,SDA1*%
X149920000Y-98060000D03*
%TO.P,A1,10,GPIO7*%
%TO.N,unconnected-(A1-GPIO7-Pad10)*%
X149920000Y-100600000D03*
%TO.P,A1,11,GPIO8*%
%TO.N,ENC_A_1*%
X149920000Y-103140000D03*
%TO.P,A1,12,GPIO9*%
%TO.N,SWITCH_1*%
X149920000Y-105680000D03*
D19*
%TO.P,A1,13,GND*%
%TO.N,GND*%
X149920000Y-108220000D03*
D18*
%TO.P,A1,14,GPIO10*%
%TO.N,ENC_B_1*%
X149920000Y-110760000D03*
%TO.P,A1,15,GPIO11*%
%TO.N,ENC_A_2*%
X149920000Y-113300000D03*
%TO.P,A1,16,GPIO12*%
%TO.N,SWITCH_2*%
X149920000Y-115840000D03*
%TO.P,A1,17,GPIO13*%
%TO.N,ENC_B_2*%
X149920000Y-118380000D03*
D19*
%TO.P,A1,18,GND*%
%TO.N,GND*%
X149920000Y-120920000D03*
D18*
%TO.P,A1,19,GPIO14*%
%TO.N,SDA_A*%
X149920000Y-123460000D03*
%TO.P,A1,20,GPIO15*%
%TO.N,SCL_A*%
X149920000Y-126000000D03*
%TO.P,A1,21,GPIO16*%
%TO.N,unconnected-(A1-GPIO16-Pad21)*%
X167700000Y-126000000D03*
%TO.P,A1,22,GPIO17*%
%TO.N,unconnected-(A1-GPIO17-Pad22)*%
X167700000Y-123460000D03*
D20*
%TO.P,A1,23,GND*%
%TO.N,GND*%
X167700000Y-120920000D03*
D18*
%TO.P,A1,24,GPIO18*%
%TO.N,unconnected-(A1-GPIO18-Pad24)*%
X167700000Y-118380000D03*
%TO.P,A1,25,GPIO19*%
%TO.N,unconnected-(A1-GPIO19-Pad25)*%
X167700000Y-115840000D03*
%TO.P,A1,26,GPIO20*%
%TO.N,unconnected-(A1-GPIO20-Pad26)*%
X167700000Y-113300000D03*
%TO.P,A1,27,GPIO21*%
%TO.N,unconnected-(A1-GPIO21-Pad27)*%
X167700000Y-110760000D03*
D20*
%TO.P,A1,28,GND*%
%TO.N,GND*%
X167700000Y-108220000D03*
D18*
%TO.P,A1,29,GPIO22*%
%TO.N,3.3v*%
X167700000Y-105680000D03*
%TO.P,A1,30,RUN*%
%TO.N,unconnected-(A1-RUN-Pad30)*%
X167700000Y-103140000D03*
%TO.P,A1,31,GPIO26_ADC0*%
%TO.N,unconnected-(A1-GPIO26_ADC0-Pad31)*%
X167700000Y-100600000D03*
%TO.P,A1,32,GPIO27_ADC1*%
%TO.N,unconnected-(A1-GPIO27_ADC1-Pad32)*%
X167700000Y-98060000D03*
D20*
%TO.P,A1,33,AGND*%
%TO.N,unconnected-(A1-AGND-Pad33)*%
X167700000Y-95520000D03*
D18*
%TO.P,A1,34,GPIO28_ADC2*%
%TO.N,unconnected-(A1-GPIO28_ADC2-Pad34)*%
X167700000Y-92980000D03*
%TO.P,A1,35,ADC_VREF*%
%TO.N,unconnected-(A1-ADC_VREF-Pad35)*%
X167700000Y-90440000D03*
%TO.P,A1,36,3V3*%
%TO.N,3V3*%
X167700000Y-87900000D03*
%TO.P,A1,37,3V3_EN*%
%TO.N,unconnected-(A1-3V3_EN-Pad37)*%
X167700000Y-85360000D03*
D20*
%TO.P,A1,38,GND*%
%TO.N,GND*%
X167700000Y-82820000D03*
D18*
%TO.P,A1,39,VSYS*%
%TO.N,VSYS*%
X167700000Y-80280000D03*
%TO.P,A1,40,VBUS*%
%TO.N,5V*%
X167700000Y-77740000D03*
%TD*%
D15*
%TO.P,SW2,A,A*%
%TO.N,ENC_A_1*%
X117500000Y-113000000D03*
D13*
%TO.P,SW2,B,B*%
%TO.N,ENC_B_1*%
X117500000Y-118000000D03*
%TO.P,SW2,C,C*%
%TO.N,GND*%
X117500000Y-115500000D03*
%TO.P,SW2,S1,S1*%
X122580000Y-118080000D03*
%TO.P,SW2,S2,S2*%
%TO.N,SWITCH_1*%
X122580000Y-113000000D03*
%TD*%
D21*
%TO.P,R1,1*%
%TO.N,3.3v*%
X179040000Y-104500000D03*
%TO.P,R1,2*%
%TO.N,GND*%
X173960000Y-104500000D03*
%TD*%
D15*
%TO.P,LS1,1,1*%
%TO.N,Net-(U2-LOUT-)*%
X202500000Y-122960000D03*
%TO.P,LS1,2,2*%
%TO.N,Net-(U2-LOUT+)*%
X202500000Y-128040000D03*
%TD*%
D22*
%TO.P,AE1,1,A*%
%TO.N,Net-(AE1-A)*%
X203000000Y-137000000D03*
%TD*%
D15*
%TO.P,SW3,A,A*%
%TO.N,ENC_A_2*%
X117500000Y-123100000D03*
D13*
%TO.P,SW3,B,B*%
%TO.N,ENC_B_2*%
X117500000Y-128100000D03*
%TO.P,SW3,C,C*%
%TO.N,GND*%
X117500000Y-125600000D03*
%TO.P,SW3,S1,S1*%
X122580000Y-128180000D03*
%TO.P,SW3,S2,S2*%
%TO.N,SWITCH_2*%
X122580000Y-123100000D03*
%TD*%
D15*
%TO.P,A2,1,KC*%
%TO.N,unconnected-(A2-KC-Pad1)*%
X133160000Y-91380000D03*
D13*
%TO.P,A2,2,MUTE*%
%TO.N,unconnected-(A2-MUTE-Pad2)*%
X133160000Y-93920000D03*
%TO.P,A2,3,R*%
%TO.N,RIGHT*%
X133160000Y-96460000D03*
%TO.P,A2,4,L*%
%TO.N,LEFT*%
X133160000Y-99000000D03*
%TO.P,A2,5,GND*%
%TO.N,GND*%
X133160000Y-101540000D03*
%TO.P,A2,6,VCC*%
%TO.N,5V_IN*%
X133160000Y-104080000D03*
%TD*%
D23*
%TO.P,AMS1117,1,GND*%
%TO.N,GND*%
X197850000Y-83110000D03*
%TO.P,AMS1117,2,VO*%
%TO.N,3.3v*%
X197850000Y-85650000D03*
%TO.P,AMS1117,3,VI*%
%TO.N,5V*%
X197850000Y-88190000D03*
%TD*%
D14*
%TO.P,PW SW,1,A*%
%TO.N,VSYS*%
X177000000Y-80000000D03*
%TO.P,PW SW,2,B*%
%TO.N,Net-(D1-K)*%
X177000000Y-77460000D03*
%TD*%
D21*
%TO.P,R2,1*%
%TO.N,Net-(D1-A)*%
X189920000Y-76500000D03*
%TO.P,R2,2*%
%TO.N,Net-(D1-K)*%
X195000000Y-76500000D03*
%TD*%
D24*
%TO.P,D1,1,K*%
%TO.N,Net-(D1-K)*%
X181150000Y-77400000D03*
D25*
%TO.P,D1,2,A*%
%TO.N,Net-(D1-A)*%
X182970000Y-77410000D03*
%TD*%
D26*
%TO.N,3.3v*%
X181500000Y-104500000D03*
%TD*%
D27*
%TO.N,GND*%
X149920000Y-108580000D02*
X149920000Y-108220000D01*
X148500000Y-111612900D02*
X148500000Y-109070000D01*
X140914900Y-119198000D02*
X148500000Y-111612900D01*
X142660000Y-128180000D02*
X149920000Y-120920000D01*
X123698000Y-119198000D02*
X140914900Y-119198000D01*
X149350000Y-108220000D02*
X149920000Y-108220000D01*
X122580000Y-118080000D02*
X123698000Y-119198000D01*
X122580000Y-128180000D02*
X142660000Y-128180000D01*
X148500000Y-109070000D02*
X149350000Y-108220000D01*
%TO.N,SWITCH_1*%
X122580000Y-113000000D02*
X127580000Y-108000000D01*
X127580000Y-108000000D02*
X145750000Y-108000000D01*
X145750000Y-108000000D02*
X148070000Y-105680000D01*
X148070000Y-105680000D02*
X149920000Y-105680000D01*
%TO.N,ENC_A_1*%
X117500000Y-113000000D02*
X123000000Y-107500000D01*
X145560000Y-107500000D02*
X149920000Y-103140000D01*
X123000000Y-107500000D02*
X145560000Y-107500000D01*
%TO.N,ENC_A_2*%
X120600000Y-120000000D02*
X141247100Y-120000000D01*
X147947100Y-113300000D02*
X149920000Y-113300000D01*
X117500000Y-123100000D02*
X120600000Y-120000000D01*
X141247100Y-120000000D02*
X147947100Y-113300000D01*
%TO.N,ENC_B_1*%
X117500000Y-118000000D02*
X119419892Y-118000000D01*
X121018892Y-119599000D02*
X141081000Y-119599000D01*
X119419892Y-118000000D02*
X121018892Y-119599000D01*
X141081000Y-119599000D02*
X149920000Y-110760000D01*
%TO.N,SWITCH_2*%
X141413200Y-120401000D02*
X145974200Y-115840000D01*
X125279000Y-120401000D02*
X141413200Y-120401000D01*
X122580000Y-123100000D02*
X125279000Y-120401000D01*
X145974200Y-115840000D02*
X149920000Y-115840000D01*
%TO.N,VSYS*%
X167980000Y-80000000D02*
X167700000Y-80280000D01*
X177000000Y-80000000D02*
X167980000Y-80000000D01*
%TO.N,3V3*%
X176000000Y-106580000D02*
X176000000Y-96200000D01*
X176000000Y-96200000D02*
X167700000Y-87900000D01*
X166599000Y-89001000D02*
X167700000Y-87900000D01*
X179651000Y-130789000D02*
X178500000Y-131940000D01*
X129500000Y-86000000D02*
X132501000Y-89001000D01*
X179651000Y-110231000D02*
X179651000Y-130789000D01*
X178500000Y-109080000D02*
X176000000Y-106580000D01*
X178500000Y-109080000D02*
X179651000Y-110231000D01*
X132501000Y-89001000D02*
X166599000Y-89001000D01*
%TO.N,ENC_B_2*%
X120400000Y-128100000D02*
X127698000Y-120802000D01*
X149540000Y-118000000D02*
X149920000Y-118380000D01*
X141579300Y-120802000D02*
X144381300Y-118000000D01*
X117500000Y-128100000D02*
X120400000Y-128100000D01*
X127698000Y-120802000D02*
X141579300Y-120802000D01*
X144381300Y-118000000D02*
X149540000Y-118000000D01*
%TO.N,Net-(D1-K)*%
X177060000Y-77400000D02*
X177000000Y-77460000D01*
X181150000Y-77400000D02*
X177060000Y-77400000D01*
%TO.N,3.3v*%
X133710000Y-133250000D02*
X179000000Y-133250000D01*
X130000000Y-129540000D02*
X133710000Y-133250000D01*
X181500000Y-130750000D02*
X181500000Y-104500000D01*
X179000000Y-133250000D02*
X181500000Y-130750000D01*
%TO.N,Net-(D1-A)*%
X189920000Y-76500000D02*
X189420000Y-77000000D01*
X183380000Y-77000000D02*
X182970000Y-77410000D01*
X189420000Y-77000000D02*
X183380000Y-77000000D01*
%TD*%
M02*
