%TF.GenerationSoftware,KiCad,Pcbnew,9.0.6*%
%TF.CreationDate,2026-07-19T21:30:42+03:00*%
%TF.ProjectId,Schematic,53636865-6d61-4746-9963-2e6b69636164,rev?*%
%TF.SameCoordinates,Original*%
%TF.FileFunction,Soldermask,Top*%
%TF.FilePolarity,Negative*%
%FSLAX46Y46*%
G04 Gerber Fmt 4.6, Leading zero omitted, Abs format (unit mm)*
G04 Created by KiCad (PCBNEW 9.0.6) date 2026-07-19 21:30:42*
%MOMM*%
%LPD*%
G01*
G04 APERTURE LIST*
G04 Aperture macros list*
%AMRoundRect*
0 Rectangle with rounded corners*
0 $1 Rounding radius*
0 $2 $3 $4 $5 $6 $7 $8 $9 X,Y pos of 4 corners*
0 Add a 4 corners polygon primitive as box body*
4,1,4,$2,$3,$4,$5,$6,$7,$8,$9,$2,$3,0*
0 Add four circle primitives for the rounded corners*
1,1,$1+$1,$2,$3*
1,1,$1+$1,$4,$5*
1,1,$1+$1,$6,$7*
1,1,$1+$1,$8,$9*
0 Add four rect primitives between the rounded corners*
20,1,$1+$1,$2,$3,$4,$5,0*
20,1,$1+$1,$4,$5,$6,$7,0*
20,1,$1+$1,$6,$7,$8,$9,0*
20,1,$1+$1,$8,$9,$2,$3,0*%
%AMFreePoly0*
4,1,37,0.800000,0.796148,0.878414,0.796148,1.032228,0.765552,1.177117,0.705537,1.307515,0.618408,1.418408,0.507515,1.505537,0.377117,1.565552,0.232228,1.596148,0.078414,1.596148,-0.078414,1.565552,-0.232228,1.505537,-0.377117,1.418408,-0.507515,1.307515,-0.618408,1.177117,-0.705537,1.032228,-0.765552,0.878414,-0.796148,0.800000,-0.796148,0.800000,-0.800000,-1.400000,-0.800000,
-1.403843,-0.796157,-1.439018,-0.796157,-1.511114,-0.766294,-1.566294,-0.711114,-1.596157,-0.639018,-1.596157,-0.603843,-1.600000,-0.600000,-1.600000,0.600000,-1.596157,0.603843,-1.596157,0.639018,-1.566294,0.711114,-1.511114,0.766294,-1.439018,0.796157,-1.403843,0.796157,-1.400000,0.800000,0.800000,0.800000,0.800000,0.796148,0.800000,0.796148,$1*%
%AMFreePoly1*
4,1,37,1.403843,0.796157,1.439018,0.796157,1.511114,0.766294,1.566294,0.711114,1.596157,0.639018,1.596157,0.603843,1.600000,0.600000,1.600000,-0.600000,1.596157,-0.603843,1.596157,-0.639018,1.566294,-0.711114,1.511114,-0.766294,1.439018,-0.796157,1.403843,-0.796157,1.400000,-0.800000,-0.800000,-0.800000,-0.800000,-0.796148,-0.878414,-0.796148,-1.032228,-0.765552,-1.177117,-0.705537,
-1.307515,-0.618408,-1.418408,-0.507515,-1.505537,-0.377117,-1.565552,-0.232228,-1.596148,-0.078414,-1.596148,0.078414,-1.565552,0.232228,-1.505537,0.377117,-1.418408,0.507515,-1.307515,0.618408,-1.177117,0.705537,-1.032228,0.765552,-0.878414,0.796148,-0.800000,0.796148,-0.800000,0.800000,1.400000,0.800000,1.403843,0.796157,1.403843,0.796157,$1*%
%AMFreePoly2*
4,1,37,0.603843,0.796157,0.639018,0.796157,0.711114,0.766294,0.766294,0.711114,0.796157,0.639018,0.796157,0.603843,0.800000,0.600000,0.800000,-0.600000,0.796157,-0.603843,0.796157,-0.639018,0.766294,-0.711114,0.711114,-0.766294,0.639018,-0.796157,0.603843,-0.796157,0.600000,-0.800000,0.000000,-0.800000,0.000000,-0.796148,-0.078414,-0.796148,-0.232228,-0.765552,-0.377117,-0.705537,
-0.507515,-0.618408,-0.618408,-0.507515,-0.705537,-0.377117,-0.765552,-0.232228,-0.796148,-0.078414,-0.796148,0.078414,-0.765552,0.232228,-0.705537,0.377117,-0.618408,0.507515,-0.507515,0.618408,-0.377117,0.705537,-0.232228,0.765552,-0.078414,0.796148,0.000000,0.796148,0.000000,0.800000,0.600000,0.800000,0.603843,0.796157,0.603843,0.796157,$1*%
%AMFreePoly3*
4,1,37,0.000000,0.796148,0.078414,0.796148,0.232228,0.765552,0.377117,0.705537,0.507515,0.618408,0.618408,0.507515,0.705537,0.377117,0.765552,0.232228,0.796148,0.078414,0.796148,-0.078414,0.765552,-0.232228,0.705537,-0.377117,0.618408,-0.507515,0.507515,-0.618408,0.377117,-0.705537,0.232228,-0.765552,0.078414,-0.796148,0.000000,-0.796148,0.000000,-0.800000,-0.600000,-0.800000,
-0.603843,-0.796157,-0.639018,-0.796157,-0.711114,-0.766294,-0.766294,-0.711114,-0.796157,-0.639018,-0.796157,-0.603843,-0.800000,-0.600000,-0.800000,0.600000,-0.796157,0.603843,-0.796157,0.639018,-0.766294,0.711114,-0.711114,0.766294,-0.639018,0.796157,-0.603843,0.796157,-0.600000,0.800000,0.000000,0.800000,0.000000,0.796148,0.000000,0.796148,$1*%
G04 Aperture macros list end*
%ADD10C,1.700000*%
%ADD11C,5.080000*%
%ADD12R,1.500000X1.500000*%
%ADD13C,2.000000*%
%ADD14RoundRect,0.190500X-0.762000X-0.444500X0.762000X-0.444500X0.762000X0.444500X-0.762000X0.444500X0*%
%ADD15R,1.200000X1.000000*%
%ADD16R,2.000000X2.000000*%
%ADD17RoundRect,0.195000X0.455000X-0.605000X0.455000X0.605000X-0.455000X0.605000X-0.455000X-0.605000X0*%
%ADD18C,2.200000*%
%ADD19C,1.850000*%
%ADD20FreePoly0,0.000000*%
%ADD21RoundRect,0.200000X-0.600000X-0.600000X0.600000X-0.600000X0.600000X0.600000X-0.600000X0.600000X0*%
%ADD22RoundRect,0.800000X-0.800000X-0.000010X0.800000X-0.000010X0.800000X0.000010X-0.800000X0.000010X0*%
%ADD23C,1.600000*%
%ADD24FreePoly1,0.000000*%
%ADD25FreePoly2,0.000000*%
%ADD26FreePoly3,0.000000*%
%ADD27C,1.400000*%
%ADD28C,2.400000*%
%ADD29C,1.905000*%
G04 APERTURE END LIST*
D10*
%TO.C,TPA2016*%
X178500000Y-114160000D03*
D11*
X196460000Y-109100000D03*
X196460000Y-132020000D03*
D12*
X178500000Y-109080000D03*
D10*
X178500000Y-111620000D03*
X178500000Y-116700000D03*
X178500000Y-119240000D03*
X178500000Y-121780000D03*
X178500000Y-124320000D03*
X178500000Y-126860000D03*
X178500000Y-129400000D03*
X178500000Y-131940000D03*
D13*
X195000000Y-115000000D03*
X195000000Y-118500000D03*
X195000000Y-122620000D03*
X195000000Y-126120000D03*
%TD*%
D14*
%TO.C,J1*%
X129500000Y-86000000D03*
X129500000Y-83460000D03*
X129500000Y-80920000D03*
X129500000Y-78380000D03*
%TD*%
D15*
%TO.C,RDA5807*%
X185451400Y-97000000D03*
X185451400Y-99000000D03*
X185500000Y-101000000D03*
X185500000Y-103032000D03*
X185451400Y-105000000D03*
X195251400Y-105000000D03*
X195251400Y-103000000D03*
X195251400Y-101000000D03*
X195251400Y-99000000D03*
X195251400Y-97000000D03*
%TD*%
D16*
%TO.C,LS2*%
X202500000Y-113460000D03*
X202500000Y-118540000D03*
%TD*%
D17*
%TO.C,BATT CHG*%
X200000000Y-76500000D03*
X202540000Y-76500000D03*
%TD*%
D16*
%TO.C,SW4*%
X130000000Y-124460000D03*
X134500000Y-127000000D03*
X130000000Y-129540000D03*
%TD*%
D18*
%TO.C,A1*%
X156085000Y-77870000D03*
D19*
X156385000Y-80900000D03*
X161235000Y-80900000D03*
D18*
X161535000Y-77870000D03*
D20*
X149120000Y-77740000D03*
D21*
X149920000Y-77740000D03*
D22*
X149120000Y-80280000D03*
D23*
X149920000Y-80280000D03*
D24*
X149120000Y-82820000D03*
D25*
X149920000Y-82820000D03*
D22*
X149120000Y-85360000D03*
D23*
X149920000Y-85360000D03*
D22*
X149120000Y-87900000D03*
D23*
X149920000Y-87900000D03*
D22*
X149120000Y-90440000D03*
D23*
X149920000Y-90440000D03*
D22*
X149120000Y-92980000D03*
D23*
X149920000Y-92980000D03*
D24*
X149120000Y-95520000D03*
D25*
X149920000Y-95520000D03*
D22*
X149120000Y-98060000D03*
D23*
X149920000Y-98060000D03*
D22*
X149120000Y-100600000D03*
D23*
X149920000Y-100600000D03*
D22*
X149120000Y-103140000D03*
D23*
X149920000Y-103140000D03*
D22*
X149120000Y-105680000D03*
D23*
X149920000Y-105680000D03*
D24*
X149120000Y-108220000D03*
D25*
X149920000Y-108220000D03*
D22*
X149120000Y-110760000D03*
D23*
X149920000Y-110760000D03*
D22*
X149120000Y-113300000D03*
D23*
X149920000Y-113300000D03*
D22*
X149120000Y-115840000D03*
D23*
X149920000Y-115840000D03*
D22*
X149120000Y-118380000D03*
D23*
X149920000Y-118380000D03*
D24*
X149120000Y-120920000D03*
D25*
X149920000Y-120920000D03*
D22*
X149120000Y-123460000D03*
D23*
X149920000Y-123460000D03*
D22*
X149120000Y-126000000D03*
D23*
X149920000Y-126000000D03*
X167700000Y-126000000D03*
D22*
X168500000Y-126000000D03*
D23*
X167700000Y-123460000D03*
D22*
X168500000Y-123460000D03*
D26*
X167700000Y-120920000D03*
D20*
X168500000Y-120920000D03*
D23*
X167700000Y-118380000D03*
D22*
X168500000Y-118380000D03*
D23*
X167700000Y-115840000D03*
D22*
X168500000Y-115840000D03*
D23*
X167700000Y-113300000D03*
D22*
X168500000Y-113300000D03*
D23*
X167700000Y-110760000D03*
D22*
X168500000Y-110760000D03*
D26*
X167700000Y-108220000D03*
D20*
X168500000Y-108220000D03*
D23*
X167700000Y-105680000D03*
D22*
X168500000Y-105680000D03*
D23*
X167700000Y-103140000D03*
D22*
X168500000Y-103140000D03*
D23*
X167700000Y-100600000D03*
D22*
X168500000Y-100600000D03*
D23*
X167700000Y-98060000D03*
D22*
X168500000Y-98060000D03*
D26*
X167700000Y-95520000D03*
D20*
X168500000Y-95520000D03*
D23*
X167700000Y-92980000D03*
D22*
X168500000Y-92980000D03*
D23*
X167700000Y-90440000D03*
D22*
X168500000Y-90440000D03*
D23*
X167700000Y-87900000D03*
D22*
X168500000Y-87900000D03*
D23*
X167700000Y-85360000D03*
D22*
X168500000Y-85360000D03*
D26*
X167700000Y-82820000D03*
D20*
X168500000Y-82820000D03*
D23*
X167700000Y-80280000D03*
D22*
X168500000Y-80280000D03*
D23*
X167700000Y-77740000D03*
D22*
X168500000Y-77740000D03*
%TD*%
D16*
%TO.C,SW2*%
X117500000Y-113000000D03*
D13*
X117500000Y-118000000D03*
X117500000Y-115500000D03*
X122580000Y-118080000D03*
X122580000Y-113000000D03*
%TD*%
D27*
%TO.C,R1*%
X179040000Y-104500000D03*
X173960000Y-104500000D03*
%TD*%
D16*
%TO.C,LS1*%
X202500000Y-122960000D03*
X202500000Y-128040000D03*
%TD*%
D28*
%TO.C,AE1*%
X203000000Y-137000000D03*
%TD*%
D16*
%TO.C,SW3*%
X117500000Y-123100000D03*
D13*
X117500000Y-128100000D03*
X117500000Y-125600000D03*
X122580000Y-128180000D03*
X122580000Y-123100000D03*
%TD*%
D16*
%TO.C,A2*%
X133160000Y-91380000D03*
D13*
X133160000Y-93920000D03*
X133160000Y-96460000D03*
X133160000Y-99000000D03*
X133160000Y-101540000D03*
X133160000Y-104080000D03*
%TD*%
D29*
%TO.C,AMS1117*%
X197850000Y-83110000D03*
X197850000Y-85650000D03*
X197850000Y-88190000D03*
%TD*%
D14*
%TO.C,PW SW*%
X177000000Y-80000000D03*
X177000000Y-77460000D03*
%TD*%
D27*
%TO.C,R2*%
X189920000Y-76500000D03*
X195000000Y-76500000D03*
%TD*%
M02*
